<?xml version="1.0" encoding="UTF-8" standalone="no"?>
<!DOCTYPE svg PUBLIC "-//W3C//DTD SVG 1.1//EN"
 "http://www.w3.org/Graphics/SVG/1.1/DTD/svg11.dtd">
<!-- Generated by graphviz version 2.43.0 (0)
 -->
<!-- Title: %3 Pages: 1 -->
<svg width="1784pt" height="238pt"
 viewBox="0.00 0.00 1783.50 237.74" xmlns="http://www.w3.org/2000/svg" xmlns:xlink="http://www.w3.org/1999/xlink">
<g id="graph0" class="graph" transform="scale(1 1) rotate(0) translate(36 201.74)">
<title>%3</title>
<polygon fill="dimgray" stroke="transparent" points="-36,36 -36,-201.74 1747.5,-201.74 1747.5,36 -36,36"/>
<text text-anchor="middle" x="855.75" y="-150.54" font-family="Helvetica,sans-Serif" font-size="14.00">Sweep&#39;s Plan &amp; Progress</text>
<!-- start -->
<g id="node1" class="node">
<title>start</title>
</g>
<!-- 65d03541&#45;aca0&#45;4342&#45;89d1&#45;25c651bd928f -->
<g id="node3" class="node">
<title>65d03541&#45;aca0&#45;4342&#45;89d1&#45;25c651bd928f</title>
<ellipse fill="#0ee832" stroke="black" cx="257" cy="-99.87" rx="175.23" ry="26.74"/>
<text text-anchor="middle" x="257" y="-103.67" font-family="Helvetica,sans-Serif" font-size="14.00">✓ Modify</text>
<text text-anchor="middle" x="257" y="-88.67" font-family="Helvetica,sans-Serif" font-size="14.00">whitepaper/product_overview.md</text>
</g>
<!-- start&#45;&gt;65d03541&#45;aca0&#45;4342&#45;89d1&#45;25c651bd928f -->
<g id="edge8" class="edge">
<title>start&#45;&gt;65d03541&#45;aca0&#45;4342&#45;89d1&#45;25c651bd928f</title>
<path fill="none" stroke="black" d="M30.65,-99.87C33.97,-99.87 49.7,-99.87 71.44,-99.87"/>
<polygon fill="black" stroke="black" points="71.47,-103.37 81.47,-99.87 71.47,-96.37 71.47,-103.37"/>
<text text-anchor="middle" x="56.07" y="-106.67" font-family="Helvetica,sans-Serif" font-size="14.00">Start</text>
</g>
<!-- end -->
<g id="node2" class="node">
<title>end</title>
</g>
<!-- 1bcbcf03&#45;5ada&#45;4514&#45;b77c&#45;c67551255793 -->
<g id="node4" class="node">
<title>1bcbcf03&#45;5ada&#45;4514&#45;b77c&#45;c67551255793</title>
<ellipse fill="white" stroke="black" cx="670" cy="-99.87" rx="164.1" ry="26.74"/>
<text text-anchor="middle" x="670" y="-103.67" font-family="Helvetica,sans-Serif" font-size="14.00">▶ Modify</text>
<text text-anchor="middle" x="670" y="-88.67" font-family="Helvetica,sans-Serif" font-size="14.00">whitepaper/advisory_board.md</text>
</g>
<!-- 65d03541&#45;aca0&#45;4342&#45;89d1&#45;25c651bd928f&#45;&gt;1bcbcf03&#45;5ada&#45;4514&#45;b77c&#45;c67551255793 -->
<g id="edge2" class="edge">
<title>65d03541&#45;aca0&#45;4342&#45;89d1&#45;25c651bd928f&#45;&gt;1bcbcf03&#45;5ada&#45;4514&#45;b77c&#45;c67551255793</title>
<path fill="none" stroke="black" d="M432.44,-99.87C453.54,-99.87 474.63,-99.87 495.73,-99.87"/>
<polygon fill="black" stroke="black" points="495.75,-103.37 505.75,-99.87 495.75,-96.37 495.75,-103.37"/>
</g>
<!-- bf6faf98&#45;cf71&#45;4824&#45;a3fb&#45;f5b279b3f367 -->
<g id="node7" class="node">
<title>bf6faf98&#45;cf71&#45;4824&#45;a3fb&#45;f5b279b3f367</title>
<polygon fill="#0ee832" stroke="black" points="440,-36 0,-36 0,0 440,0 440,-36"/>
<text text-anchor="middle" x="220" y="-14.3" font-family="Helvetica,sans-Serif" font-size="14.00">✓ Run GitHub Actions for `whitepaper/product_overview.md`</text>
</g>
<!-- 65d03541&#45;aca0&#45;4342&#45;89d1&#45;25c651bd928f&#45;&gt;bf6faf98&#45;cf71&#45;4824&#45;a3fb&#45;f5b279b3f367 -->
<g id="edge1" class="edge">
<title>65d03541&#45;aca0&#45;4342&#45;89d1&#45;25c651bd928f&#45;&gt;bf6faf98&#45;cf71&#45;4824&#45;a3fb&#45;f5b279b3f367</title>
<path fill="none" stroke="black" stroke-dasharray="5,2" d="M244.88,-72.72C240.8,-63.9 236.24,-54.05 232.15,-45.23"/>
<polygon fill="black" stroke="black" points="235.32,-43.75 227.94,-36.15 228.97,-46.69 235.32,-43.75"/>
</g>
<!-- 338d1f73&#45;2551&#45;4c94&#45;81f8&#45;763ecb144405 -->
<g id="node5" class="node">
<title>338d1f73&#45;2551&#45;4c94&#45;81f8&#45;763ecb144405</title>
<ellipse fill="white" stroke="black" cx="1098" cy="-99.87" rx="145.83" ry="26.74"/>
<text text-anchor="middle" x="1098" y="-103.67" font-family="Helvetica,sans-Serif" font-size="14.00">▶ Modify</text>
<text text-anchor="middle" x="1098" y="-88.67" font-family="Helvetica,sans-Serif" font-size="14.00">whitepaper/cover_page.md</text>
</g>
<!-- 1bcbcf03&#45;5ada&#45;4514&#45;b77c&#45;c67551255793&#45;&gt;338d1f73&#45;2551&#45;4c94&#45;81f8&#45;763ecb144405 -->
<g id="edge4" class="edge">
<title>1bcbcf03&#45;5ada&#45;4514&#45;b77c&#45;c67551255793&#45;&gt;338d1f73&#45;2551&#45;4c94&#45;81f8&#45;763ecb144405</title>
<path fill="none" stroke="black" d="M834.26,-99.87C870.2,-99.87 906.14,-99.87 942.09,-99.87"/>
<polygon fill="black" stroke="black" points="942.22,-103.37 952.22,-99.87 942.22,-96.37 942.22,-103.37"/>
</g>
<!-- d72f02c8&#45;42e9&#45;4031&#45;941d&#45;fd27af491b73 -->
<g id="node8" class="node">
<title>d72f02c8&#45;42e9&#45;4031&#45;941d&#45;fd27af491b73</title>
<polygon fill="white" stroke="black" points="881.5,-36 458.5,-36 458.5,0 881.5,0 881.5,-36"/>
<text text-anchor="middle" x="670" y="-14.3" font-family="Helvetica,sans-Serif" font-size="14.00">▶ Run GitHub Actions for `whitepaper/advisory_board.md`</text>
</g>
<!-- 1bcbcf03&#45;5ada&#45;4514&#45;b77c&#45;c67551255793&#45;&gt;d72f02c8&#45;42e9&#45;4031&#45;941d&#45;fd27af491b73 -->
<g id="edge3" class="edge">
<title>1bcbcf03&#45;5ada&#45;4514&#45;b77c&#45;c67551255793&#45;&gt;d72f02c8&#45;42e9&#45;4031&#45;941d&#45;fd27af491b73</title>
<path fill="none" stroke="black" stroke-dasharray="5,2" d="M670,-72.72C670,-64.27 670,-54.89 670,-46.36"/>
<polygon fill="black" stroke="black" points="673.5,-46.15 670,-36.15 666.5,-46.15 673.5,-46.15"/>
</g>
<!-- 0c6abfe8&#45;d7a9&#45;4c36&#45;be34&#45;33632d77a3a9 -->
<g id="node6" class="node">
<title>0c6abfe8&#45;d7a9&#45;4c36&#45;be34&#45;33632d77a3a9</title>
<ellipse fill="white" stroke="black" cx="1469" cy="-99.87" rx="145.83" ry="26.74"/>
<text text-anchor="middle" x="1469" y="-103.67" font-family="Helvetica,sans-Serif" font-size="14.00">▶ Modify</text>
<text text-anchor="middle" x="1469" y="-88.67" font-family="Helvetica,sans-Serif" font-size="14.00">whitepaper/appendices.md</text>
</g>
<!-- 338d1f73&#45;2551&#45;4c94&#45;81f8&#45;763ecb144405&#45;&gt;0c6abfe8&#45;d7a9&#45;4c36&#45;be34&#45;33632d77a3a9 -->
<g id="edge6" class="edge">
<title>338d1f73&#45;2551&#45;4c94&#45;81f8&#45;763ecb144405&#45;&gt;0c6abfe8&#45;d7a9&#45;4c36&#45;be34&#45;33632d77a3a9</title>
<path fill="none" stroke="black" d="M1244.01,-99.87C1266.98,-99.87 1289.94,-99.87 1312.91,-99.87"/>
<polygon fill="black" stroke="black" points="1313.11,-103.37 1323.11,-99.87 1313.11,-96.37 1313.11,-103.37"/>
</g>
<!-- c742a6f2&#45;ae28&#45;4acc&#45;856f&#45;b245a3a4541d -->
<g id="node9" class="node">
<title>c742a6f2&#45;ae28&#45;4acc&#45;856f&#45;b245a3a4541d</title>
<polygon fill="white" stroke="black" points="1296.5,-36 899.5,-36 899.5,0 1296.5,0 1296.5,-36"/>
<text text-anchor="middle" x="1098" y="-14.3" font-family="Helvetica,sans-Serif" font-size="14.00">▶ Run GitHub Actions for `whitepaper/cover_page.md`</text>
</g>
<!-- 338d1f73&#45;2551&#45;4c94&#45;81f8&#45;763ecb144405&#45;&gt;c742a6f2&#45;ae28&#45;4acc&#45;856f&#45;b245a3a4541d -->
<g id="edge5" class="edge">
<title>338d1f73&#45;2551&#45;4c94&#45;81f8&#45;763ecb144405&#45;&gt;c742a6f2&#45;ae28&#45;4acc&#45;856f&#45;b245a3a4541d</title>
<path fill="none" stroke="black" stroke-dasharray="5,2" d="M1098,-72.72C1098,-64.27 1098,-54.89 1098,-46.36"/>
<polygon fill="black" stroke="black" points="1101.5,-46.15 1098,-36.15 1094.5,-46.15 1101.5,-46.15"/>
</g>
<!-- 0c6abfe8&#45;d7a9&#45;4c36&#45;be34&#45;33632d77a3a9&#45;&gt;end -->
<g id="edge9" class="edge">
<title>0c6abfe8&#45;d7a9&#45;4c36&#45;be34&#45;33632d77a3a9&#45;&gt;end</title>
<path fill="none" stroke="black" d="M1614.81,-99.87C1634.57,-99.87 1651.62,-99.87 1662.07,-99.87"/>
<polygon fill="black" stroke="black" points="1662.35,-103.37 1672.35,-99.87 1662.35,-96.37 1662.35,-103.37"/>
<text text-anchor="middle" x="1643.58" y="-106.67" font-family="Helvetica,sans-Serif" font-size="14.00">Finish</text>
</g>
<!-- 5f63668c&#45;ca88&#45;402a&#45;bd0c&#45;525b38292cbb -->
<g id="node10" class="node">
<title>5f63668c&#45;ca88&#45;402a&#45;bd0c&#45;525b38292cbb</title>
<polygon fill="white" stroke="black" points="1711.5,-36 1314.5,-36 1314.5,0 1711.5,0 1711.5,-36"/>
<text text-anchor="middle" x="1513" y="-14.3" font-family="Helvetica,sans-Serif" font-size="14.00">▶ Run GitHub Actions for `whitepaper/appendices.md`</text>
</g>
<!-- 0c6abfe8&#45;d7a9&#45;4c36&#45;be34&#45;33632d77a3a9&#45;&gt;5f63668c&#45;ca88&#45;402a&#45;bd0c&#45;525b38292cbb -->
<g id="edge7" class="edge">
<title>0c6abfe8&#45;d7a9&#45;4c36&#45;be34&#45;33632d77a3a9&#45;&gt;5f63668c&#45;ca88&#45;402a&#45;bd0c&#45;525b38292cbb</title>
<path fill="none" stroke="black" stroke-dasharray="5,2" d="M1483.41,-72.72C1488.32,-63.8 1493.8,-53.84 1498.71,-44.95"/>
<polygon fill="black" stroke="black" points="1501.79,-46.59 1503.55,-36.15 1495.66,-43.22 1501.79,-46.59"/>
</g>
</g>
</svg>
