<?xml version="1.0" encoding="UTF-8" standalone="no"?>
<!DOCTYPE svg PUBLIC "-//W3C//DTD SVG 1.1//EN"
 "http://www.w3.org/Graphics/SVG/1.1/DTD/svg11.dtd">
<!-- Generated by graphviz version 2.43.0 (0)
 -->
<!-- Title: %3 Pages: 1 -->
<svg width="1905pt" height="238pt"
 viewBox="0.00 0.00 1904.50 237.74" xmlns="http://www.w3.org/2000/svg" xmlns:xlink="http://www.w3.org/1999/xlink">
<g id="graph0" class="graph" transform="scale(1 1) rotate(0) translate(36 201.74)">
<title>%3</title>
<polygon fill="dimgray" stroke="transparent" points="-36,36 -36,-201.74 1868.5,-201.74 1868.5,36 -36,36"/>
<text text-anchor="middle" x="916.25" y="-150.54" font-family="Helvetica,sans-Serif" font-size="14.00">Sweep&#39;s Plan &amp; Progress</text>
<!-- start -->
<g id="node1" class="node">
<title>start</title>
</g>
<!-- 71360f70&#45;5e6f&#45;425a&#45;9c3c&#45;e4e4121e78b3 -->
<g id="node3" class="node">
<title>71360f70&#45;5e6f&#45;425a&#45;9c3c&#45;e4e4121e78b3</title>
<ellipse fill="#0ee832" stroke="black" cx="240.5" cy="-99.87" rx="145.83" ry="26.74"/>
<text text-anchor="middle" x="240.5" y="-103.67" font-family="Helvetica,sans-Serif" font-size="14.00">✓ Modify</text>
<text text-anchor="middle" x="240.5" y="-88.67" font-family="Helvetica,sans-Serif" font-size="14.00">whitepaper/cover_page.md</text>
</g>
<!-- start&#45;&gt;71360f70&#45;5e6f&#45;425a&#45;9c3c&#45;e4e4121e78b3 -->
<g id="edge8" class="edge">
<title>start&#45;&gt;71360f70&#45;5e6f&#45;425a&#45;9c3c&#45;e4e4121e78b3</title>
<path fill="none" stroke="black" d="M43.07,-99.87C46.26,-99.87 62.6,-99.87 84.63,-99.87"/>
<polygon fill="black" stroke="black" points="84.76,-103.37 94.76,-99.87 84.76,-96.37 84.76,-103.37"/>
<text text-anchor="middle" x="68.92" y="-106.67" font-family="Helvetica,sans-Serif" font-size="14.00">Start</text>
</g>
<!-- end -->
<g id="node2" class="node">
<title>end</title>
</g>
<!-- 1830aa45&#45;4b74&#45;4843&#45;bb18&#45;4613147ab114 -->
<g id="node4" class="node">
<title>1830aa45&#45;4b74&#45;4843&#45;bb18&#45;4613147ab114</title>
<ellipse fill="white" stroke="black" cx="638.5" cy="-99.87" rx="175.23" ry="26.74"/>
<text text-anchor="middle" x="638.5" y="-103.67" font-family="Helvetica,sans-Serif" font-size="14.00">▶ Modify</text>
<text text-anchor="middle" x="638.5" y="-88.67" font-family="Helvetica,sans-Serif" font-size="14.00">whitepaper/product_overview.md</text>
</g>
<!-- 71360f70&#45;5e6f&#45;425a&#45;9c3c&#45;e4e4121e78b3&#45;&gt;1830aa45&#45;4b74&#45;4843&#45;bb18&#45;4613147ab114 -->
<g id="edge2" class="edge">
<title>71360f70&#45;5e6f&#45;425a&#45;9c3c&#45;e4e4121e78b3&#45;&gt;1830aa45&#45;4b74&#45;4843&#45;bb18&#45;4613147ab114</title>
<path fill="none" stroke="black" d="M386.25,-99.87C408.47,-99.87 430.68,-99.87 452.9,-99.87"/>
<polygon fill="black" stroke="black" points="453.11,-103.37 463.11,-99.87 453.11,-96.37 453.11,-103.37"/>
</g>
<!-- d14c2c20&#45;9fa6&#45;4824&#45;951e&#45;5d2a5d18c42d -->
<g id="node7" class="node">
<title>d14c2c20&#45;9fa6&#45;4824&#45;951e&#45;5d2a5d18c42d</title>
<polygon fill="yellow" stroke="black" points="401,-36 0,-36 0,0 401,0 401,-36"/>
<text text-anchor="middle" x="200.5" y="-14.3" font-family="Helvetica,sans-Serif" font-size="14.00">⋯ Run GitHub Actions for `whitepaper/cover_page.md`</text>
</g>
<!-- 71360f70&#45;5e6f&#45;425a&#45;9c3c&#45;e4e4121e78b3&#45;&gt;d14c2c20&#45;9fa6&#45;4824&#45;951e&#45;5d2a5d18c42d -->
<g id="edge1" class="edge">
<title>71360f70&#45;5e6f&#45;425a&#45;9c3c&#45;e4e4121e78b3&#45;&gt;d14c2c20&#45;9fa6&#45;4824&#45;951e&#45;5d2a5d18c42d</title>
<path fill="none" stroke="black" stroke-dasharray="5,2" d="M227.4,-72.72C222.99,-63.9 218.06,-54.05 213.64,-45.23"/>
<polygon fill="black" stroke="black" points="216.69,-43.52 209.09,-36.15 210.44,-46.66 216.69,-43.52"/>
</g>
<!-- 4045c92d&#45;aad5&#45;4ef1&#45;9f71&#45;81f26dba6fa0 -->
<g id="node5" class="node">
<title>4045c92d&#45;aad5&#45;4ef1&#45;9f71&#45;81f26dba6fa0</title>
<ellipse fill="white" stroke="black" cx="1108.5" cy="-99.87" rx="192.17" ry="26.74"/>
<text text-anchor="middle" x="1108.5" y="-103.67" font-family="Helvetica,sans-Serif" font-size="14.00">▶ Modify</text>
<text text-anchor="middle" x="1108.5" y="-88.67" font-family="Helvetica,sans-Serif" font-size="14.00">whitepaper/ai_personas_features.md</text>
</g>
<!-- 1830aa45&#45;4b74&#45;4843&#45;bb18&#45;4613147ab114&#45;&gt;4045c92d&#45;aad5&#45;4ef1&#45;9f71&#45;81f26dba6fa0 -->
<g id="edge4" class="edge">
<title>1830aa45&#45;4b74&#45;4843&#45;bb18&#45;4613147ab114&#45;&gt;4045c92d&#45;aad5&#45;4ef1&#45;9f71&#45;81f26dba6fa0</title>
<path fill="none" stroke="black" d="M814.29,-99.87C844.75,-99.87 875.21,-99.87 905.67,-99.87"/>
<polygon fill="black" stroke="black" points="906,-103.37 916,-99.87 906,-96.37 906,-103.37"/>
</g>
<!-- 68ad45e3&#45;1b12&#45;4093&#45;acfd&#45;f255b5d860e7 -->
<g id="node8" class="node">
<title>68ad45e3&#45;1b12&#45;4093&#45;acfd&#45;f255b5d860e7</title>
<polygon fill="white" stroke="black" points="858,-36 419,-36 419,0 858,0 858,-36"/>
<text text-anchor="middle" x="638.5" y="-14.3" font-family="Helvetica,sans-Serif" font-size="14.00">▶ Run GitHub Actions for `whitepaper/product_overview.md`</text>
</g>
<!-- 1830aa45&#45;4b74&#45;4843&#45;bb18&#45;4613147ab114&#45;&gt;68ad45e3&#45;1b12&#45;4093&#45;acfd&#45;f255b5d860e7 -->
<g id="edge3" class="edge">
<title>1830aa45&#45;4b74&#45;4843&#45;bb18&#45;4613147ab114&#45;&gt;68ad45e3&#45;1b12&#45;4093&#45;acfd&#45;f255b5d860e7</title>
<path fill="none" stroke="black" stroke-dasharray="5,2" d="M638.5,-72.72C638.5,-64.27 638.5,-54.89 638.5,-46.36"/>
<polygon fill="black" stroke="black" points="642,-46.15 638.5,-36.15 635,-46.15 642,-46.15"/>
</g>
<!-- 20d466f2&#45;5376&#45;4392&#45;9917&#45;ec1a45829678 -->
<g id="node6" class="node">
<title>20d466f2&#45;5376&#45;4392&#45;9917&#45;ec1a45829678</title>
<ellipse fill="white" stroke="black" cx="1566.5" cy="-99.87" rx="200.22" ry="26.74"/>
<text text-anchor="middle" x="1566.5" y="-103.67" font-family="Helvetica,sans-Serif" font-size="14.00">▶ Modify</text>
<text text-anchor="middle" x="1566.5" y="-88.67" font-family="Helvetica,sans-Serif" font-size="14.00">whitepaper/blockchain_integration.md</text>
</g>
<!-- 4045c92d&#45;aad5&#45;4ef1&#45;9f71&#45;81f26dba6fa0&#45;&gt;20d466f2&#45;5376&#45;4392&#45;9917&#45;ec1a45829678 -->
<g id="edge6" class="edge">
<title>4045c92d&#45;aad5&#45;4ef1&#45;9f71&#45;81f26dba6fa0&#45;&gt;20d466f2&#45;5376&#45;4392&#45;9917&#45;ec1a45829678</title>
<path fill="none" stroke="black" d="M1301.27,-99.87C1319.56,-99.87 1337.84,-99.87 1356.13,-99.87"/>
<polygon fill="black" stroke="black" points="1356.28,-103.37 1366.28,-99.87 1356.28,-96.37 1356.28,-103.37"/>
</g>
<!-- 6afd551a&#45;de72&#45;46a8&#45;a554&#45;0ad17760f79c -->
<g id="node9" class="node">
<title>6afd551a&#45;de72&#45;46a8&#45;a554&#45;0ad17760f79c</title>
<polygon fill="white" stroke="black" points="1340.5,-36 876.5,-36 876.5,0 1340.5,0 1340.5,-36"/>
<text text-anchor="middle" x="1108.5" y="-14.3" font-family="Helvetica,sans-Serif" font-size="14.00">▶ Run GitHub Actions for `whitepaper/ai_personas_features.md`</text>
</g>
<!-- 4045c92d&#45;aad5&#45;4ef1&#45;9f71&#45;81f26dba6fa0&#45;&gt;6afd551a&#45;de72&#45;46a8&#45;a554&#45;0ad17760f79c -->
<g id="edge5" class="edge">
<title>4045c92d&#45;aad5&#45;4ef1&#45;9f71&#45;81f26dba6fa0&#45;&gt;6afd551a&#45;de72&#45;46a8&#45;a554&#45;0ad17760f79c</title>
<path fill="none" stroke="black" stroke-dasharray="5,2" d="M1108.5,-72.72C1108.5,-64.27 1108.5,-54.89 1108.5,-46.36"/>
<polygon fill="black" stroke="black" points="1112,-46.15 1108.5,-36.15 1105,-46.15 1112,-46.15"/>
</g>
<!-- 20d466f2&#45;5376&#45;4392&#45;9917&#45;ec1a45829678&#45;&gt;end -->
<g id="edge9" class="edge">
<title>20d466f2&#45;5376&#45;4392&#45;9917&#45;ec1a45829678&#45;&gt;end</title>
<path fill="none" stroke="black" d="M1766.92,-99.87C1786.83,-99.87 1803.42,-99.87 1813.6,-99.87"/>
<polygon fill="black" stroke="black" points="1813.88,-103.37 1823.88,-99.87 1813.88,-96.37 1813.88,-103.37"/>
<text text-anchor="middle" x="1795.31" y="-106.67" font-family="Helvetica,sans-Serif" font-size="14.00">Finish</text>
</g>
<!-- d439e3a8&#45;67bc&#45;4720&#45;8917&#45;038fd001f961 -->
<g id="node10" class="node">
<title>d439e3a8&#45;67bc&#45;4720&#45;8917&#45;038fd001f961</title>
<polygon fill="white" stroke="black" points="1832.5,-36 1358.5,-36 1358.5,0 1832.5,0 1832.5,-36"/>
<text text-anchor="middle" x="1595.5" y="-14.3" font-family="Helvetica,sans-Serif" font-size="14.00">▶ Run GitHub Actions for `whitepaper/blockchain_integration.md`</text>
</g>
<!-- 20d466f2&#45;5376&#45;4392&#45;9917&#45;ec1a45829678&#45;&gt;d439e3a8&#45;67bc&#45;4720&#45;8917&#45;038fd001f961 -->
<g id="edge7" class="edge">
<title>20d466f2&#45;5376&#45;4392&#45;9917&#45;ec1a45829678&#45;&gt;d439e3a8&#45;67bc&#45;4720&#45;8917&#45;038fd001f961</title>
<path fill="none" stroke="black" stroke-dasharray="5,2" d="M1576,-72.72C1579.13,-64.08 1582.62,-54.47 1585.77,-45.79"/>
<polygon fill="black" stroke="black" points="1589.15,-46.74 1589.27,-36.15 1582.57,-44.35 1589.15,-46.74"/>
</g>
</g>
</svg>
