<?xml version="1.0" encoding="UTF-8" standalone="no"?>
<!DOCTYPE svg PUBLIC "-//W3C//DTD SVG 1.1//EN"
 "http://www.w3.org/Graphics/SVG/1.1/DTD/svg11.dtd">
<!-- Generated by graphviz version 2.43.0 (0)
 -->
<!-- Title: %3 Pages: 1 -->
<svg width="1784pt" height="238pt"
 viewBox="0.00 0.00 1783.50 237.74" xmlns="http://www.w3.org/2000/svg" xmlns:xlink="http://www.w3.org/1999/xlink">
<g id="graph0" class="graph" transform="scale(1 1) rotate(0) translate(36 201.74)">
<title>%3</title>
<polygon fill="dimgray" stroke="transparent" points="-36,36 -36,-201.74 1747.5,-201.74 1747.5,36 -36,36"/>
<text text-anchor="middle" x="855.75" y="-150.54" font-family="Helvetica,sans-Serif" font-size="14.00">Sweep&#39;s Plan &amp; Progress</text>
<!-- start -->
<g id="node1" class="node">
<title>start</title>
</g>
<!-- 73118fb4&#45;2c4b&#45;415a&#45;a6de&#45;e2471d227bd4 -->
<g id="node3" class="node">
<title>73118fb4&#45;2c4b&#45;415a&#45;a6de&#45;e2471d227bd4</title>
<ellipse fill="#0ee832" stroke="black" cx="239" cy="-99.87" rx="145.83" ry="26.74"/>
<text text-anchor="middle" x="239" y="-103.67" font-family="Helvetica,sans-Serif" font-size="14.00">✓ Modify</text>
<text text-anchor="middle" x="239" y="-88.67" font-family="Helvetica,sans-Serif" font-size="14.00">whitepaper/cover_page.md</text>
</g>
<!-- start&#45;&gt;73118fb4&#45;2c4b&#45;415a&#45;a6de&#45;e2471d227bd4 -->
<g id="edge8" class="edge">
<title>start&#45;&gt;73118fb4&#45;2c4b&#45;415a&#45;a6de&#45;e2471d227bd4</title>
<path fill="none" stroke="black" d="M41.57,-99.87C44.76,-99.87 61.1,-99.87 83.13,-99.87"/>
<polygon fill="black" stroke="black" points="83.26,-103.37 93.26,-99.87 83.26,-96.37 83.26,-103.37"/>
<text text-anchor="middle" x="67.42" y="-106.67" font-family="Helvetica,sans-Serif" font-size="14.00">Start</text>
</g>
<!-- end -->
<g id="node2" class="node">
<title>end</title>
</g>
<!-- 3845f70a&#45;39a0&#45;4765&#45;9c23&#45;72186e3dddbd -->
<g id="node4" class="node">
<title>3845f70a&#45;39a0&#45;4765&#45;9c23&#45;72186e3dddbd</title>
<ellipse fill="white" stroke="black" cx="636" cy="-99.87" rx="175.23" ry="26.74"/>
<text text-anchor="middle" x="636" y="-103.67" font-family="Helvetica,sans-Serif" font-size="14.00">▶ Modify</text>
<text text-anchor="middle" x="636" y="-88.67" font-family="Helvetica,sans-Serif" font-size="14.00">whitepaper/product_overview.md</text>
</g>
<!-- 73118fb4&#45;2c4b&#45;415a&#45;a6de&#45;e2471d227bd4&#45;&gt;3845f70a&#45;39a0&#45;4765&#45;9c23&#45;72186e3dddbd -->
<g id="edge2" class="edge">
<title>73118fb4&#45;2c4b&#45;415a&#45;a6de&#45;e2471d227bd4&#45;&gt;3845f70a&#45;39a0&#45;4765&#45;9c23&#45;72186e3dddbd</title>
<path fill="none" stroke="black" d="M384.77,-99.87C406.62,-99.87 428.46,-99.87 450.3,-99.87"/>
<polygon fill="black" stroke="black" points="450.34,-103.37 460.34,-99.87 450.34,-96.37 450.34,-103.37"/>
</g>
<!-- e08ce826&#45;f3b4&#45;44c1&#45;9a60&#45;8cb01757bc25 -->
<g id="node7" class="node">
<title>e08ce826&#45;f3b4&#45;44c1&#45;9a60&#45;8cb01757bc25</title>
<polygon fill="#0ee832" stroke="black" points="398,-36 0,-36 0,0 398,0 398,-36"/>
<text text-anchor="middle" x="199" y="-14.3" font-family="Helvetica,sans-Serif" font-size="14.00">✓ Run GitHub Actions for `whitepaper/cover_page.md`</text>
</g>
<!-- 73118fb4&#45;2c4b&#45;415a&#45;a6de&#45;e2471d227bd4&#45;&gt;e08ce826&#45;f3b4&#45;44c1&#45;9a60&#45;8cb01757bc25 -->
<g id="edge1" class="edge">
<title>73118fb4&#45;2c4b&#45;415a&#45;a6de&#45;e2471d227bd4&#45;&gt;e08ce826&#45;f3b4&#45;44c1&#45;9a60&#45;8cb01757bc25</title>
<path fill="none" stroke="black" stroke-dasharray="5,2" d="M225.9,-72.72C221.49,-63.9 216.56,-54.05 212.14,-45.23"/>
<polygon fill="black" stroke="black" points="215.19,-43.52 207.59,-36.15 208.94,-46.66 215.19,-43.52"/>
</g>
<!-- a9809620&#45;bc67&#45;47c6&#45;bc52&#45;64414e521935 -->
<g id="node5" class="node">
<title>a9809620&#45;bc67&#45;47c6&#45;bc52&#45;64414e521935</title>
<ellipse fill="white" stroke="black" cx="1085" cy="-99.87" rx="164.1" ry="26.74"/>
<text text-anchor="middle" x="1085" y="-103.67" font-family="Helvetica,sans-Serif" font-size="14.00">▶ Modify</text>
<text text-anchor="middle" x="1085" y="-88.67" font-family="Helvetica,sans-Serif" font-size="14.00">whitepaper/advisory_board.md</text>
</g>
<!-- 3845f70a&#45;39a0&#45;4765&#45;9c23&#45;72186e3dddbd&#45;&gt;a9809620&#45;bc67&#45;47c6&#45;bc52&#45;64414e521935 -->
<g id="edge4" class="edge">
<title>3845f70a&#45;39a0&#45;4765&#45;9c23&#45;72186e3dddbd&#45;&gt;a9809620&#45;bc67&#45;47c6&#45;bc52&#45;64414e521935</title>
<path fill="none" stroke="black" d="M811.39,-99.87C844.48,-99.87 877.58,-99.87 910.67,-99.87"/>
<polygon fill="black" stroke="black" points="910.94,-103.37 920.94,-99.87 910.94,-96.37 910.94,-103.37"/>
</g>
<!-- 304895c2&#45;9ece&#45;4576&#45;b85f&#45;b1927218647a -->
<g id="node8" class="node">
<title>304895c2&#45;9ece&#45;4576&#45;b85f&#45;b1927218647a</title>
<polygon fill="white" stroke="black" points="855.5,-36 416.5,-36 416.5,0 855.5,0 855.5,-36"/>
<text text-anchor="middle" x="636" y="-14.3" font-family="Helvetica,sans-Serif" font-size="14.00">▶ Run GitHub Actions for `whitepaper/product_overview.md`</text>
</g>
<!-- 3845f70a&#45;39a0&#45;4765&#45;9c23&#45;72186e3dddbd&#45;&gt;304895c2&#45;9ece&#45;4576&#45;b85f&#45;b1927218647a -->
<g id="edge3" class="edge">
<title>3845f70a&#45;39a0&#45;4765&#45;9c23&#45;72186e3dddbd&#45;&gt;304895c2&#45;9ece&#45;4576&#45;b85f&#45;b1927218647a</title>
<path fill="none" stroke="black" stroke-dasharray="5,2" d="M636,-72.72C636,-64.27 636,-54.89 636,-46.36"/>
<polygon fill="black" stroke="black" points="639.5,-46.15 636,-36.15 632.5,-46.15 639.5,-46.15"/>
</g>
<!-- 25b9b189&#45;7571&#45;4181&#45;9e4a&#45;310080036bc0 -->
<g id="node6" class="node">
<title>25b9b189&#45;7571&#45;4181&#45;9e4a&#45;310080036bc0</title>
<ellipse fill="white" stroke="black" cx="1472" cy="-99.87" rx="145.83" ry="26.74"/>
<text text-anchor="middle" x="1472" y="-103.67" font-family="Helvetica,sans-Serif" font-size="14.00">▶ Modify</text>
<text text-anchor="middle" x="1472" y="-88.67" font-family="Helvetica,sans-Serif" font-size="14.00">whitepaper/appendices.md</text>
</g>
<!-- a9809620&#45;bc67&#45;47c6&#45;bc52&#45;64414e521935&#45;&gt;25b9b189&#45;7571&#45;4181&#45;9e4a&#45;310080036bc0 -->
<g id="edge6" class="edge">
<title>a9809620&#45;bc67&#45;47c6&#45;bc52&#45;64414e521935&#45;&gt;25b9b189&#45;7571&#45;4181&#45;9e4a&#45;310080036bc0</title>
<path fill="none" stroke="black" d="M1249.4,-99.87C1271.52,-99.87 1293.64,-99.87 1315.76,-99.87"/>
<polygon fill="black" stroke="black" points="1315.92,-103.37 1325.92,-99.87 1315.92,-96.37 1315.92,-103.37"/>
</g>
<!-- e5f0775d&#45;5c0f&#45;47d0&#45;9881&#45;a4224cac3aec -->
<g id="node9" class="node">
<title>e5f0775d&#45;5c0f&#45;47d0&#45;9881&#45;a4224cac3aec</title>
<polygon fill="white" stroke="black" points="1296.5,-36 873.5,-36 873.5,0 1296.5,0 1296.5,-36"/>
<text text-anchor="middle" x="1085" y="-14.3" font-family="Helvetica,sans-Serif" font-size="14.00">▶ Run GitHub Actions for `whitepaper/advisory_board.md`</text>
</g>
<!-- a9809620&#45;bc67&#45;47c6&#45;bc52&#45;64414e521935&#45;&gt;e5f0775d&#45;5c0f&#45;47d0&#45;9881&#45;a4224cac3aec -->
<g id="edge5" class="edge">
<title>a9809620&#45;bc67&#45;47c6&#45;bc52&#45;64414e521935&#45;&gt;e5f0775d&#45;5c0f&#45;47d0&#45;9881&#45;a4224cac3aec</title>
<path fill="none" stroke="black" stroke-dasharray="5,2" d="M1085,-72.72C1085,-64.27 1085,-54.89 1085,-46.36"/>
<polygon fill="black" stroke="black" points="1088.5,-46.15 1085,-36.15 1081.5,-46.15 1088.5,-46.15"/>
</g>
<!-- 25b9b189&#45;7571&#45;4181&#45;9e4a&#45;310080036bc0&#45;&gt;end -->
<g id="edge9" class="edge">
<title>25b9b189&#45;7571&#45;4181&#45;9e4a&#45;310080036bc0&#45;&gt;end</title>
<path fill="none" stroke="black" d="M1617.81,-99.87C1637.57,-99.87 1654.62,-99.87 1665.07,-99.87"/>
<polygon fill="black" stroke="black" points="1665.35,-103.37 1675.35,-99.87 1665.35,-96.37 1665.35,-103.37"/>
<text text-anchor="middle" x="1646.58" y="-106.67" font-family="Helvetica,sans-Serif" font-size="14.00">Finish</text>
</g>
<!-- 5e709417&#45;7acb&#45;4a99&#45;8e11&#45;8163c1d23636 -->
<g id="node10" class="node">
<title>5e709417&#45;7acb&#45;4a99&#45;8e11&#45;8163c1d23636</title>
<polygon fill="white" stroke="black" points="1711.5,-36 1314.5,-36 1314.5,0 1711.5,0 1711.5,-36"/>
<text text-anchor="middle" x="1513" y="-14.3" font-family="Helvetica,sans-Serif" font-size="14.00">▶ Run GitHub Actions for `whitepaper/appendices.md`</text>
</g>
<!-- 25b9b189&#45;7571&#45;4181&#45;9e4a&#45;310080036bc0&#45;&gt;5e709417&#45;7acb&#45;4a99&#45;8e11&#45;8163c1d23636 -->
<g id="edge7" class="edge">
<title>25b9b189&#45;7571&#45;4181&#45;9e4a&#45;310080036bc0&#45;&gt;5e709417&#45;7acb&#45;4a99&#45;8e11&#45;8163c1d23636</title>
<path fill="none" stroke="black" stroke-dasharray="5,2" d="M1485.42,-72.72C1489.95,-63.9 1495.01,-54.05 1499.54,-45.23"/>
<polygon fill="black" stroke="black" points="1502.75,-46.64 1504.2,-36.15 1496.52,-43.44 1502.75,-46.64"/>
</g>
</g>
</svg>
