<?xml version="1.0" encoding="UTF-8" standalone="no"?>
<!DOCTYPE svg PUBLIC "-//W3C//DTD SVG 1.1//EN"
 "http://www.w3.org/Graphics/SVG/1.1/DTD/svg11.dtd">
<!-- Generated by graphviz version 2.43.0 (0)
 -->
<!-- Title: %3 Pages: 1 -->
<svg width="1818pt" height="238pt"
 viewBox="0.00 0.00 1817.50 237.74" xmlns="http://www.w3.org/2000/svg" xmlns:xlink="http://www.w3.org/1999/xlink">
<g id="graph0" class="graph" transform="scale(1 1) rotate(0) translate(36 201.74)">
<title>%3</title>
<polygon fill="dimgray" stroke="transparent" points="-36,36 -36,-201.74 1781.5,-201.74 1781.5,36 -36,36"/>
<text text-anchor="middle" x="872.75" y="-150.54" font-family="Helvetica,sans-Serif" font-size="14.00">Sweep&#39;s Plan &amp; Progress</text>
<!-- start -->
<g id="node1" class="node">
<title>start</title>
</g>
<!-- 12646260&#45;84eb&#45;43ef&#45;974e&#45;3a3ca0d0c120 -->
<g id="node3" class="node">
<title>12646260&#45;84eb&#45;43ef&#45;974e&#45;3a3ca0d0c120</title>
<ellipse fill="yellow" stroke="black" cx="252" cy="-99.87" rx="170.33" ry="26.74"/>
<text text-anchor="middle" x="252" y="-103.67" font-family="Helvetica,sans-Serif" font-size="14.00">⋯ Create</text>
<text text-anchor="middle" x="252" y="-88.67" font-family="Helvetica,sans-Serif" font-size="14.00">whitepaper/technical_details.md</text>
</g>
<!-- start&#45;&gt;12646260&#45;84eb&#45;43ef&#45;974e&#45;3a3ca0d0c120 -->
<g id="edge8" class="edge">
<title>start&#45;&gt;12646260&#45;84eb&#45;43ef&#45;974e&#45;3a3ca0d0c120</title>
<path fill="none" stroke="black" d="M30.64,-99.87C33.93,-99.87 49.68,-99.87 71.4,-99.87"/>
<polygon fill="black" stroke="black" points="71.41,-103.37 81.41,-99.87 71.41,-96.37 71.41,-103.37"/>
<text text-anchor="middle" x="56.04" y="-106.67" font-family="Helvetica,sans-Serif" font-size="14.00">Start</text>
</g>
<!-- end -->
<g id="node2" class="node">
<title>end</title>
</g>
<!-- e1d03cd4&#45;d371&#45;49c2&#45;8fa8&#45;54deb441b09f -->
<g id="node4" class="node">
<title>e1d03cd4&#45;d371&#45;49c2&#45;8fa8&#45;54deb441b09f</title>
<ellipse fill="white" stroke="black" cx="670" cy="-99.87" rx="175.23" ry="26.74"/>
<text text-anchor="middle" x="670" y="-103.67" font-family="Helvetica,sans-Serif" font-size="14.00">▶ Modify</text>
<text text-anchor="middle" x="670" y="-88.67" font-family="Helvetica,sans-Serif" font-size="14.00">whitepaper/product_overview.md</text>
</g>
<!-- 12646260&#45;84eb&#45;43ef&#45;974e&#45;3a3ca0d0c120&#45;&gt;e1d03cd4&#45;d371&#45;49c2&#45;8fa8&#45;54deb441b09f -->
<g id="edge2" class="edge">
<title>12646260&#45;84eb&#45;43ef&#45;974e&#45;3a3ca0d0c120&#45;&gt;e1d03cd4&#45;d371&#45;49c2&#45;8fa8&#45;54deb441b09f</title>
<path fill="none" stroke="black" d="M422.63,-99.87C443.25,-99.87 463.87,-99.87 484.49,-99.87"/>
<polygon fill="black" stroke="black" points="484.62,-103.37 494.62,-99.87 484.62,-96.37 484.62,-103.37"/>
</g>
<!-- 5acc7e9d&#45;174e&#45;45e3&#45;b105&#45;50798463a791 -->
<g id="node7" class="node">
<title>5acc7e9d&#45;174e&#45;45e3&#45;b105&#45;50798463a791</title>
<polygon fill="white" stroke="black" points="432,-36 0,-36 0,0 432,0 432,-36"/>
<text text-anchor="middle" x="216" y="-14.3" font-family="Helvetica,sans-Serif" font-size="14.00">▶ Run GitHub Actions for `whitepaper/technical_details.md`</text>
</g>
<!-- 12646260&#45;84eb&#45;43ef&#45;974e&#45;3a3ca0d0c120&#45;&gt;5acc7e9d&#45;174e&#45;45e3&#45;b105&#45;50798463a791 -->
<g id="edge1" class="edge">
<title>12646260&#45;84eb&#45;43ef&#45;974e&#45;3a3ca0d0c120&#45;&gt;5acc7e9d&#45;174e&#45;45e3&#45;b105&#45;50798463a791</title>
<path fill="none" stroke="black" stroke-dasharray="5,2" d="M240.21,-72.72C236.28,-63.99 231.89,-54.26 227.95,-45.51"/>
<polygon fill="black" stroke="black" points="231.03,-43.82 223.73,-36.15 224.65,-46.7 231.03,-43.82"/>
</g>
<!-- abd1b6f8&#45;ac3f&#45;46da&#45;afed&#45;defb323e4e9e -->
<g id="node5" class="node">
<title>abd1b6f8&#45;ac3f&#45;46da&#45;afed&#45;defb323e4e9e</title>
<ellipse fill="white" stroke="black" cx="1119" cy="-99.87" rx="164.1" ry="26.74"/>
<text text-anchor="middle" x="1119" y="-103.67" font-family="Helvetica,sans-Serif" font-size="14.00">▶ Modify</text>
<text text-anchor="middle" x="1119" y="-88.67" font-family="Helvetica,sans-Serif" font-size="14.00">whitepaper/advisory_board.md</text>
</g>
<!-- e1d03cd4&#45;d371&#45;49c2&#45;8fa8&#45;54deb441b09f&#45;&gt;abd1b6f8&#45;ac3f&#45;46da&#45;afed&#45;defb323e4e9e -->
<g id="edge4" class="edge">
<title>e1d03cd4&#45;d371&#45;49c2&#45;8fa8&#45;54deb441b09f&#45;&gt;abd1b6f8&#45;ac3f&#45;46da&#45;afed&#45;defb323e4e9e</title>
<path fill="none" stroke="black" d="M845.39,-99.87C878.48,-99.87 911.58,-99.87 944.67,-99.87"/>
<polygon fill="black" stroke="black" points="944.94,-103.37 954.94,-99.87 944.94,-96.37 944.94,-103.37"/>
</g>
<!-- e5690e14&#45;ba3a&#45;42ab&#45;b1bd&#45;9191b87edd80 -->
<g id="node8" class="node">
<title>e5690e14&#45;ba3a&#45;42ab&#45;b1bd&#45;9191b87edd80</title>
<polygon fill="white" stroke="black" points="889.5,-36 450.5,-36 450.5,0 889.5,0 889.5,-36"/>
<text text-anchor="middle" x="670" y="-14.3" font-family="Helvetica,sans-Serif" font-size="14.00">▶ Run GitHub Actions for `whitepaper/product_overview.md`</text>
</g>
<!-- e1d03cd4&#45;d371&#45;49c2&#45;8fa8&#45;54deb441b09f&#45;&gt;e5690e14&#45;ba3a&#45;42ab&#45;b1bd&#45;9191b87edd80 -->
<g id="edge3" class="edge">
<title>e1d03cd4&#45;d371&#45;49c2&#45;8fa8&#45;54deb441b09f&#45;&gt;e5690e14&#45;ba3a&#45;42ab&#45;b1bd&#45;9191b87edd80</title>
<path fill="none" stroke="black" stroke-dasharray="5,2" d="M670,-72.72C670,-64.27 670,-54.89 670,-46.36"/>
<polygon fill="black" stroke="black" points="673.5,-46.15 670,-36.15 666.5,-46.15 673.5,-46.15"/>
</g>
<!-- fdb5543f&#45;9ab5&#45;4340&#45;afd6&#45;d2a2fae5a3b1 -->
<g id="node6" class="node">
<title>fdb5543f&#45;9ab5&#45;4340&#45;afd6&#45;d2a2fae5a3b1</title>
<ellipse fill="white" stroke="black" cx="1506" cy="-99.87" rx="145.83" ry="26.74"/>
<text text-anchor="middle" x="1506" y="-103.67" font-family="Helvetica,sans-Serif" font-size="14.00">▶ Modify</text>
<text text-anchor="middle" x="1506" y="-88.67" font-family="Helvetica,sans-Serif" font-size="14.00">whitepaper/cover_page.md</text>
</g>
<!-- abd1b6f8&#45;ac3f&#45;46da&#45;afed&#45;defb323e4e9e&#45;&gt;fdb5543f&#45;9ab5&#45;4340&#45;afd6&#45;d2a2fae5a3b1 -->
<g id="edge6" class="edge">
<title>abd1b6f8&#45;ac3f&#45;46da&#45;afed&#45;defb323e4e9e&#45;&gt;fdb5543f&#45;9ab5&#45;4340&#45;afd6&#45;d2a2fae5a3b1</title>
<path fill="none" stroke="black" d="M1283.4,-99.87C1305.52,-99.87 1327.64,-99.87 1349.76,-99.87"/>
<polygon fill="black" stroke="black" points="1349.92,-103.37 1359.92,-99.87 1349.92,-96.37 1349.92,-103.37"/>
</g>
<!-- aeddd993&#45;8c2a&#45;40ea&#45;bc98&#45;5a369ea7253a -->
<g id="node9" class="node">
<title>aeddd993&#45;8c2a&#45;40ea&#45;bc98&#45;5a369ea7253a</title>
<polygon fill="white" stroke="black" points="1330.5,-36 907.5,-36 907.5,0 1330.5,0 1330.5,-36"/>
<text text-anchor="middle" x="1119" y="-14.3" font-family="Helvetica,sans-Serif" font-size="14.00">▶ Run GitHub Actions for `whitepaper/advisory_board.md`</text>
</g>
<!-- abd1b6f8&#45;ac3f&#45;46da&#45;afed&#45;defb323e4e9e&#45;&gt;aeddd993&#45;8c2a&#45;40ea&#45;bc98&#45;5a369ea7253a -->
<g id="edge5" class="edge">
<title>abd1b6f8&#45;ac3f&#45;46da&#45;afed&#45;defb323e4e9e&#45;&gt;aeddd993&#45;8c2a&#45;40ea&#45;bc98&#45;5a369ea7253a</title>
<path fill="none" stroke="black" stroke-dasharray="5,2" d="M1119,-72.72C1119,-64.27 1119,-54.89 1119,-46.36"/>
<polygon fill="black" stroke="black" points="1122.5,-46.15 1119,-36.15 1115.5,-46.15 1122.5,-46.15"/>
</g>
<!-- fdb5543f&#45;9ab5&#45;4340&#45;afd6&#45;d2a2fae5a3b1&#45;&gt;end -->
<g id="edge9" class="edge">
<title>fdb5543f&#45;9ab5&#45;4340&#45;afd6&#45;d2a2fae5a3b1&#45;&gt;end</title>
<path fill="none" stroke="black" d="M1651.81,-99.87C1671.57,-99.87 1688.62,-99.87 1699.07,-99.87"/>
<polygon fill="black" stroke="black" points="1699.35,-103.37 1709.35,-99.87 1699.35,-96.37 1699.35,-103.37"/>
<text text-anchor="middle" x="1680.58" y="-106.67" font-family="Helvetica,sans-Serif" font-size="14.00">Finish</text>
</g>
<!-- 9989116e&#45;2d0a&#45;4750&#45;91ed&#45;e6325bc05466 -->
<g id="node10" class="node">
<title>9989116e&#45;2d0a&#45;4750&#45;91ed&#45;e6325bc05466</title>
<polygon fill="white" stroke="black" points="1745.5,-36 1348.5,-36 1348.5,0 1745.5,0 1745.5,-36"/>
<text text-anchor="middle" x="1547" y="-14.3" font-family="Helvetica,sans-Serif" font-size="14.00">▶ Run GitHub Actions for `whitepaper/cover_page.md`</text>
</g>
<!-- fdb5543f&#45;9ab5&#45;4340&#45;afd6&#45;d2a2fae5a3b1&#45;&gt;9989116e&#45;2d0a&#45;4750&#45;91ed&#45;e6325bc05466 -->
<g id="edge7" class="edge">
<title>fdb5543f&#45;9ab5&#45;4340&#45;afd6&#45;d2a2fae5a3b1&#45;&gt;9989116e&#45;2d0a&#45;4750&#45;91ed&#45;e6325bc05466</title>
<path fill="none" stroke="black" stroke-dasharray="5,2" d="M1519.42,-72.72C1523.95,-63.9 1529.01,-54.05 1533.54,-45.23"/>
<polygon fill="black" stroke="black" points="1536.75,-46.64 1538.2,-36.15 1530.52,-43.44 1536.75,-46.64"/>
</g>
</g>
</svg>
