<?xml version="1.0" encoding="UTF-8" standalone="no"?>
<!DOCTYPE svg PUBLIC "-//W3C//DTD SVG 1.1//EN"
 "http://www.w3.org/Graphics/SVG/1.1/DTD/svg11.dtd">
<!-- Generated by graphviz version 2.43.0 (0)
 -->
<!-- Title: %3 Pages: 1 -->
<svg width="1901pt" height="238pt"
 viewBox="0.00 0.00 1900.50 237.74" xmlns="http://www.w3.org/2000/svg" xmlns:xlink="http://www.w3.org/1999/xlink">
<g id="graph0" class="graph" transform="scale(1 1) rotate(0) translate(36 201.74)">
<title>%3</title>
<polygon fill="dimgray" stroke="transparent" points="-36,36 -36,-201.74 1864.5,-201.74 1864.5,36 -36,36"/>
<text text-anchor="middle" x="914.25" y="-150.54" font-family="Helvetica,sans-Serif" font-size="14.00">Sweep&#39;s Plan &amp; Progress</text>
<!-- start -->
<g id="node1" class="node">
<title>start</title>
</g>
<!-- 71360f70&#45;5e6f&#45;425a&#45;9c3c&#45;e4e4121e78b3 -->
<g id="node3" class="node">
<title>71360f70&#45;5e6f&#45;425a&#45;9c3c&#45;e4e4121e78b3</title>
<ellipse fill="yellow" stroke="black" cx="237.5" cy="-99.87" rx="145.83" ry="26.74"/>
<text text-anchor="middle" x="237.5" y="-103.67" font-family="Helvetica,sans-Serif" font-size="14.00">⋯ Modify</text>
<text text-anchor="middle" x="237.5" y="-88.67" font-family="Helvetica,sans-Serif" font-size="14.00">whitepaper/cover_page.md</text>
</g>
<!-- start&#45;&gt;71360f70&#45;5e6f&#45;425a&#45;9c3c&#45;e4e4121e78b3 -->
<g id="edge8" class="edge">
<title>start&#45;&gt;71360f70&#45;5e6f&#45;425a&#45;9c3c&#45;e4e4121e78b3</title>
<path fill="none" stroke="black" d="M40.07,-99.87C43.26,-99.87 59.6,-99.87 81.63,-99.87"/>
<polygon fill="black" stroke="black" points="81.76,-103.37 91.76,-99.87 81.76,-96.37 81.76,-103.37"/>
<text text-anchor="middle" x="65.92" y="-106.67" font-family="Helvetica,sans-Serif" font-size="14.00">Start</text>
</g>
<!-- end -->
<g id="node2" class="node">
<title>end</title>
</g>
<!-- 1830aa45&#45;4b74&#45;4843&#45;bb18&#45;4613147ab114 -->
<g id="node4" class="node">
<title>1830aa45&#45;4b74&#45;4843&#45;bb18&#45;4613147ab114</title>
<ellipse fill="white" stroke="black" cx="634.5" cy="-99.87" rx="175.23" ry="26.74"/>
<text text-anchor="middle" x="634.5" y="-103.67" font-family="Helvetica,sans-Serif" font-size="14.00">▶ Modify</text>
<text text-anchor="middle" x="634.5" y="-88.67" font-family="Helvetica,sans-Serif" font-size="14.00">whitepaper/product_overview.md</text>
</g>
<!-- 71360f70&#45;5e6f&#45;425a&#45;9c3c&#45;e4e4121e78b3&#45;&gt;1830aa45&#45;4b74&#45;4843&#45;bb18&#45;4613147ab114 -->
<g id="edge2" class="edge">
<title>71360f70&#45;5e6f&#45;425a&#45;9c3c&#45;e4e4121e78b3&#45;&gt;1830aa45&#45;4b74&#45;4843&#45;bb18&#45;4613147ab114</title>
<path fill="none" stroke="black" d="M383.27,-99.87C405.12,-99.87 426.96,-99.87 448.8,-99.87"/>
<polygon fill="black" stroke="black" points="448.84,-103.37 458.84,-99.87 448.84,-96.37 448.84,-103.37"/>
</g>
<!-- d14c2c20&#45;9fa6&#45;4824&#45;951e&#45;5d2a5d18c42d -->
<g id="node7" class="node">
<title>d14c2c20&#45;9fa6&#45;4824&#45;951e&#45;5d2a5d18c42d</title>
<polygon fill="white" stroke="black" points="397,-36 0,-36 0,0 397,0 397,-36"/>
<text text-anchor="middle" x="198.5" y="-14.3" font-family="Helvetica,sans-Serif" font-size="14.00">▶ Run GitHub Actions for `whitepaper/cover_page.md`</text>
</g>
<!-- 71360f70&#45;5e6f&#45;425a&#45;9c3c&#45;e4e4121e78b3&#45;&gt;d14c2c20&#45;9fa6&#45;4824&#45;951e&#45;5d2a5d18c42d -->
<g id="edge1" class="edge">
<title>71360f70&#45;5e6f&#45;425a&#45;9c3c&#45;e4e4121e78b3&#45;&gt;d14c2c20&#45;9fa6&#45;4824&#45;951e&#45;5d2a5d18c42d</title>
<path fill="none" stroke="black" stroke-dasharray="5,2" d="M224.73,-72.72C220.42,-63.9 215.62,-54.05 211.31,-45.23"/>
<polygon fill="black" stroke="black" points="214.41,-43.6 206.87,-36.15 208.12,-46.67 214.41,-43.6"/>
</g>
<!-- 4045c92d&#45;aad5&#45;4ef1&#45;9f71&#45;81f26dba6fa0 -->
<g id="node5" class="node">
<title>4045c92d&#45;aad5&#45;4ef1&#45;9f71&#45;81f26dba6fa0</title>
<ellipse fill="white" stroke="black" cx="1104.5" cy="-99.87" rx="192.17" ry="26.74"/>
<text text-anchor="middle" x="1104.5" y="-103.67" font-family="Helvetica,sans-Serif" font-size="14.00">▶ Modify</text>
<text text-anchor="middle" x="1104.5" y="-88.67" font-family="Helvetica,sans-Serif" font-size="14.00">whitepaper/ai_personas_features.md</text>
</g>
<!-- 1830aa45&#45;4b74&#45;4843&#45;bb18&#45;4613147ab114&#45;&gt;4045c92d&#45;aad5&#45;4ef1&#45;9f71&#45;81f26dba6fa0 -->
<g id="edge4" class="edge">
<title>1830aa45&#45;4b74&#45;4843&#45;bb18&#45;4613147ab114&#45;&gt;4045c92d&#45;aad5&#45;4ef1&#45;9f71&#45;81f26dba6fa0</title>
<path fill="none" stroke="black" d="M810.29,-99.87C840.75,-99.87 871.21,-99.87 901.67,-99.87"/>
<polygon fill="black" stroke="black" points="902,-103.37 912,-99.87 902,-96.37 902,-103.37"/>
</g>
<!-- 68ad45e3&#45;1b12&#45;4093&#45;acfd&#45;f255b5d860e7 -->
<g id="node8" class="node">
<title>68ad45e3&#45;1b12&#45;4093&#45;acfd&#45;f255b5d860e7</title>
<polygon fill="white" stroke="black" points="854,-36 415,-36 415,0 854,0 854,-36"/>
<text text-anchor="middle" x="634.5" y="-14.3" font-family="Helvetica,sans-Serif" font-size="14.00">▶ Run GitHub Actions for `whitepaper/product_overview.md`</text>
</g>
<!-- 1830aa45&#45;4b74&#45;4843&#45;bb18&#45;4613147ab114&#45;&gt;68ad45e3&#45;1b12&#45;4093&#45;acfd&#45;f255b5d860e7 -->
<g id="edge3" class="edge">
<title>1830aa45&#45;4b74&#45;4843&#45;bb18&#45;4613147ab114&#45;&gt;68ad45e3&#45;1b12&#45;4093&#45;acfd&#45;f255b5d860e7</title>
<path fill="none" stroke="black" stroke-dasharray="5,2" d="M634.5,-72.72C634.5,-64.27 634.5,-54.89 634.5,-46.36"/>
<polygon fill="black" stroke="black" points="638,-46.15 634.5,-36.15 631,-46.15 638,-46.15"/>
</g>
<!-- 20d466f2&#45;5376&#45;4392&#45;9917&#45;ec1a45829678 -->
<g id="node6" class="node">
<title>20d466f2&#45;5376&#45;4392&#45;9917&#45;ec1a45829678</title>
<ellipse fill="white" stroke="black" cx="1562.5" cy="-99.87" rx="200.22" ry="26.74"/>
<text text-anchor="middle" x="1562.5" y="-103.67" font-family="Helvetica,sans-Serif" font-size="14.00">▶ Modify</text>
<text text-anchor="middle" x="1562.5" y="-88.67" font-family="Helvetica,sans-Serif" font-size="14.00">whitepaper/blockchain_integration.md</text>
</g>
<!-- 4045c92d&#45;aad5&#45;4ef1&#45;9f71&#45;81f26dba6fa0&#45;&gt;20d466f2&#45;5376&#45;4392&#45;9917&#45;ec1a45829678 -->
<g id="edge6" class="edge">
<title>4045c92d&#45;aad5&#45;4ef1&#45;9f71&#45;81f26dba6fa0&#45;&gt;20d466f2&#45;5376&#45;4392&#45;9917&#45;ec1a45829678</title>
<path fill="none" stroke="black" d="M1297.27,-99.87C1315.56,-99.87 1333.84,-99.87 1352.13,-99.87"/>
<polygon fill="black" stroke="black" points="1352.28,-103.37 1362.28,-99.87 1352.28,-96.37 1352.28,-103.37"/>
</g>
<!-- 6afd551a&#45;de72&#45;46a8&#45;a554&#45;0ad17760f79c -->
<g id="node9" class="node">
<title>6afd551a&#45;de72&#45;46a8&#45;a554&#45;0ad17760f79c</title>
<polygon fill="white" stroke="black" points="1336.5,-36 872.5,-36 872.5,0 1336.5,0 1336.5,-36"/>
<text text-anchor="middle" x="1104.5" y="-14.3" font-family="Helvetica,sans-Serif" font-size="14.00">▶ Run GitHub Actions for `whitepaper/ai_personas_features.md`</text>
</g>
<!-- 4045c92d&#45;aad5&#45;4ef1&#45;9f71&#45;81f26dba6fa0&#45;&gt;6afd551a&#45;de72&#45;46a8&#45;a554&#45;0ad17760f79c -->
<g id="edge5" class="edge">
<title>4045c92d&#45;aad5&#45;4ef1&#45;9f71&#45;81f26dba6fa0&#45;&gt;6afd551a&#45;de72&#45;46a8&#45;a554&#45;0ad17760f79c</title>
<path fill="none" stroke="black" stroke-dasharray="5,2" d="M1104.5,-72.72C1104.5,-64.27 1104.5,-54.89 1104.5,-46.36"/>
<polygon fill="black" stroke="black" points="1108,-46.15 1104.5,-36.15 1101,-46.15 1108,-46.15"/>
</g>
<!-- 20d466f2&#45;5376&#45;4392&#45;9917&#45;ec1a45829678&#45;&gt;end -->
<g id="edge9" class="edge">
<title>20d466f2&#45;5376&#45;4392&#45;9917&#45;ec1a45829678&#45;&gt;end</title>
<path fill="none" stroke="black" d="M1762.92,-99.87C1782.83,-99.87 1799.42,-99.87 1809.6,-99.87"/>
<polygon fill="black" stroke="black" points="1809.88,-103.37 1819.88,-99.87 1809.88,-96.37 1809.88,-103.37"/>
<text text-anchor="middle" x="1791.31" y="-106.67" font-family="Helvetica,sans-Serif" font-size="14.00">Finish</text>
</g>
<!-- d439e3a8&#45;67bc&#45;4720&#45;8917&#45;038fd001f961 -->
<g id="node10" class="node">
<title>d439e3a8&#45;67bc&#45;4720&#45;8917&#45;038fd001f961</title>
<polygon fill="white" stroke="black" points="1828.5,-36 1354.5,-36 1354.5,0 1828.5,0 1828.5,-36"/>
<text text-anchor="middle" x="1591.5" y="-14.3" font-family="Helvetica,sans-Serif" font-size="14.00">▶ Run GitHub Actions for `whitepaper/blockchain_integration.md`</text>
</g>
<!-- 20d466f2&#45;5376&#45;4392&#45;9917&#45;ec1a45829678&#45;&gt;d439e3a8&#45;67bc&#45;4720&#45;8917&#45;038fd001f961 -->
<g id="edge7" class="edge">
<title>20d466f2&#45;5376&#45;4392&#45;9917&#45;ec1a45829678&#45;&gt;d439e3a8&#45;67bc&#45;4720&#45;8917&#45;038fd001f961</title>
<path fill="none" stroke="black" stroke-dasharray="5,2" d="M1572,-72.72C1575.13,-64.08 1578.62,-54.47 1581.77,-45.79"/>
<polygon fill="black" stroke="black" points="1585.15,-46.74 1585.27,-36.15 1578.57,-44.35 1585.15,-46.74"/>
</g>
</g>
</svg>
