<?xml version="1.0" encoding="UTF-8" standalone="no"?>
<!DOCTYPE svg PUBLIC "-//W3C//DTD SVG 1.1//EN"
 "http://www.w3.org/Graphics/SVG/1.1/DTD/svg11.dtd">
<!-- Generated by graphviz version 2.43.0 (0)
 -->
<!-- Title: %3 Pages: 1 -->
<svg width="1782pt" height="238pt"
 viewBox="0.00 0.00 1782.00 237.74" xmlns="http://www.w3.org/2000/svg" xmlns:xlink="http://www.w3.org/1999/xlink">
<g id="graph0" class="graph" transform="scale(1 1) rotate(0) translate(36 201.74)">
<title>%3</title>
<polygon fill="dimgray" stroke="transparent" points="-36,36 -36,-201.74 1746,-201.74 1746,36 -36,36"/>
<text text-anchor="middle" x="855" y="-150.54" font-family="Helvetica,sans-Serif" font-size="14.00">Sweep&#39;s Plan &amp; Progress</text>
<!-- start -->
<g id="node1" class="node">
<title>start</title>
</g>
<!-- 73118fb4&#45;2c4b&#45;415a&#45;a6de&#45;e2471d227bd4 -->
<g id="node3" class="node">
<title>73118fb4&#45;2c4b&#45;415a&#45;a6de&#45;e2471d227bd4</title>
<ellipse fill="yellow" stroke="black" cx="237.5" cy="-99.87" rx="145.83" ry="26.74"/>
<text text-anchor="middle" x="237.5" y="-103.67" font-family="Helvetica,sans-Serif" font-size="14.00">⋯ Modify</text>
<text text-anchor="middle" x="237.5" y="-88.67" font-family="Helvetica,sans-Serif" font-size="14.00">whitepaper/cover_page.md</text>
</g>
<!-- start&#45;&gt;73118fb4&#45;2c4b&#45;415a&#45;a6de&#45;e2471d227bd4 -->
<g id="edge8" class="edge">
<title>start&#45;&gt;73118fb4&#45;2c4b&#45;415a&#45;a6de&#45;e2471d227bd4</title>
<path fill="none" stroke="black" d="M40.07,-99.87C43.26,-99.87 59.6,-99.87 81.63,-99.87"/>
<polygon fill="black" stroke="black" points="81.76,-103.37 91.76,-99.87 81.76,-96.37 81.76,-103.37"/>
<text text-anchor="middle" x="65.92" y="-106.67" font-family="Helvetica,sans-Serif" font-size="14.00">Start</text>
</g>
<!-- end -->
<g id="node2" class="node">
<title>end</title>
</g>
<!-- 3845f70a&#45;39a0&#45;4765&#45;9c23&#45;72186e3dddbd -->
<g id="node4" class="node">
<title>3845f70a&#45;39a0&#45;4765&#45;9c23&#45;72186e3dddbd</title>
<ellipse fill="white" stroke="black" cx="634.5" cy="-99.87" rx="175.23" ry="26.74"/>
<text text-anchor="middle" x="634.5" y="-103.67" font-family="Helvetica,sans-Serif" font-size="14.00">▶ Modify</text>
<text text-anchor="middle" x="634.5" y="-88.67" font-family="Helvetica,sans-Serif" font-size="14.00">whitepaper/product_overview.md</text>
</g>
<!-- 73118fb4&#45;2c4b&#45;415a&#45;a6de&#45;e2471d227bd4&#45;&gt;3845f70a&#45;39a0&#45;4765&#45;9c23&#45;72186e3dddbd -->
<g id="edge2" class="edge">
<title>73118fb4&#45;2c4b&#45;415a&#45;a6de&#45;e2471d227bd4&#45;&gt;3845f70a&#45;39a0&#45;4765&#45;9c23&#45;72186e3dddbd</title>
<path fill="none" stroke="black" d="M383.27,-99.87C405.12,-99.87 426.96,-99.87 448.8,-99.87"/>
<polygon fill="black" stroke="black" points="448.84,-103.37 458.84,-99.87 448.84,-96.37 448.84,-103.37"/>
</g>
<!-- e08ce826&#45;f3b4&#45;44c1&#45;9a60&#45;8cb01757bc25 -->
<g id="node7" class="node">
<title>e08ce826&#45;f3b4&#45;44c1&#45;9a60&#45;8cb01757bc25</title>
<polygon fill="white" stroke="black" points="397,-36 0,-36 0,0 397,0 397,-36"/>
<text text-anchor="middle" x="198.5" y="-14.3" font-family="Helvetica,sans-Serif" font-size="14.00">▶ Run GitHub Actions for `whitepaper/cover_page.md`</text>
</g>
<!-- 73118fb4&#45;2c4b&#45;415a&#45;a6de&#45;e2471d227bd4&#45;&gt;e08ce826&#45;f3b4&#45;44c1&#45;9a60&#45;8cb01757bc25 -->
<g id="edge1" class="edge">
<title>73118fb4&#45;2c4b&#45;415a&#45;a6de&#45;e2471d227bd4&#45;&gt;e08ce826&#45;f3b4&#45;44c1&#45;9a60&#45;8cb01757bc25</title>
<path fill="none" stroke="black" stroke-dasharray="5,2" d="M224.73,-72.72C220.42,-63.9 215.62,-54.05 211.31,-45.23"/>
<polygon fill="black" stroke="black" points="214.41,-43.6 206.87,-36.15 208.12,-46.67 214.41,-43.6"/>
</g>
<!-- a9809620&#45;bc67&#45;47c6&#45;bc52&#45;64414e521935 -->
<g id="node5" class="node">
<title>a9809620&#45;bc67&#45;47c6&#45;bc52&#45;64414e521935</title>
<ellipse fill="white" stroke="black" cx="1083.5" cy="-99.87" rx="164.1" ry="26.74"/>
<text text-anchor="middle" x="1083.5" y="-103.67" font-family="Helvetica,sans-Serif" font-size="14.00">▶ Modify</text>
<text text-anchor="middle" x="1083.5" y="-88.67" font-family="Helvetica,sans-Serif" font-size="14.00">whitepaper/advisory_board.md</text>
</g>
<!-- 3845f70a&#45;39a0&#45;4765&#45;9c23&#45;72186e3dddbd&#45;&gt;a9809620&#45;bc67&#45;47c6&#45;bc52&#45;64414e521935 -->
<g id="edge4" class="edge">
<title>3845f70a&#45;39a0&#45;4765&#45;9c23&#45;72186e3dddbd&#45;&gt;a9809620&#45;bc67&#45;47c6&#45;bc52&#45;64414e521935</title>
<path fill="none" stroke="black" d="M809.89,-99.87C842.98,-99.87 876.08,-99.87 909.17,-99.87"/>
<polygon fill="black" stroke="black" points="909.44,-103.37 919.44,-99.87 909.44,-96.37 909.44,-103.37"/>
</g>
<!-- 304895c2&#45;9ece&#45;4576&#45;b85f&#45;b1927218647a -->
<g id="node8" class="node">
<title>304895c2&#45;9ece&#45;4576&#45;b85f&#45;b1927218647a</title>
<polygon fill="white" stroke="black" points="854,-36 415,-36 415,0 854,0 854,-36"/>
<text text-anchor="middle" x="634.5" y="-14.3" font-family="Helvetica,sans-Serif" font-size="14.00">▶ Run GitHub Actions for `whitepaper/product_overview.md`</text>
</g>
<!-- 3845f70a&#45;39a0&#45;4765&#45;9c23&#45;72186e3dddbd&#45;&gt;304895c2&#45;9ece&#45;4576&#45;b85f&#45;b1927218647a -->
<g id="edge3" class="edge">
<title>3845f70a&#45;39a0&#45;4765&#45;9c23&#45;72186e3dddbd&#45;&gt;304895c2&#45;9ece&#45;4576&#45;b85f&#45;b1927218647a</title>
<path fill="none" stroke="black" stroke-dasharray="5,2" d="M634.5,-72.72C634.5,-64.27 634.5,-54.89 634.5,-46.36"/>
<polygon fill="black" stroke="black" points="638,-46.15 634.5,-36.15 631,-46.15 638,-46.15"/>
</g>
<!-- 25b9b189&#45;7571&#45;4181&#45;9e4a&#45;310080036bc0 -->
<g id="node6" class="node">
<title>25b9b189&#45;7571&#45;4181&#45;9e4a&#45;310080036bc0</title>
<ellipse fill="white" stroke="black" cx="1470.5" cy="-99.87" rx="145.83" ry="26.74"/>
<text text-anchor="middle" x="1470.5" y="-103.67" font-family="Helvetica,sans-Serif" font-size="14.00">▶ Modify</text>
<text text-anchor="middle" x="1470.5" y="-88.67" font-family="Helvetica,sans-Serif" font-size="14.00">whitepaper/appendices.md</text>
</g>
<!-- a9809620&#45;bc67&#45;47c6&#45;bc52&#45;64414e521935&#45;&gt;25b9b189&#45;7571&#45;4181&#45;9e4a&#45;310080036bc0 -->
<g id="edge6" class="edge">
<title>a9809620&#45;bc67&#45;47c6&#45;bc52&#45;64414e521935&#45;&gt;25b9b189&#45;7571&#45;4181&#45;9e4a&#45;310080036bc0</title>
<path fill="none" stroke="black" d="M1247.9,-99.87C1270.02,-99.87 1292.14,-99.87 1314.26,-99.87"/>
<polygon fill="black" stroke="black" points="1314.42,-103.37 1324.42,-99.87 1314.42,-96.37 1314.42,-103.37"/>
</g>
<!-- e5f0775d&#45;5c0f&#45;47d0&#45;9881&#45;a4224cac3aec -->
<g id="node9" class="node">
<title>e5f0775d&#45;5c0f&#45;47d0&#45;9881&#45;a4224cac3aec</title>
<polygon fill="white" stroke="black" points="1295,-36 872,-36 872,0 1295,0 1295,-36"/>
<text text-anchor="middle" x="1083.5" y="-14.3" font-family="Helvetica,sans-Serif" font-size="14.00">▶ Run GitHub Actions for `whitepaper/advisory_board.md`</text>
</g>
<!-- a9809620&#45;bc67&#45;47c6&#45;bc52&#45;64414e521935&#45;&gt;e5f0775d&#45;5c0f&#45;47d0&#45;9881&#45;a4224cac3aec -->
<g id="edge5" class="edge">
<title>a9809620&#45;bc67&#45;47c6&#45;bc52&#45;64414e521935&#45;&gt;e5f0775d&#45;5c0f&#45;47d0&#45;9881&#45;a4224cac3aec</title>
<path fill="none" stroke="black" stroke-dasharray="5,2" d="M1083.5,-72.72C1083.5,-64.27 1083.5,-54.89 1083.5,-46.36"/>
<polygon fill="black" stroke="black" points="1087,-46.15 1083.5,-36.15 1080,-46.15 1087,-46.15"/>
</g>
<!-- 25b9b189&#45;7571&#45;4181&#45;9e4a&#45;310080036bc0&#45;&gt;end -->
<g id="edge9" class="edge">
<title>25b9b189&#45;7571&#45;4181&#45;9e4a&#45;310080036bc0&#45;&gt;end</title>
<path fill="none" stroke="black" d="M1616.31,-99.87C1636.07,-99.87 1653.12,-99.87 1663.57,-99.87"/>
<polygon fill="black" stroke="black" points="1663.85,-103.37 1673.85,-99.87 1663.85,-96.37 1663.85,-103.37"/>
<text text-anchor="middle" x="1645.08" y="-106.67" font-family="Helvetica,sans-Serif" font-size="14.00">Finish</text>
</g>
<!-- 5e709417&#45;7acb&#45;4a99&#45;8e11&#45;8163c1d23636 -->
<g id="node10" class="node">
<title>5e709417&#45;7acb&#45;4a99&#45;8e11&#45;8163c1d23636</title>
<polygon fill="white" stroke="black" points="1710,-36 1313,-36 1313,0 1710,0 1710,-36"/>
<text text-anchor="middle" x="1511.5" y="-14.3" font-family="Helvetica,sans-Serif" font-size="14.00">▶ Run GitHub Actions for `whitepaper/appendices.md`</text>
</g>
<!-- 25b9b189&#45;7571&#45;4181&#45;9e4a&#45;310080036bc0&#45;&gt;5e709417&#45;7acb&#45;4a99&#45;8e11&#45;8163c1d23636 -->
<g id="edge7" class="edge">
<title>25b9b189&#45;7571&#45;4181&#45;9e4a&#45;310080036bc0&#45;&gt;5e709417&#45;7acb&#45;4a99&#45;8e11&#45;8163c1d23636</title>
<path fill="none" stroke="black" stroke-dasharray="5,2" d="M1483.92,-72.72C1488.45,-63.9 1493.51,-54.05 1498.04,-45.23"/>
<polygon fill="black" stroke="black" points="1501.25,-46.64 1502.7,-36.15 1495.02,-43.44 1501.25,-46.64"/>
</g>
</g>
</svg>
