<?xml version="1.0" encoding="UTF-8" standalone="no"?>
<!DOCTYPE svg PUBLIC "-//W3C//DTD SVG 1.1//EN"
 "http://www.w3.org/Graphics/SVG/1.1/DTD/svg11.dtd">
<!-- Generated by graphviz version 2.43.0 (0)
 -->
<!-- Title: %3 Pages: 1 -->
<svg width="1786pt" height="238pt"
 viewBox="0.00 0.00 1786.00 237.74" xmlns="http://www.w3.org/2000/svg" xmlns:xlink="http://www.w3.org/1999/xlink">
<g id="graph0" class="graph" transform="scale(1 1) rotate(0) translate(36 201.74)">
<title>%3</title>
<polygon fill="dimgray" stroke="transparent" points="-36,36 -36,-201.74 1750,-201.74 1750,36 -36,36"/>
<text text-anchor="middle" x="857" y="-150.54" font-family="Helvetica,sans-Serif" font-size="14.00">Sweep&#39;s Plan &amp; Progress</text>
<!-- start -->
<g id="node1" class="node">
<title>start</title>
</g>
<!-- 6d347dbf&#45;f2b2&#45;4abc&#45;9b2f&#45;f1522ecbdc43 -->
<g id="node3" class="node">
<title>6d347dbf&#45;f2b2&#45;4abc&#45;9b2f&#45;f1522ecbdc43</title>
<ellipse fill="#0ee832" stroke="black" cx="242.5" cy="-99.87" rx="145.83" ry="26.74"/>
<text text-anchor="middle" x="242.5" y="-103.67" font-family="Helvetica,sans-Serif" font-size="14.00">✓ Modify</text>
<text text-anchor="middle" x="242.5" y="-88.67" font-family="Helvetica,sans-Serif" font-size="14.00">whitepaper/cover_page.md</text>
</g>
<!-- start&#45;&gt;6d347dbf&#45;f2b2&#45;4abc&#45;9b2f&#45;f1522ecbdc43 -->
<g id="edge8" class="edge">
<title>start&#45;&gt;6d347dbf&#45;f2b2&#45;4abc&#45;9b2f&#45;f1522ecbdc43</title>
<path fill="none" stroke="black" d="M45.07,-99.87C48.26,-99.87 64.6,-99.87 86.63,-99.87"/>
<polygon fill="black" stroke="black" points="86.76,-103.37 96.76,-99.87 86.76,-96.37 86.76,-103.37"/>
<text text-anchor="middle" x="70.92" y="-106.67" font-family="Helvetica,sans-Serif" font-size="14.00">Start</text>
</g>
<!-- end -->
<g id="node2" class="node">
<title>end</title>
</g>
<!-- 1ad1b8ef&#45;b41d&#45;4802&#45;a41c&#45;70209d545b76 -->
<g id="node4" class="node">
<title>1ad1b8ef&#45;b41d&#45;4802&#45;a41c&#45;70209d545b76</title>
<ellipse fill="white" stroke="black" cx="630.5" cy="-99.87" rx="164.1" ry="26.74"/>
<text text-anchor="middle" x="630.5" y="-103.67" font-family="Helvetica,sans-Serif" font-size="14.00">▶ Modify</text>
<text text-anchor="middle" x="630.5" y="-88.67" font-family="Helvetica,sans-Serif" font-size="14.00">whitepaper/advisory_board.md</text>
</g>
<!-- 6d347dbf&#45;f2b2&#45;4abc&#45;9b2f&#45;f1522ecbdc43&#45;&gt;1ad1b8ef&#45;b41d&#45;4802&#45;a41c&#45;70209d545b76 -->
<g id="edge2" class="edge">
<title>6d347dbf&#45;f2b2&#45;4abc&#45;9b2f&#45;f1522ecbdc43&#45;&gt;1ad1b8ef&#45;b41d&#45;4802&#45;a41c&#45;70209d545b76</title>
<path fill="none" stroke="black" d="M388.38,-99.87C411.04,-99.87 433.69,-99.87 456.35,-99.87"/>
<polygon fill="black" stroke="black" points="456.41,-103.37 466.41,-99.87 456.41,-96.37 456.41,-103.37"/>
</g>
<!-- 8c2164af&#45;eecf&#45;404f&#45;ad95&#45;e07f45a3e6e8 -->
<g id="node7" class="node">
<title>8c2164af&#45;eecf&#45;404f&#45;ad95&#45;e07f45a3e6e8</title>
<polygon fill="yellow" stroke="black" points="401,-36 0,-36 0,0 401,0 401,-36"/>
<text text-anchor="middle" x="200.5" y="-14.3" font-family="Helvetica,sans-Serif" font-size="14.00">⋯ Run GitHub Actions for `whitepaper/cover_page.md`</text>
</g>
<!-- 6d347dbf&#45;f2b2&#45;4abc&#45;9b2f&#45;f1522ecbdc43&#45;&gt;8c2164af&#45;eecf&#45;404f&#45;ad95&#45;e07f45a3e6e8 -->
<g id="edge1" class="edge">
<title>6d347dbf&#45;f2b2&#45;4abc&#45;9b2f&#45;f1522ecbdc43&#45;&gt;8c2164af&#45;eecf&#45;404f&#45;ad95&#45;e07f45a3e6e8</title>
<path fill="none" stroke="black" stroke-dasharray="5,2" d="M228.75,-72.72C224.11,-63.9 218.93,-54.05 214.29,-45.23"/>
<polygon fill="black" stroke="black" points="217.27,-43.37 209.52,-36.15 211.07,-46.63 217.27,-43.37"/>
</g>
<!-- 7c7c38d4&#45;d69d&#45;45c6&#45;ba11&#45;ba9151c40e3e -->
<g id="node5" class="node">
<title>7c7c38d4&#45;d69d&#45;45c6&#45;ba11&#45;ba9151c40e3e</title>
<ellipse fill="white" stroke="black" cx="1058.5" cy="-99.87" rx="145.83" ry="26.74"/>
<text text-anchor="middle" x="1058.5" y="-103.67" font-family="Helvetica,sans-Serif" font-size="14.00">▶ Modify</text>
<text text-anchor="middle" x="1058.5" y="-88.67" font-family="Helvetica,sans-Serif" font-size="14.00">whitepaper/appendices.md</text>
</g>
<!-- 1ad1b8ef&#45;b41d&#45;4802&#45;a41c&#45;70209d545b76&#45;&gt;7c7c38d4&#45;d69d&#45;45c6&#45;ba11&#45;ba9151c40e3e -->
<g id="edge4" class="edge">
<title>1ad1b8ef&#45;b41d&#45;4802&#45;a41c&#45;70209d545b76&#45;&gt;7c7c38d4&#45;d69d&#45;45c6&#45;ba11&#45;ba9151c40e3e</title>
<path fill="none" stroke="black" d="M794.76,-99.87C830.7,-99.87 866.64,-99.87 902.59,-99.87"/>
<polygon fill="black" stroke="black" points="902.72,-103.37 912.72,-99.87 902.72,-96.37 902.72,-103.37"/>
</g>
<!-- 2434a458&#45;6b8d&#45;40a6&#45;887b&#45;147267b9ed3a -->
<g id="node8" class="node">
<title>2434a458&#45;6b8d&#45;40a6&#45;887b&#45;147267b9ed3a</title>
<polygon fill="white" stroke="black" points="842,-36 419,-36 419,0 842,0 842,-36"/>
<text text-anchor="middle" x="630.5" y="-14.3" font-family="Helvetica,sans-Serif" font-size="14.00">▶ Run GitHub Actions for `whitepaper/advisory_board.md`</text>
</g>
<!-- 1ad1b8ef&#45;b41d&#45;4802&#45;a41c&#45;70209d545b76&#45;&gt;2434a458&#45;6b8d&#45;40a6&#45;887b&#45;147267b9ed3a -->
<g id="edge3" class="edge">
<title>1ad1b8ef&#45;b41d&#45;4802&#45;a41c&#45;70209d545b76&#45;&gt;2434a458&#45;6b8d&#45;40a6&#45;887b&#45;147267b9ed3a</title>
<path fill="none" stroke="black" stroke-dasharray="5,2" d="M630.5,-72.72C630.5,-64.27 630.5,-54.89 630.5,-46.36"/>
<polygon fill="black" stroke="black" points="634,-46.15 630.5,-36.15 627,-46.15 634,-46.15"/>
</g>
<!-- 4076fa9c&#45;059a&#45;4913&#45;bf69&#45;b17152df5114 -->
<g id="node6" class="node">
<title>4076fa9c&#45;059a&#45;4913&#45;bf69&#45;b17152df5114</title>
<ellipse fill="white" stroke="black" cx="1455.5" cy="-99.87" rx="175.23" ry="26.74"/>
<text text-anchor="middle" x="1455.5" y="-103.67" font-family="Helvetica,sans-Serif" font-size="14.00">▶ Modify</text>
<text text-anchor="middle" x="1455.5" y="-88.67" font-family="Helvetica,sans-Serif" font-size="14.00">whitepaper/product_overview.md</text>
</g>
<!-- 7c7c38d4&#45;d69d&#45;45c6&#45;ba11&#45;ba9151c40e3e&#45;&gt;4076fa9c&#45;059a&#45;4913&#45;bf69&#45;b17152df5114 -->
<g id="edge6" class="edge">
<title>7c7c38d4&#45;d69d&#45;45c6&#45;ba11&#45;ba9151c40e3e&#45;&gt;4076fa9c&#45;059a&#45;4913&#45;bf69&#45;b17152df5114</title>
<path fill="none" stroke="black" d="M1204.27,-99.87C1226.12,-99.87 1247.96,-99.87 1269.8,-99.87"/>
<polygon fill="black" stroke="black" points="1269.84,-103.37 1279.84,-99.87 1269.84,-96.37 1269.84,-103.37"/>
</g>
<!-- ed2b7722&#45;b535&#45;4528&#45;b53a&#45;93158b5c155b -->
<g id="node9" class="node">
<title>ed2b7722&#45;b535&#45;4528&#45;b53a&#45;93158b5c155b</title>
<polygon fill="white" stroke="black" points="1257,-36 860,-36 860,0 1257,0 1257,-36"/>
<text text-anchor="middle" x="1058.5" y="-14.3" font-family="Helvetica,sans-Serif" font-size="14.00">▶ Run GitHub Actions for `whitepaper/appendices.md`</text>
</g>
<!-- 7c7c38d4&#45;d69d&#45;45c6&#45;ba11&#45;ba9151c40e3e&#45;&gt;ed2b7722&#45;b535&#45;4528&#45;b53a&#45;93158b5c155b -->
<g id="edge5" class="edge">
<title>7c7c38d4&#45;d69d&#45;45c6&#45;ba11&#45;ba9151c40e3e&#45;&gt;ed2b7722&#45;b535&#45;4528&#45;b53a&#45;93158b5c155b</title>
<path fill="none" stroke="black" stroke-dasharray="5,2" d="M1058.5,-72.72C1058.5,-64.27 1058.5,-54.89 1058.5,-46.36"/>
<polygon fill="black" stroke="black" points="1062,-46.15 1058.5,-36.15 1055,-46.15 1062,-46.15"/>
</g>
<!-- 4076fa9c&#45;059a&#45;4913&#45;bf69&#45;b17152df5114&#45;&gt;end -->
<g id="edge9" class="edge">
<title>4076fa9c&#45;059a&#45;4913&#45;bf69&#45;b17152df5114&#45;&gt;end</title>
<path fill="none" stroke="black" d="M1630.9,-99.87C1650.83,-99.87 1667.63,-99.87 1677.85,-99.87"/>
<polygon fill="black" stroke="black" points="1677.87,-103.37 1687.87,-99.87 1677.87,-96.37 1677.87,-103.37"/>
<text text-anchor="middle" x="1659.43" y="-106.67" font-family="Helvetica,sans-Serif" font-size="14.00">Finish</text>
</g>
<!-- dc2c1290&#45;e248&#45;4914&#45;897b&#45;96999701a73e -->
<g id="node10" class="node">
<title>dc2c1290&#45;e248&#45;4914&#45;897b&#45;96999701a73e</title>
<polygon fill="white" stroke="black" points="1714,-36 1275,-36 1275,0 1714,0 1714,-36"/>
<text text-anchor="middle" x="1494.5" y="-14.3" font-family="Helvetica,sans-Serif" font-size="14.00">▶ Run GitHub Actions for `whitepaper/product_overview.md`</text>
</g>
<!-- 4076fa9c&#45;059a&#45;4913&#45;bf69&#45;b17152df5114&#45;&gt;dc2c1290&#45;e248&#45;4914&#45;897b&#45;96999701a73e -->
<g id="edge7" class="edge">
<title>4076fa9c&#45;059a&#45;4913&#45;bf69&#45;b17152df5114&#45;&gt;dc2c1290&#45;e248&#45;4914&#45;897b&#45;96999701a73e</title>
<path fill="none" stroke="black" stroke-dasharray="5,2" d="M1468.27,-72.72C1472.58,-63.9 1477.38,-54.05 1481.69,-45.23"/>
<polygon fill="black" stroke="black" points="1484.88,-46.67 1486.13,-36.15 1478.59,-43.6 1484.88,-46.67"/>
</g>
</g>
</svg>
