<?xml version="1.0" encoding="UTF-8" standalone="no"?>
<!DOCTYPE svg PUBLIC "-//W3C//DTD SVG 1.1//EN"
 "http://www.w3.org/Graphics/SVG/1.1/DTD/svg11.dtd">
<!-- Generated by graphviz version 2.43.0 (0)
 -->
<!-- Title: %3 Pages: 1 -->
<svg width="2449pt" height="238pt"
 viewBox="0.00 0.00 2448.50 237.74" xmlns="http://www.w3.org/2000/svg" xmlns:xlink="http://www.w3.org/1999/xlink">
<g id="graph0" class="graph" transform="scale(1 1) rotate(0) translate(36 201.74)">
<title>%3</title>
<polygon fill="dimgray" stroke="transparent" points="-36,36 -36,-201.74 2412.5,-201.74 2412.5,36 -36,36"/>
<text text-anchor="middle" x="1188.25" y="-150.54" font-family="Helvetica,sans-Serif" font-size="14.00">Sweep&#39;s Plan &amp; Progress</text>
<!-- start -->
<g id="node1" class="node">
<title>start</title>
</g>
<!-- f4828bb2&#45;649d&#45;4f6b&#45;9eec&#45;0fdb768f8010 -->
<g id="node3" class="node">
<title>f4828bb2&#45;649d&#45;4f6b&#45;9eec&#45;0fdb768f8010</title>
<ellipse fill="yellow" stroke="black" cx="276.5" cy="-99.87" rx="213.59" ry="26.74"/>
<text text-anchor="middle" x="276.5" y="-103.67" font-family="Helvetica,sans-Serif" font-size="14.00">⋯ Create</text>
<text text-anchor="middle" x="276.5" y="-88.67" font-family="Helvetica,sans-Serif" font-size="14.00">whitepaper/spatial_computing_future.md</text>
</g>
<!-- start&#45;&gt;f4828bb2&#45;649d&#45;4f6b&#45;9eec&#45;0fdb768f8010 -->
<g id="edge10" class="edge">
<title>start&#45;&gt;f4828bb2&#45;649d&#45;4f6b&#45;9eec&#45;0fdb768f8010</title>
<path fill="none" stroke="black" d="M11.26,-99.87C14.82,-99.87 30.54,-99.87 52.69,-99.87"/>
<polygon fill="black" stroke="black" points="52.93,-103.37 62.93,-99.87 52.93,-96.37 52.93,-103.37"/>
<text text-anchor="middle" x="36.98" y="-106.67" font-family="Helvetica,sans-Serif" font-size="14.00">Start</text>
</g>
<!-- end -->
<g id="node2" class="node">
<title>end</title>
</g>
<!-- 412ddef7&#45;a74b&#45;4a05&#45;ac94&#45;514f3967b1dd -->
<g id="node4" class="node">
<title>412ddef7&#45;a74b&#45;4a05&#45;ac94&#45;514f3967b1dd</title>
<ellipse fill="white" stroke="black" cx="730.5" cy="-99.87" rx="175.23" ry="26.74"/>
<text text-anchor="middle" x="730.5" y="-103.67" font-family="Helvetica,sans-Serif" font-size="14.00">▶ Modify</text>
<text text-anchor="middle" x="730.5" y="-88.67" font-family="Helvetica,sans-Serif" font-size="14.00">whitepaper/product_overview.md</text>
</g>
<!-- f4828bb2&#45;649d&#45;4f6b&#45;9eec&#45;0fdb768f8010&#45;&gt;412ddef7&#45;a74b&#45;4a05&#45;ac94&#45;514f3967b1dd -->
<g id="edge2" class="edge">
<title>f4828bb2&#45;649d&#45;4f6b&#45;9eec&#45;0fdb768f8010&#45;&gt;412ddef7&#45;a74b&#45;4a05&#45;ac94&#45;514f3967b1dd</title>
<path fill="none" stroke="black" d="M490.2,-99.87C508.42,-99.87 526.63,-99.87 544.85,-99.87"/>
<polygon fill="black" stroke="black" points="544.97,-103.37 554.97,-99.87 544.97,-96.37 544.97,-103.37"/>
</g>
<!-- d9a7a758&#45;8a54&#45;4e7d&#45;9f4a&#45;236dc0a77870 -->
<g id="node8" class="node">
<title>d9a7a758&#45;8a54&#45;4e7d&#45;9f4a&#45;236dc0a77870</title>
<polygon fill="white" stroke="black" points="493,-36 0,-36 0,0 493,0 493,-36"/>
<text text-anchor="middle" x="246.5" y="-14.3" font-family="Helvetica,sans-Serif" font-size="14.00">▶ Run GitHub Actions for `whitepaper/spatial_computing_future.md`</text>
</g>
<!-- f4828bb2&#45;649d&#45;4f6b&#45;9eec&#45;0fdb768f8010&#45;&gt;d9a7a758&#45;8a54&#45;4e7d&#45;9f4a&#45;236dc0a77870 -->
<g id="edge1" class="edge">
<title>f4828bb2&#45;649d&#45;4f6b&#45;9eec&#45;0fdb768f8010&#45;&gt;d9a7a758&#45;8a54&#45;4e7d&#45;9f4a&#45;236dc0a77870</title>
<path fill="none" stroke="black" stroke-dasharray="5,2" d="M266.68,-72.72C263.4,-63.99 259.75,-54.26 256.46,-45.51"/>
<polygon fill="black" stroke="black" points="259.73,-44.28 252.94,-36.15 253.18,-46.74 259.73,-44.28"/>
</g>
<!-- e2e473ce&#45;1ea0&#45;4c3c&#45;938a&#45;0c991230c51a -->
<g id="node5" class="node">
<title>e2e473ce&#45;1ea0&#45;4c3c&#45;938a&#45;0c991230c51a</title>
<ellipse fill="white" stroke="black" cx="1198.5" cy="-99.87" rx="190.84" ry="26.74"/>
<text text-anchor="middle" x="1198.5" y="-103.67" font-family="Helvetica,sans-Serif" font-size="14.00">▶ Modify</text>
<text text-anchor="middle" x="1198.5" y="-88.67" font-family="Helvetica,sans-Serif" font-size="14.00">whitepaper/competitive_analysis.md</text>
</g>
<!-- 412ddef7&#45;a74b&#45;4a05&#45;ac94&#45;514f3967b1dd&#45;&gt;e2e473ce&#45;1ea0&#45;4c3c&#45;938a&#45;0c991230c51a -->
<g id="edge4" class="edge">
<title>412ddef7&#45;a74b&#45;4a05&#45;ac94&#45;514f3967b1dd&#45;&gt;e2e473ce&#45;1ea0&#45;4c3c&#45;938a&#45;0c991230c51a</title>
<path fill="none" stroke="black" d="M906,-99.87C936.37,-99.87 966.74,-99.87 997.1,-99.87"/>
<polygon fill="black" stroke="black" points="997.4,-103.37 1007.4,-99.87 997.4,-96.37 997.4,-103.37"/>
</g>
<!-- fa527298&#45;03c4&#45;4fe6&#45;89cd&#45;2a1ef380781d -->
<g id="node9" class="node">
<title>fa527298&#45;03c4&#45;4fe6&#45;89cd&#45;2a1ef380781d</title>
<polygon fill="white" stroke="black" points="950,-36 511,-36 511,0 950,0 950,-36"/>
<text text-anchor="middle" x="730.5" y="-14.3" font-family="Helvetica,sans-Serif" font-size="14.00">▶ Run GitHub Actions for `whitepaper/product_overview.md`</text>
</g>
<!-- 412ddef7&#45;a74b&#45;4a05&#45;ac94&#45;514f3967b1dd&#45;&gt;fa527298&#45;03c4&#45;4fe6&#45;89cd&#45;2a1ef380781d -->
<g id="edge3" class="edge">
<title>412ddef7&#45;a74b&#45;4a05&#45;ac94&#45;514f3967b1dd&#45;&gt;fa527298&#45;03c4&#45;4fe6&#45;89cd&#45;2a1ef380781d</title>
<path fill="none" stroke="black" stroke-dasharray="5,2" d="M730.5,-72.72C730.5,-64.27 730.5,-54.89 730.5,-46.36"/>
<polygon fill="black" stroke="black" points="734,-46.15 730.5,-36.15 727,-46.15 734,-46.15"/>
</g>
<!-- 680e0092&#45;bc18&#45;464b&#45;b848&#45;ae80195147e3 -->
<g id="node6" class="node">
<title>680e0092&#45;bc18&#45;464b&#45;b848&#45;ae80195147e3</title>
<ellipse fill="white" stroke="black" cx="1665.5" cy="-99.87" rx="173.9" ry="26.74"/>
<text text-anchor="middle" x="1665.5" y="-103.67" font-family="Helvetica,sans-Serif" font-size="14.00">▶ Modify</text>
<text text-anchor="middle" x="1665.5" y="-88.67" font-family="Helvetica,sans-Serif" font-size="14.00">whitepaper/technology_stack.md</text>
</g>
<!-- e2e473ce&#45;1ea0&#45;4c3c&#45;938a&#45;0c991230c51a&#45;&gt;680e0092&#45;bc18&#45;464b&#45;b848&#45;ae80195147e3 -->
<g id="edge6" class="edge">
<title>e2e473ce&#45;1ea0&#45;4c3c&#45;938a&#45;0c991230c51a&#45;&gt;680e0092&#45;bc18&#45;464b&#45;b848&#45;ae80195147e3</title>
<path fill="none" stroke="black" d="M1389.59,-99.87C1420.09,-99.87 1450.59,-99.87 1481.09,-99.87"/>
<polygon fill="black" stroke="black" points="1481.44,-103.37 1491.44,-99.87 1481.44,-96.37 1481.44,-103.37"/>
</g>
<!-- 52d40c78&#45;3f98&#45;44e5&#45;bf98&#45;e6e25590848e -->
<g id="node10" class="node">
<title>52d40c78&#45;3f98&#45;44e5&#45;bf98&#45;e6e25590848e</title>
<polygon fill="white" stroke="black" points="1429,-36 968,-36 968,0 1429,0 1429,-36"/>
<text text-anchor="middle" x="1198.5" y="-14.3" font-family="Helvetica,sans-Serif" font-size="14.00">▶ Run GitHub Actions for `whitepaper/competitive_analysis.md`</text>
</g>
<!-- e2e473ce&#45;1ea0&#45;4c3c&#45;938a&#45;0c991230c51a&#45;&gt;52d40c78&#45;3f98&#45;44e5&#45;bf98&#45;e6e25590848e -->
<g id="edge5" class="edge">
<title>e2e473ce&#45;1ea0&#45;4c3c&#45;938a&#45;0c991230c51a&#45;&gt;52d40c78&#45;3f98&#45;44e5&#45;bf98&#45;e6e25590848e</title>
<path fill="none" stroke="black" stroke-dasharray="5,2" d="M1198.5,-72.72C1198.5,-64.27 1198.5,-54.89 1198.5,-46.36"/>
<polygon fill="black" stroke="black" points="1202,-46.15 1198.5,-36.15 1195,-46.15 1202,-46.15"/>
</g>
<!-- c07dd0dd&#45;76ee&#45;4085&#45;bc5a&#45;be93df4f6a4c -->
<g id="node7" class="node">
<title>c07dd0dd&#45;76ee&#45;4085&#45;bc5a&#45;be93df4f6a4c</title>
<ellipse fill="white" stroke="black" cx="2107.5" cy="-99.87" rx="200.22" ry="26.74"/>
<text text-anchor="middle" x="2107.5" y="-103.67" font-family="Helvetica,sans-Serif" font-size="14.00">▶ Modify</text>
<text text-anchor="middle" x="2107.5" y="-88.67" font-family="Helvetica,sans-Serif" font-size="14.00">whitepaper/blockchain_integration.md</text>
</g>
<!-- 680e0092&#45;bc18&#45;464b&#45;b848&#45;ae80195147e3&#45;&gt;c07dd0dd&#45;76ee&#45;4085&#45;bc5a&#45;be93df4f6a4c -->
<g id="edge8" class="edge">
<title>680e0092&#45;bc18&#45;464b&#45;b848&#45;ae80195147e3&#45;&gt;c07dd0dd&#45;76ee&#45;4085&#45;bc5a&#45;be93df4f6a4c</title>
<path fill="none" stroke="black" d="M1839.45,-99.87C1858.7,-99.87 1877.94,-99.87 1897.18,-99.87"/>
<polygon fill="black" stroke="black" points="1897.25,-103.37 1907.25,-99.87 1897.25,-96.37 1897.25,-103.37"/>
</g>
<!-- f7489c67&#45;c1ce&#45;48a6&#45;be6d&#45;0e1e8a0d094a -->
<g id="node11" class="node">
<title>f7489c67&#45;c1ce&#45;48a6&#45;be6d&#45;0e1e8a0d094a</title>
<polygon fill="white" stroke="black" points="1884,-36 1447,-36 1447,0 1884,0 1884,-36"/>
<text text-anchor="middle" x="1665.5" y="-14.3" font-family="Helvetica,sans-Serif" font-size="14.00">▶ Run GitHub Actions for `whitepaper/technology_stack.md`</text>
</g>
<!-- 680e0092&#45;bc18&#45;464b&#45;b848&#45;ae80195147e3&#45;&gt;f7489c67&#45;c1ce&#45;48a6&#45;be6d&#45;0e1e8a0d094a -->
<g id="edge7" class="edge">
<title>680e0092&#45;bc18&#45;464b&#45;b848&#45;ae80195147e3&#45;&gt;f7489c67&#45;c1ce&#45;48a6&#45;be6d&#45;0e1e8a0d094a</title>
<path fill="none" stroke="black" stroke-dasharray="5,2" d="M1665.5,-72.72C1665.5,-64.27 1665.5,-54.89 1665.5,-46.36"/>
<polygon fill="black" stroke="black" points="1669,-46.15 1665.5,-36.15 1662,-46.15 1669,-46.15"/>
</g>
<!-- c07dd0dd&#45;76ee&#45;4085&#45;bc5a&#45;be93df4f6a4c&#45;&gt;end -->
<g id="edge11" class="edge">
<title>c07dd0dd&#45;76ee&#45;4085&#45;bc5a&#45;be93df4f6a4c&#45;&gt;end</title>
<path fill="none" stroke="black" d="M2307.92,-99.87C2327.83,-99.87 2344.42,-99.87 2354.6,-99.87"/>
<polygon fill="black" stroke="black" points="2354.88,-103.37 2364.88,-99.87 2354.88,-96.37 2354.88,-103.37"/>
<text text-anchor="middle" x="2336.31" y="-106.67" font-family="Helvetica,sans-Serif" font-size="14.00">Finish</text>
</g>
<!-- f6a320bc&#45;d6e0&#45;4ef0&#45;acdd&#45;e3170236d1d7 -->
<g id="node12" class="node">
<title>f6a320bc&#45;d6e0&#45;4ef0&#45;acdd&#45;e3170236d1d7</title>
<polygon fill="white" stroke="black" points="2376.5,-36 1902.5,-36 1902.5,0 2376.5,0 2376.5,-36"/>
<text text-anchor="middle" x="2139.5" y="-14.3" font-family="Helvetica,sans-Serif" font-size="14.00">▶ Run GitHub Actions for `whitepaper/blockchain_integration.md`</text>
</g>
<!-- c07dd0dd&#45;76ee&#45;4085&#45;bc5a&#45;be93df4f6a4c&#45;&gt;f6a320bc&#45;d6e0&#45;4ef0&#45;acdd&#45;e3170236d1d7 -->
<g id="edge9" class="edge">
<title>c07dd0dd&#45;76ee&#45;4085&#45;bc5a&#45;be93df4f6a4c&#45;&gt;f6a320bc&#45;d6e0&#45;4ef0&#45;acdd&#45;e3170236d1d7</title>
<path fill="none" stroke="black" stroke-dasharray="5,2" d="M2117.98,-72.72C2121.47,-63.99 2125.37,-54.26 2128.88,-45.51"/>
<polygon fill="black" stroke="black" points="2132.16,-46.73 2132.63,-36.15 2125.66,-44.13 2132.16,-46.73"/>
</g>
</g>
</svg>
