<?xml version="1.0" encoding="UTF-8" standalone="no"?>
<!DOCTYPE svg PUBLIC "-//W3C//DTD SVG 1.1//EN"
 "http://www.w3.org/Graphics/SVG/1.1/DTD/svg11.dtd">
<!-- Generated by graphviz version 2.43.0 (0)
 -->
<!-- Title: %3 Pages: 1 -->
<svg width="2454pt" height="238pt"
 viewBox="0.00 0.00 2454.00 237.74" xmlns="http://www.w3.org/2000/svg" xmlns:xlink="http://www.w3.org/1999/xlink">
<g id="graph0" class="graph" transform="scale(1 1) rotate(0) translate(36 201.74)">
<title>%3</title>
<polygon fill="dimgray" stroke="transparent" points="-36,36 -36,-201.74 2418,-201.74 2418,36 -36,36"/>
<text text-anchor="middle" x="1191" y="-150.54" font-family="Helvetica,sans-Serif" font-size="14.00">Sweep&#39;s Plan &amp; Progress</text>
<!-- start -->
<g id="node1" class="node">
<title>start</title>
</g>
<!-- f4828bb2&#45;649d&#45;4f6b&#45;9eec&#45;0fdb768f8010 -->
<g id="node3" class="node">
<title>f4828bb2&#45;649d&#45;4f6b&#45;9eec&#45;0fdb768f8010</title>
<ellipse fill="#0ee832" stroke="black" cx="278" cy="-99.87" rx="213.59" ry="26.74"/>
<text text-anchor="middle" x="278" y="-103.67" font-family="Helvetica,sans-Serif" font-size="14.00">✓ Create</text>
<text text-anchor="middle" x="278" y="-88.67" font-family="Helvetica,sans-Serif" font-size="14.00">whitepaper/spatial_computing_future.md</text>
</g>
<!-- start&#45;&gt;f4828bb2&#45;649d&#45;4f6b&#45;9eec&#45;0fdb768f8010 -->
<g id="edge10" class="edge">
<title>start&#45;&gt;f4828bb2&#45;649d&#45;4f6b&#45;9eec&#45;0fdb768f8010</title>
<path fill="none" stroke="black" d="M12.76,-99.87C16.32,-99.87 32.04,-99.87 54.19,-99.87"/>
<polygon fill="black" stroke="black" points="54.43,-103.37 64.43,-99.87 54.43,-96.37 54.43,-103.37"/>
<text text-anchor="middle" x="38.48" y="-106.67" font-family="Helvetica,sans-Serif" font-size="14.00">Start</text>
</g>
<!-- end -->
<g id="node2" class="node">
<title>end</title>
</g>
<!-- 412ddef7&#45;a74b&#45;4a05&#45;ac94&#45;514f3967b1dd -->
<g id="node4" class="node">
<title>412ddef7&#45;a74b&#45;4a05&#45;ac94&#45;514f3967b1dd</title>
<ellipse fill="#0ee832" stroke="black" cx="734" cy="-99.87" rx="175.23" ry="26.74"/>
<text text-anchor="middle" x="734" y="-103.67" font-family="Helvetica,sans-Serif" font-size="14.00">✓ Modify</text>
<text text-anchor="middle" x="734" y="-88.67" font-family="Helvetica,sans-Serif" font-size="14.00">whitepaper/product_overview.md</text>
</g>
<!-- f4828bb2&#45;649d&#45;4f6b&#45;9eec&#45;0fdb768f8010&#45;&gt;412ddef7&#45;a74b&#45;4a05&#45;ac94&#45;514f3967b1dd -->
<g id="edge2" class="edge">
<title>f4828bb2&#45;649d&#45;4f6b&#45;9eec&#45;0fdb768f8010&#45;&gt;412ddef7&#45;a74b&#45;4a05&#45;ac94&#45;514f3967b1dd</title>
<path fill="none" stroke="black" d="M491.75,-99.87C510.6,-99.87 529.45,-99.87 548.3,-99.87"/>
<polygon fill="black" stroke="black" points="548.46,-103.37 558.46,-99.87 548.46,-96.37 548.46,-103.37"/>
</g>
<!-- d9a7a758&#45;8a54&#45;4e7d&#45;9f4a&#45;236dc0a77870 -->
<g id="node8" class="node">
<title>d9a7a758&#45;8a54&#45;4e7d&#45;9f4a&#45;236dc0a77870</title>
<polygon fill="#0ee832" stroke="black" points="494,-36 0,-36 0,0 494,0 494,-36"/>
<text text-anchor="middle" x="247" y="-14.3" font-family="Helvetica,sans-Serif" font-size="14.00">✓ Run GitHub Actions for `whitepaper/spatial_computing_future.md`</text>
</g>
<!-- f4828bb2&#45;649d&#45;4f6b&#45;9eec&#45;0fdb768f8010&#45;&gt;d9a7a758&#45;8a54&#45;4e7d&#45;9f4a&#45;236dc0a77870 -->
<g id="edge1" class="edge">
<title>f4828bb2&#45;649d&#45;4f6b&#45;9eec&#45;0fdb768f8010&#45;&gt;d9a7a758&#45;8a54&#45;4e7d&#45;9f4a&#45;236dc0a77870</title>
<path fill="none" stroke="black" stroke-dasharray="5,2" d="M267.85,-72.72C264.46,-63.99 260.69,-54.26 257.29,-45.51"/>
<polygon fill="black" stroke="black" points="260.54,-44.2 253.66,-36.15 254.01,-46.74 260.54,-44.2"/>
</g>
<!-- e2e473ce&#45;1ea0&#45;4c3c&#45;938a&#45;0c991230c51a -->
<g id="node5" class="node">
<title>e2e473ce&#45;1ea0&#45;4c3c&#45;938a&#45;0c991230c51a</title>
<ellipse fill="white" stroke="black" cx="1204" cy="-99.87" rx="190.84" ry="26.74"/>
<text text-anchor="middle" x="1204" y="-103.67" font-family="Helvetica,sans-Serif" font-size="14.00">▶ Modify</text>
<text text-anchor="middle" x="1204" y="-88.67" font-family="Helvetica,sans-Serif" font-size="14.00">whitepaper/competitive_analysis.md</text>
</g>
<!-- 412ddef7&#45;a74b&#45;4a05&#45;ac94&#45;514f3967b1dd&#45;&gt;e2e473ce&#45;1ea0&#45;4c3c&#45;938a&#45;0c991230c51a -->
<g id="edge4" class="edge">
<title>412ddef7&#45;a74b&#45;4a05&#45;ac94&#45;514f3967b1dd&#45;&gt;e2e473ce&#45;1ea0&#45;4c3c&#45;938a&#45;0c991230c51a</title>
<path fill="none" stroke="black" d="M909.79,-99.87C940.82,-99.87 971.84,-99.87 1002.86,-99.87"/>
<polygon fill="black" stroke="black" points="1002.94,-103.37 1012.94,-99.87 1002.94,-96.37 1002.94,-103.37"/>
</g>
<!-- fa527298&#45;03c4&#45;4fe6&#45;89cd&#45;2a1ef380781d -->
<g id="node9" class="node">
<title>fa527298&#45;03c4&#45;4fe6&#45;89cd&#45;2a1ef380781d</title>
<polygon fill="yellow" stroke="black" points="955.5,-36 512.5,-36 512.5,0 955.5,0 955.5,-36"/>
<text text-anchor="middle" x="734" y="-14.3" font-family="Helvetica,sans-Serif" font-size="14.00">⋯ Run GitHub Actions for `whitepaper/product_overview.md`</text>
</g>
<!-- 412ddef7&#45;a74b&#45;4a05&#45;ac94&#45;514f3967b1dd&#45;&gt;fa527298&#45;03c4&#45;4fe6&#45;89cd&#45;2a1ef380781d -->
<g id="edge3" class="edge">
<title>412ddef7&#45;a74b&#45;4a05&#45;ac94&#45;514f3967b1dd&#45;&gt;fa527298&#45;03c4&#45;4fe6&#45;89cd&#45;2a1ef380781d</title>
<path fill="none" stroke="black" stroke-dasharray="5,2" d="M734,-72.72C734,-64.27 734,-54.89 734,-46.36"/>
<polygon fill="black" stroke="black" points="737.5,-46.15 734,-36.15 730.5,-46.15 737.5,-46.15"/>
</g>
<!-- 680e0092&#45;bc18&#45;464b&#45;b848&#45;ae80195147e3 -->
<g id="node6" class="node">
<title>680e0092&#45;bc18&#45;464b&#45;b848&#45;ae80195147e3</title>
<ellipse fill="white" stroke="black" cx="1671" cy="-99.87" rx="173.9" ry="26.74"/>
<text text-anchor="middle" x="1671" y="-103.67" font-family="Helvetica,sans-Serif" font-size="14.00">▶ Modify</text>
<text text-anchor="middle" x="1671" y="-88.67" font-family="Helvetica,sans-Serif" font-size="14.00">whitepaper/technology_stack.md</text>
</g>
<!-- e2e473ce&#45;1ea0&#45;4c3c&#45;938a&#45;0c991230c51a&#45;&gt;680e0092&#45;bc18&#45;464b&#45;b848&#45;ae80195147e3 -->
<g id="edge6" class="edge">
<title>e2e473ce&#45;1ea0&#45;4c3c&#45;938a&#45;0c991230c51a&#45;&gt;680e0092&#45;bc18&#45;464b&#45;b848&#45;ae80195147e3</title>
<path fill="none" stroke="black" d="M1395.09,-99.87C1425.59,-99.87 1456.09,-99.87 1486.59,-99.87"/>
<polygon fill="black" stroke="black" points="1486.94,-103.37 1496.94,-99.87 1486.94,-96.37 1486.94,-103.37"/>
</g>
<!-- 52d40c78&#45;3f98&#45;44e5&#45;bf98&#45;e6e25590848e -->
<g id="node10" class="node">
<title>52d40c78&#45;3f98&#45;44e5&#45;bf98&#45;e6e25590848e</title>
<polygon fill="white" stroke="black" points="1434.5,-36 973.5,-36 973.5,0 1434.5,0 1434.5,-36"/>
<text text-anchor="middle" x="1204" y="-14.3" font-family="Helvetica,sans-Serif" font-size="14.00">▶ Run GitHub Actions for `whitepaper/competitive_analysis.md`</text>
</g>
<!-- e2e473ce&#45;1ea0&#45;4c3c&#45;938a&#45;0c991230c51a&#45;&gt;52d40c78&#45;3f98&#45;44e5&#45;bf98&#45;e6e25590848e -->
<g id="edge5" class="edge">
<title>e2e473ce&#45;1ea0&#45;4c3c&#45;938a&#45;0c991230c51a&#45;&gt;52d40c78&#45;3f98&#45;44e5&#45;bf98&#45;e6e25590848e</title>
<path fill="none" stroke="black" stroke-dasharray="5,2" d="M1204,-72.72C1204,-64.27 1204,-54.89 1204,-46.36"/>
<polygon fill="black" stroke="black" points="1207.5,-46.15 1204,-36.15 1200.5,-46.15 1207.5,-46.15"/>
</g>
<!-- c07dd0dd&#45;76ee&#45;4085&#45;bc5a&#45;be93df4f6a4c -->
<g id="node7" class="node">
<title>c07dd0dd&#45;76ee&#45;4085&#45;bc5a&#45;be93df4f6a4c</title>
<ellipse fill="white" stroke="black" cx="2113" cy="-99.87" rx="200.22" ry="26.74"/>
<text text-anchor="middle" x="2113" y="-103.67" font-family="Helvetica,sans-Serif" font-size="14.00">▶ Modify</text>
<text text-anchor="middle" x="2113" y="-88.67" font-family="Helvetica,sans-Serif" font-size="14.00">whitepaper/blockchain_integration.md</text>
</g>
<!-- 680e0092&#45;bc18&#45;464b&#45;b848&#45;ae80195147e3&#45;&gt;c07dd0dd&#45;76ee&#45;4085&#45;bc5a&#45;be93df4f6a4c -->
<g id="edge8" class="edge">
<title>680e0092&#45;bc18&#45;464b&#45;b848&#45;ae80195147e3&#45;&gt;c07dd0dd&#45;76ee&#45;4085&#45;bc5a&#45;be93df4f6a4c</title>
<path fill="none" stroke="black" d="M1844.95,-99.87C1864.2,-99.87 1883.44,-99.87 1902.68,-99.87"/>
<polygon fill="black" stroke="black" points="1902.75,-103.37 1912.75,-99.87 1902.75,-96.37 1902.75,-103.37"/>
</g>
<!-- f7489c67&#45;c1ce&#45;48a6&#45;be6d&#45;0e1e8a0d094a -->
<g id="node11" class="node">
<title>f7489c67&#45;c1ce&#45;48a6&#45;be6d&#45;0e1e8a0d094a</title>
<polygon fill="white" stroke="black" points="1889.5,-36 1452.5,-36 1452.5,0 1889.5,0 1889.5,-36"/>
<text text-anchor="middle" x="1671" y="-14.3" font-family="Helvetica,sans-Serif" font-size="14.00">▶ Run GitHub Actions for `whitepaper/technology_stack.md`</text>
</g>
<!-- 680e0092&#45;bc18&#45;464b&#45;b848&#45;ae80195147e3&#45;&gt;f7489c67&#45;c1ce&#45;48a6&#45;be6d&#45;0e1e8a0d094a -->
<g id="edge7" class="edge">
<title>680e0092&#45;bc18&#45;464b&#45;b848&#45;ae80195147e3&#45;&gt;f7489c67&#45;c1ce&#45;48a6&#45;be6d&#45;0e1e8a0d094a</title>
<path fill="none" stroke="black" stroke-dasharray="5,2" d="M1671,-72.72C1671,-64.27 1671,-54.89 1671,-46.36"/>
<polygon fill="black" stroke="black" points="1674.5,-46.15 1671,-36.15 1667.5,-46.15 1674.5,-46.15"/>
</g>
<!-- c07dd0dd&#45;76ee&#45;4085&#45;bc5a&#45;be93df4f6a4c&#45;&gt;end -->
<g id="edge11" class="edge">
<title>c07dd0dd&#45;76ee&#45;4085&#45;bc5a&#45;be93df4f6a4c&#45;&gt;end</title>
<path fill="none" stroke="black" d="M2313.42,-99.87C2333.33,-99.87 2349.92,-99.87 2360.1,-99.87"/>
<polygon fill="black" stroke="black" points="2360.38,-103.37 2370.38,-99.87 2360.38,-96.37 2360.38,-103.37"/>
<text text-anchor="middle" x="2341.81" y="-106.67" font-family="Helvetica,sans-Serif" font-size="14.00">Finish</text>
</g>
<!-- f6a320bc&#45;d6e0&#45;4ef0&#45;acdd&#45;e3170236d1d7 -->
<g id="node12" class="node">
<title>f6a320bc&#45;d6e0&#45;4ef0&#45;acdd&#45;e3170236d1d7</title>
<polygon fill="white" stroke="black" points="2382,-36 1908,-36 1908,0 2382,0 2382,-36"/>
<text text-anchor="middle" x="2145" y="-14.3" font-family="Helvetica,sans-Serif" font-size="14.00">▶ Run GitHub Actions for `whitepaper/blockchain_integration.md`</text>
</g>
<!-- c07dd0dd&#45;76ee&#45;4085&#45;bc5a&#45;be93df4f6a4c&#45;&gt;f6a320bc&#45;d6e0&#45;4ef0&#45;acdd&#45;e3170236d1d7 -->
<g id="edge9" class="edge">
<title>c07dd0dd&#45;76ee&#45;4085&#45;bc5a&#45;be93df4f6a4c&#45;&gt;f6a320bc&#45;d6e0&#45;4ef0&#45;acdd&#45;e3170236d1d7</title>
<path fill="none" stroke="black" stroke-dasharray="5,2" d="M2123.48,-72.72C2126.97,-63.99 2130.87,-54.26 2134.38,-45.51"/>
<polygon fill="black" stroke="black" points="2137.66,-46.73 2138.13,-36.15 2131.16,-44.13 2137.66,-46.73"/>
</g>
</g>
</svg>
