<?xml version="1.0" encoding="UTF-8" standalone="no"?>
<!DOCTYPE svg PUBLIC "-//W3C//DTD SVG 1.1//EN"
 "http://www.w3.org/Graphics/SVG/1.1/DTD/svg11.dtd">
<!-- Generated by graphviz version 2.43.0 (0)
 -->
<!-- Title: %3 Pages: 1 -->
<svg width="1782pt" height="238pt"
 viewBox="0.00 0.00 1782.00 237.74" xmlns="http://www.w3.org/2000/svg" xmlns:xlink="http://www.w3.org/1999/xlink">
<g id="graph0" class="graph" transform="scale(1 1) rotate(0) translate(36 201.74)">
<title>%3</title>
<polygon fill="dimgray" stroke="transparent" points="-36,36 -36,-201.74 1746,-201.74 1746,36 -36,36"/>
<text text-anchor="middle" x="855" y="-150.54" font-family="Helvetica,sans-Serif" font-size="14.00">Sweep&#39;s Plan &amp; Progress</text>
<!-- start -->
<g id="node1" class="node">
<title>start</title>
</g>
<!-- 6d347dbf&#45;f2b2&#45;4abc&#45;9b2f&#45;f1522ecbdc43 -->
<g id="node3" class="node">
<title>6d347dbf&#45;f2b2&#45;4abc&#45;9b2f&#45;f1522ecbdc43</title>
<ellipse fill="yellow" stroke="black" cx="239.5" cy="-99.87" rx="145.83" ry="26.74"/>
<text text-anchor="middle" x="239.5" y="-103.67" font-family="Helvetica,sans-Serif" font-size="14.00">⋯ Modify</text>
<text text-anchor="middle" x="239.5" y="-88.67" font-family="Helvetica,sans-Serif" font-size="14.00">whitepaper/cover_page.md</text>
</g>
<!-- start&#45;&gt;6d347dbf&#45;f2b2&#45;4abc&#45;9b2f&#45;f1522ecbdc43 -->
<g id="edge8" class="edge">
<title>start&#45;&gt;6d347dbf&#45;f2b2&#45;4abc&#45;9b2f&#45;f1522ecbdc43</title>
<path fill="none" stroke="black" d="M42.07,-99.87C45.26,-99.87 61.6,-99.87 83.63,-99.87"/>
<polygon fill="black" stroke="black" points="83.76,-103.37 93.76,-99.87 83.76,-96.37 83.76,-103.37"/>
<text text-anchor="middle" x="67.92" y="-106.67" font-family="Helvetica,sans-Serif" font-size="14.00">Start</text>
</g>
<!-- end -->
<g id="node2" class="node">
<title>end</title>
</g>
<!-- 1ad1b8ef&#45;b41d&#45;4802&#45;a41c&#45;70209d545b76 -->
<g id="node4" class="node">
<title>1ad1b8ef&#45;b41d&#45;4802&#45;a41c&#45;70209d545b76</title>
<ellipse fill="white" stroke="black" cx="626.5" cy="-99.87" rx="164.1" ry="26.74"/>
<text text-anchor="middle" x="626.5" y="-103.67" font-family="Helvetica,sans-Serif" font-size="14.00">▶ Modify</text>
<text text-anchor="middle" x="626.5" y="-88.67" font-family="Helvetica,sans-Serif" font-size="14.00">whitepaper/advisory_board.md</text>
</g>
<!-- 6d347dbf&#45;f2b2&#45;4abc&#45;9b2f&#45;f1522ecbdc43&#45;&gt;1ad1b8ef&#45;b41d&#45;4802&#45;a41c&#45;70209d545b76 -->
<g id="edge2" class="edge">
<title>6d347dbf&#45;f2b2&#45;4abc&#45;9b2f&#45;f1522ecbdc43&#45;&gt;1ad1b8ef&#45;b41d&#45;4802&#45;a41c&#45;70209d545b76</title>
<path fill="none" stroke="black" d="M385.38,-99.87C407.57,-99.87 429.76,-99.87 451.95,-99.87"/>
<polygon fill="black" stroke="black" points="452.14,-103.37 462.14,-99.87 452.14,-96.37 452.14,-103.37"/>
</g>
<!-- 8c2164af&#45;eecf&#45;404f&#45;ad95&#45;e07f45a3e6e8 -->
<g id="node7" class="node">
<title>8c2164af&#45;eecf&#45;404f&#45;ad95&#45;e07f45a3e6e8</title>
<polygon fill="white" stroke="black" points="397,-36 0,-36 0,0 397,0 397,-36"/>
<text text-anchor="middle" x="198.5" y="-14.3" font-family="Helvetica,sans-Serif" font-size="14.00">▶ Run GitHub Actions for `whitepaper/cover_page.md`</text>
</g>
<!-- 6d347dbf&#45;f2b2&#45;4abc&#45;9b2f&#45;f1522ecbdc43&#45;&gt;8c2164af&#45;eecf&#45;404f&#45;ad95&#45;e07f45a3e6e8 -->
<g id="edge1" class="edge">
<title>6d347dbf&#45;f2b2&#45;4abc&#45;9b2f&#45;f1522ecbdc43&#45;&gt;8c2164af&#45;eecf&#45;404f&#45;ad95&#45;e07f45a3e6e8</title>
<path fill="none" stroke="black" stroke-dasharray="5,2" d="M226.08,-72.72C221.55,-63.9 216.49,-54.05 211.96,-45.23"/>
<polygon fill="black" stroke="black" points="214.98,-43.44 207.3,-36.15 208.75,-46.64 214.98,-43.44"/>
</g>
<!-- 7c7c38d4&#45;d69d&#45;45c6&#45;ba11&#45;ba9151c40e3e -->
<g id="node5" class="node">
<title>7c7c38d4&#45;d69d&#45;45c6&#45;ba11&#45;ba9151c40e3e</title>
<ellipse fill="white" stroke="black" cx="1054.5" cy="-99.87" rx="145.83" ry="26.74"/>
<text text-anchor="middle" x="1054.5" y="-103.67" font-family="Helvetica,sans-Serif" font-size="14.00">▶ Modify</text>
<text text-anchor="middle" x="1054.5" y="-88.67" font-family="Helvetica,sans-Serif" font-size="14.00">whitepaper/appendices.md</text>
</g>
<!-- 1ad1b8ef&#45;b41d&#45;4802&#45;a41c&#45;70209d545b76&#45;&gt;7c7c38d4&#45;d69d&#45;45c6&#45;ba11&#45;ba9151c40e3e -->
<g id="edge4" class="edge">
<title>1ad1b8ef&#45;b41d&#45;4802&#45;a41c&#45;70209d545b76&#45;&gt;7c7c38d4&#45;d69d&#45;45c6&#45;ba11&#45;ba9151c40e3e</title>
<path fill="none" stroke="black" d="M790.76,-99.87C826.7,-99.87 862.64,-99.87 898.59,-99.87"/>
<polygon fill="black" stroke="black" points="898.72,-103.37 908.72,-99.87 898.72,-96.37 898.72,-103.37"/>
</g>
<!-- 2434a458&#45;6b8d&#45;40a6&#45;887b&#45;147267b9ed3a -->
<g id="node8" class="node">
<title>2434a458&#45;6b8d&#45;40a6&#45;887b&#45;147267b9ed3a</title>
<polygon fill="white" stroke="black" points="838,-36 415,-36 415,0 838,0 838,-36"/>
<text text-anchor="middle" x="626.5" y="-14.3" font-family="Helvetica,sans-Serif" font-size="14.00">▶ Run GitHub Actions for `whitepaper/advisory_board.md`</text>
</g>
<!-- 1ad1b8ef&#45;b41d&#45;4802&#45;a41c&#45;70209d545b76&#45;&gt;2434a458&#45;6b8d&#45;40a6&#45;887b&#45;147267b9ed3a -->
<g id="edge3" class="edge">
<title>1ad1b8ef&#45;b41d&#45;4802&#45;a41c&#45;70209d545b76&#45;&gt;2434a458&#45;6b8d&#45;40a6&#45;887b&#45;147267b9ed3a</title>
<path fill="none" stroke="black" stroke-dasharray="5,2" d="M626.5,-72.72C626.5,-64.27 626.5,-54.89 626.5,-46.36"/>
<polygon fill="black" stroke="black" points="630,-46.15 626.5,-36.15 623,-46.15 630,-46.15"/>
</g>
<!-- 4076fa9c&#45;059a&#45;4913&#45;bf69&#45;b17152df5114 -->
<g id="node6" class="node">
<title>4076fa9c&#45;059a&#45;4913&#45;bf69&#45;b17152df5114</title>
<ellipse fill="white" stroke="black" cx="1451.5" cy="-99.87" rx="175.23" ry="26.74"/>
<text text-anchor="middle" x="1451.5" y="-103.67" font-family="Helvetica,sans-Serif" font-size="14.00">▶ Modify</text>
<text text-anchor="middle" x="1451.5" y="-88.67" font-family="Helvetica,sans-Serif" font-size="14.00">whitepaper/product_overview.md</text>
</g>
<!-- 7c7c38d4&#45;d69d&#45;45c6&#45;ba11&#45;ba9151c40e3e&#45;&gt;4076fa9c&#45;059a&#45;4913&#45;bf69&#45;b17152df5114 -->
<g id="edge6" class="edge">
<title>7c7c38d4&#45;d69d&#45;45c6&#45;ba11&#45;ba9151c40e3e&#45;&gt;4076fa9c&#45;059a&#45;4913&#45;bf69&#45;b17152df5114</title>
<path fill="none" stroke="black" d="M1200.27,-99.87C1222.12,-99.87 1243.96,-99.87 1265.8,-99.87"/>
<polygon fill="black" stroke="black" points="1265.84,-103.37 1275.84,-99.87 1265.84,-96.37 1265.84,-103.37"/>
</g>
<!-- ed2b7722&#45;b535&#45;4528&#45;b53a&#45;93158b5c155b -->
<g id="node9" class="node">
<title>ed2b7722&#45;b535&#45;4528&#45;b53a&#45;93158b5c155b</title>
<polygon fill="white" stroke="black" points="1253,-36 856,-36 856,0 1253,0 1253,-36"/>
<text text-anchor="middle" x="1054.5" y="-14.3" font-family="Helvetica,sans-Serif" font-size="14.00">▶ Run GitHub Actions for `whitepaper/appendices.md`</text>
</g>
<!-- 7c7c38d4&#45;d69d&#45;45c6&#45;ba11&#45;ba9151c40e3e&#45;&gt;ed2b7722&#45;b535&#45;4528&#45;b53a&#45;93158b5c155b -->
<g id="edge5" class="edge">
<title>7c7c38d4&#45;d69d&#45;45c6&#45;ba11&#45;ba9151c40e3e&#45;&gt;ed2b7722&#45;b535&#45;4528&#45;b53a&#45;93158b5c155b</title>
<path fill="none" stroke="black" stroke-dasharray="5,2" d="M1054.5,-72.72C1054.5,-64.27 1054.5,-54.89 1054.5,-46.36"/>
<polygon fill="black" stroke="black" points="1058,-46.15 1054.5,-36.15 1051,-46.15 1058,-46.15"/>
</g>
<!-- 4076fa9c&#45;059a&#45;4913&#45;bf69&#45;b17152df5114&#45;&gt;end -->
<g id="edge9" class="edge">
<title>4076fa9c&#45;059a&#45;4913&#45;bf69&#45;b17152df5114&#45;&gt;end</title>
<path fill="none" stroke="black" d="M1626.9,-99.87C1646.83,-99.87 1663.63,-99.87 1673.85,-99.87"/>
<polygon fill="black" stroke="black" points="1673.87,-103.37 1683.87,-99.87 1673.87,-96.37 1673.87,-103.37"/>
<text text-anchor="middle" x="1655.43" y="-106.67" font-family="Helvetica,sans-Serif" font-size="14.00">Finish</text>
</g>
<!-- dc2c1290&#45;e248&#45;4914&#45;897b&#45;96999701a73e -->
<g id="node10" class="node">
<title>dc2c1290&#45;e248&#45;4914&#45;897b&#45;96999701a73e</title>
<polygon fill="white" stroke="black" points="1710,-36 1271,-36 1271,0 1710,0 1710,-36"/>
<text text-anchor="middle" x="1490.5" y="-14.3" font-family="Helvetica,sans-Serif" font-size="14.00">▶ Run GitHub Actions for `whitepaper/product_overview.md`</text>
</g>
<!-- 4076fa9c&#45;059a&#45;4913&#45;bf69&#45;b17152df5114&#45;&gt;dc2c1290&#45;e248&#45;4914&#45;897b&#45;96999701a73e -->
<g id="edge7" class="edge">
<title>4076fa9c&#45;059a&#45;4913&#45;bf69&#45;b17152df5114&#45;&gt;dc2c1290&#45;e248&#45;4914&#45;897b&#45;96999701a73e</title>
<path fill="none" stroke="black" stroke-dasharray="5,2" d="M1464.27,-72.72C1468.58,-63.9 1473.38,-54.05 1477.69,-45.23"/>
<polygon fill="black" stroke="black" points="1480.88,-46.67 1482.13,-36.15 1474.59,-43.6 1480.88,-46.67"/>
</g>
</g>
</svg>
