<?xml version="1.0" encoding="UTF-8" standalone="no"?>
<!DOCTYPE svg PUBLIC "-//W3C//DTD SVG 1.1//EN"
 "http://www.w3.org/Graphics/SVG/1.1/DTD/svg11.dtd">
<!-- Generated by graphviz version 2.43.0 (0)
 -->
<!-- Title: %3 Pages: 1 -->
<svg width="2455pt" height="238pt"
 viewBox="0.00 0.00 2455.00 237.74" xmlns="http://www.w3.org/2000/svg" xmlns:xlink="http://www.w3.org/1999/xlink">
<g id="graph0" class="graph" transform="scale(1 1) rotate(0) translate(36 201.74)">
<title>%3</title>
<polygon fill="dimgray" stroke="transparent" points="-36,36 -36,-201.74 2419,-201.74 2419,36 -36,36"/>
<text text-anchor="middle" x="1191.5" y="-150.54" font-family="Helvetica,sans-Serif" font-size="14.00">Sweep&#39;s Plan &amp; Progress</text>
<!-- start -->
<g id="node1" class="node">
<title>start</title>
</g>
<!-- f4828bb2&#45;649d&#45;4f6b&#45;9eec&#45;0fdb768f8010 -->
<g id="node3" class="node">
<title>f4828bb2&#45;649d&#45;4f6b&#45;9eec&#45;0fdb768f8010</title>
<ellipse fill="#0ee832" stroke="black" cx="277" cy="-99.87" rx="213.59" ry="26.74"/>
<text text-anchor="middle" x="277" y="-103.67" font-family="Helvetica,sans-Serif" font-size="14.00">✓ Create</text>
<text text-anchor="middle" x="277" y="-88.67" font-family="Helvetica,sans-Serif" font-size="14.00">whitepaper/spatial_computing_future.md</text>
</g>
<!-- start&#45;&gt;f4828bb2&#45;649d&#45;4f6b&#45;9eec&#45;0fdb768f8010 -->
<g id="edge10" class="edge">
<title>start&#45;&gt;f4828bb2&#45;649d&#45;4f6b&#45;9eec&#45;0fdb768f8010</title>
<path fill="none" stroke="black" d="M11.76,-99.87C15.32,-99.87 31.04,-99.87 53.19,-99.87"/>
<polygon fill="black" stroke="black" points="53.43,-103.37 63.43,-99.87 53.43,-96.37 53.43,-103.37"/>
<text text-anchor="middle" x="37.48" y="-106.67" font-family="Helvetica,sans-Serif" font-size="14.00">Start</text>
</g>
<!-- end -->
<g id="node2" class="node">
<title>end</title>
</g>
<!-- 412ddef7&#45;a74b&#45;4a05&#45;ac94&#45;514f3967b1dd -->
<g id="node4" class="node">
<title>412ddef7&#45;a74b&#45;4a05&#45;ac94&#45;514f3967b1dd</title>
<ellipse fill="#0ee832" stroke="black" cx="732" cy="-99.87" rx="175.23" ry="26.74"/>
<text text-anchor="middle" x="732" y="-103.67" font-family="Helvetica,sans-Serif" font-size="14.00">✓ Modify</text>
<text text-anchor="middle" x="732" y="-88.67" font-family="Helvetica,sans-Serif" font-size="14.00">whitepaper/product_overview.md</text>
</g>
<!-- f4828bb2&#45;649d&#45;4f6b&#45;9eec&#45;0fdb768f8010&#45;&gt;412ddef7&#45;a74b&#45;4a05&#45;ac94&#45;514f3967b1dd -->
<g id="edge2" class="edge">
<title>f4828bb2&#45;649d&#45;4f6b&#45;9eec&#45;0fdb768f8010&#45;&gt;412ddef7&#45;a74b&#45;4a05&#45;ac94&#45;514f3967b1dd</title>
<path fill="none" stroke="black" d="M490.73,-99.87C509.15,-99.87 527.57,-99.87 545.99,-99.87"/>
<polygon fill="black" stroke="black" points="546.23,-103.37 556.23,-99.87 546.23,-96.37 546.23,-103.37"/>
</g>
<!-- d9a7a758&#45;8a54&#45;4e7d&#45;9f4a&#45;236dc0a77870 -->
<g id="node8" class="node">
<title>d9a7a758&#45;8a54&#45;4e7d&#45;9f4a&#45;236dc0a77870</title>
<polygon fill="#0ee832" stroke="black" points="494,-36 0,-36 0,0 494,0 494,-36"/>
<text text-anchor="middle" x="247" y="-14.3" font-family="Helvetica,sans-Serif" font-size="14.00">✓ Run GitHub Actions for `whitepaper/spatial_computing_future.md`</text>
</g>
<!-- f4828bb2&#45;649d&#45;4f6b&#45;9eec&#45;0fdb768f8010&#45;&gt;d9a7a758&#45;8a54&#45;4e7d&#45;9f4a&#45;236dc0a77870 -->
<g id="edge1" class="edge">
<title>f4828bb2&#45;649d&#45;4f6b&#45;9eec&#45;0fdb768f8010&#45;&gt;d9a7a758&#45;8a54&#45;4e7d&#45;9f4a&#45;236dc0a77870</title>
<path fill="none" stroke="black" stroke-dasharray="5,2" d="M267.18,-72.72C263.9,-63.99 260.25,-54.26 256.96,-45.51"/>
<polygon fill="black" stroke="black" points="260.23,-44.28 253.44,-36.15 253.68,-46.74 260.23,-44.28"/>
</g>
<!-- e2e473ce&#45;1ea0&#45;4c3c&#45;938a&#45;0c991230c51a -->
<g id="node5" class="node">
<title>e2e473ce&#45;1ea0&#45;4c3c&#45;938a&#45;0c991230c51a</title>
<ellipse fill="#0ee832" stroke="black" cx="1203" cy="-99.87" rx="190.84" ry="26.74"/>
<text text-anchor="middle" x="1203" y="-103.67" font-family="Helvetica,sans-Serif" font-size="14.00">✓ Modify</text>
<text text-anchor="middle" x="1203" y="-88.67" font-family="Helvetica,sans-Serif" font-size="14.00">whitepaper/competitive_analysis.md</text>
</g>
<!-- 412ddef7&#45;a74b&#45;4a05&#45;ac94&#45;514f3967b1dd&#45;&gt;e2e473ce&#45;1ea0&#45;4c3c&#45;938a&#45;0c991230c51a -->
<g id="edge4" class="edge">
<title>412ddef7&#45;a74b&#45;4a05&#45;ac94&#45;514f3967b1dd&#45;&gt;e2e473ce&#45;1ea0&#45;4c3c&#45;938a&#45;0c991230c51a</title>
<path fill="none" stroke="black" d="M907.71,-99.87C939.02,-99.87 970.33,-99.87 1001.64,-99.87"/>
<polygon fill="black" stroke="black" points="1001.81,-103.37 1011.81,-99.87 1001.81,-96.37 1001.81,-103.37"/>
</g>
<!-- fa527298&#45;03c4&#45;4fe6&#45;89cd&#45;2a1ef380781d -->
<g id="node9" class="node">
<title>fa527298&#45;03c4&#45;4fe6&#45;89cd&#45;2a1ef380781d</title>
<polygon fill="#0ee832" stroke="black" points="952,-36 512,-36 512,0 952,0 952,-36"/>
<text text-anchor="middle" x="732" y="-14.3" font-family="Helvetica,sans-Serif" font-size="14.00">✓ Run GitHub Actions for `whitepaper/product_overview.md`</text>
</g>
<!-- 412ddef7&#45;a74b&#45;4a05&#45;ac94&#45;514f3967b1dd&#45;&gt;fa527298&#45;03c4&#45;4fe6&#45;89cd&#45;2a1ef380781d -->
<g id="edge3" class="edge">
<title>412ddef7&#45;a74b&#45;4a05&#45;ac94&#45;514f3967b1dd&#45;&gt;fa527298&#45;03c4&#45;4fe6&#45;89cd&#45;2a1ef380781d</title>
<path fill="none" stroke="black" stroke-dasharray="5,2" d="M732,-72.72C732,-64.27 732,-54.89 732,-46.36"/>
<polygon fill="black" stroke="black" points="735.5,-46.15 732,-36.15 728.5,-46.15 735.5,-46.15"/>
</g>
<!-- 680e0092&#45;bc18&#45;464b&#45;b848&#45;ae80195147e3 -->
<g id="node6" class="node">
<title>680e0092&#45;bc18&#45;464b&#45;b848&#45;ae80195147e3</title>
<ellipse fill="white" stroke="black" cx="1672" cy="-99.87" rx="173.9" ry="26.74"/>
<text text-anchor="middle" x="1672" y="-103.67" font-family="Helvetica,sans-Serif" font-size="14.00">▶ Modify</text>
<text text-anchor="middle" x="1672" y="-88.67" font-family="Helvetica,sans-Serif" font-size="14.00">whitepaper/technology_stack.md</text>
</g>
<!-- e2e473ce&#45;1ea0&#45;4c3c&#45;938a&#45;0c991230c51a&#45;&gt;680e0092&#45;bc18&#45;464b&#45;b848&#45;ae80195147e3 -->
<g id="edge6" class="edge">
<title>e2e473ce&#45;1ea0&#45;4c3c&#45;938a&#45;0c991230c51a&#45;&gt;680e0092&#45;bc18&#45;464b&#45;b848&#45;ae80195147e3</title>
<path fill="none" stroke="black" d="M1393.99,-99.87C1425.27,-99.87 1456.54,-99.87 1487.82,-99.87"/>
<polygon fill="black" stroke="black" points="1487.97,-103.37 1497.97,-99.87 1487.97,-96.37 1487.97,-103.37"/>
</g>
<!-- 52d40c78&#45;3f98&#45;44e5&#45;bf98&#45;e6e25590848e -->
<g id="node10" class="node">
<title>52d40c78&#45;3f98&#45;44e5&#45;bf98&#45;e6e25590848e</title>
<polygon fill="yellow" stroke="black" points="1435.5,-36 970.5,-36 970.5,0 1435.5,0 1435.5,-36"/>
<text text-anchor="middle" x="1203" y="-14.3" font-family="Helvetica,sans-Serif" font-size="14.00">⋯ Run GitHub Actions for `whitepaper/competitive_analysis.md`</text>
</g>
<!-- e2e473ce&#45;1ea0&#45;4c3c&#45;938a&#45;0c991230c51a&#45;&gt;52d40c78&#45;3f98&#45;44e5&#45;bf98&#45;e6e25590848e -->
<g id="edge5" class="edge">
<title>e2e473ce&#45;1ea0&#45;4c3c&#45;938a&#45;0c991230c51a&#45;&gt;52d40c78&#45;3f98&#45;44e5&#45;bf98&#45;e6e25590848e</title>
<path fill="none" stroke="black" stroke-dasharray="5,2" d="M1203,-72.72C1203,-64.27 1203,-54.89 1203,-46.36"/>
<polygon fill="black" stroke="black" points="1206.5,-46.15 1203,-36.15 1199.5,-46.15 1206.5,-46.15"/>
</g>
<!-- c07dd0dd&#45;76ee&#45;4085&#45;bc5a&#45;be93df4f6a4c -->
<g id="node7" class="node">
<title>c07dd0dd&#45;76ee&#45;4085&#45;bc5a&#45;be93df4f6a4c</title>
<ellipse fill="white" stroke="black" cx="2114" cy="-99.87" rx="200.22" ry="26.74"/>
<text text-anchor="middle" x="2114" y="-103.67" font-family="Helvetica,sans-Serif" font-size="14.00">▶ Modify</text>
<text text-anchor="middle" x="2114" y="-88.67" font-family="Helvetica,sans-Serif" font-size="14.00">whitepaper/blockchain_integration.md</text>
</g>
<!-- 680e0092&#45;bc18&#45;464b&#45;b848&#45;ae80195147e3&#45;&gt;c07dd0dd&#45;76ee&#45;4085&#45;bc5a&#45;be93df4f6a4c -->
<g id="edge8" class="edge">
<title>680e0092&#45;bc18&#45;464b&#45;b848&#45;ae80195147e3&#45;&gt;c07dd0dd&#45;76ee&#45;4085&#45;bc5a&#45;be93df4f6a4c</title>
<path fill="none" stroke="black" d="M1845.95,-99.87C1865.2,-99.87 1884.44,-99.87 1903.68,-99.87"/>
<polygon fill="black" stroke="black" points="1903.75,-103.37 1913.75,-99.87 1903.75,-96.37 1903.75,-103.37"/>
</g>
<!-- f7489c67&#45;c1ce&#45;48a6&#45;be6d&#45;0e1e8a0d094a -->
<g id="node11" class="node">
<title>f7489c67&#45;c1ce&#45;48a6&#45;be6d&#45;0e1e8a0d094a</title>
<polygon fill="white" stroke="black" points="1890.5,-36 1453.5,-36 1453.5,0 1890.5,0 1890.5,-36"/>
<text text-anchor="middle" x="1672" y="-14.3" font-family="Helvetica,sans-Serif" font-size="14.00">▶ Run GitHub Actions for `whitepaper/technology_stack.md`</text>
</g>
<!-- 680e0092&#45;bc18&#45;464b&#45;b848&#45;ae80195147e3&#45;&gt;f7489c67&#45;c1ce&#45;48a6&#45;be6d&#45;0e1e8a0d094a -->
<g id="edge7" class="edge">
<title>680e0092&#45;bc18&#45;464b&#45;b848&#45;ae80195147e3&#45;&gt;f7489c67&#45;c1ce&#45;48a6&#45;be6d&#45;0e1e8a0d094a</title>
<path fill="none" stroke="black" stroke-dasharray="5,2" d="M1672,-72.72C1672,-64.27 1672,-54.89 1672,-46.36"/>
<polygon fill="black" stroke="black" points="1675.5,-46.15 1672,-36.15 1668.5,-46.15 1675.5,-46.15"/>
</g>
<!-- c07dd0dd&#45;76ee&#45;4085&#45;bc5a&#45;be93df4f6a4c&#45;&gt;end -->
<g id="edge11" class="edge">
<title>c07dd0dd&#45;76ee&#45;4085&#45;bc5a&#45;be93df4f6a4c&#45;&gt;end</title>
<path fill="none" stroke="black" d="M2314.42,-99.87C2334.33,-99.87 2350.92,-99.87 2361.1,-99.87"/>
<polygon fill="black" stroke="black" points="2361.38,-103.37 2371.38,-99.87 2361.38,-96.37 2361.38,-103.37"/>
<text text-anchor="middle" x="2342.81" y="-106.67" font-family="Helvetica,sans-Serif" font-size="14.00">Finish</text>
</g>
<!-- f6a320bc&#45;d6e0&#45;4ef0&#45;acdd&#45;e3170236d1d7 -->
<g id="node12" class="node">
<title>f6a320bc&#45;d6e0&#45;4ef0&#45;acdd&#45;e3170236d1d7</title>
<polygon fill="white" stroke="black" points="2383,-36 1909,-36 1909,0 2383,0 2383,-36"/>
<text text-anchor="middle" x="2146" y="-14.3" font-family="Helvetica,sans-Serif" font-size="14.00">▶ Run GitHub Actions for `whitepaper/blockchain_integration.md`</text>
</g>
<!-- c07dd0dd&#45;76ee&#45;4085&#45;bc5a&#45;be93df4f6a4c&#45;&gt;f6a320bc&#45;d6e0&#45;4ef0&#45;acdd&#45;e3170236d1d7 -->
<g id="edge9" class="edge">
<title>c07dd0dd&#45;76ee&#45;4085&#45;bc5a&#45;be93df4f6a4c&#45;&gt;f6a320bc&#45;d6e0&#45;4ef0&#45;acdd&#45;e3170236d1d7</title>
<path fill="none" stroke="black" stroke-dasharray="5,2" d="M2124.48,-72.72C2127.97,-63.99 2131.87,-54.26 2135.38,-45.51"/>
<polygon fill="black" stroke="black" points="2138.66,-46.73 2139.13,-36.15 2132.16,-44.13 2138.66,-46.73"/>
</g>
</g>
</svg>
