<?xml version="1.0" encoding="UTF-8" standalone="no"?>
<!DOCTYPE svg PUBLIC "-//W3C//DTD SVG 1.1//EN"
 "http://www.w3.org/Graphics/SVG/1.1/DTD/svg11.dtd">
<!-- Generated by graphviz version 2.43.0 (0)
 -->
<!-- Title: %3 Pages: 1 -->
<svg width="1788pt" height="238pt"
 viewBox="0.00 0.00 1787.50 237.74" xmlns="http://www.w3.org/2000/svg" xmlns:xlink="http://www.w3.org/1999/xlink">
<g id="graph0" class="graph" transform="scale(1 1) rotate(0) translate(36 201.74)">
<title>%3</title>
<polygon fill="dimgray" stroke="transparent" points="-36,36 -36,-201.74 1751.5,-201.74 1751.5,36 -36,36"/>
<text text-anchor="middle" x="857.75" y="-150.54" font-family="Helvetica,sans-Serif" font-size="14.00">Sweep&#39;s Plan &amp; Progress</text>
<!-- start -->
<g id="node1" class="node">
<title>start</title>
</g>
<!-- 6d347dbf&#45;f2b2&#45;4abc&#45;9b2f&#45;f1522ecbdc43 -->
<g id="node3" class="node">
<title>6d347dbf&#45;f2b2&#45;4abc&#45;9b2f&#45;f1522ecbdc43</title>
<ellipse fill="#0ee832" stroke="black" cx="241" cy="-99.87" rx="145.83" ry="26.74"/>
<text text-anchor="middle" x="241" y="-103.67" font-family="Helvetica,sans-Serif" font-size="14.00">✓ Modify</text>
<text text-anchor="middle" x="241" y="-88.67" font-family="Helvetica,sans-Serif" font-size="14.00">whitepaper/cover_page.md</text>
</g>
<!-- start&#45;&gt;6d347dbf&#45;f2b2&#45;4abc&#45;9b2f&#45;f1522ecbdc43 -->
<g id="edge8" class="edge">
<title>start&#45;&gt;6d347dbf&#45;f2b2&#45;4abc&#45;9b2f&#45;f1522ecbdc43</title>
<path fill="none" stroke="black" d="M43.57,-99.87C46.76,-99.87 63.1,-99.87 85.13,-99.87"/>
<polygon fill="black" stroke="black" points="85.26,-103.37 95.26,-99.87 85.26,-96.37 85.26,-103.37"/>
<text text-anchor="middle" x="69.42" y="-106.67" font-family="Helvetica,sans-Serif" font-size="14.00">Start</text>
</g>
<!-- end -->
<g id="node2" class="node">
<title>end</title>
</g>
<!-- 1ad1b8ef&#45;b41d&#45;4802&#45;a41c&#45;70209d545b76 -->
<g id="node4" class="node">
<title>1ad1b8ef&#45;b41d&#45;4802&#45;a41c&#45;70209d545b76</title>
<ellipse fill="#0ee832" stroke="black" cx="629" cy="-99.87" rx="164.1" ry="26.74"/>
<text text-anchor="middle" x="629" y="-103.67" font-family="Helvetica,sans-Serif" font-size="14.00">✓ Modify</text>
<text text-anchor="middle" x="629" y="-88.67" font-family="Helvetica,sans-Serif" font-size="14.00">whitepaper/advisory_board.md</text>
</g>
<!-- 6d347dbf&#45;f2b2&#45;4abc&#45;9b2f&#45;f1522ecbdc43&#45;&gt;1ad1b8ef&#45;b41d&#45;4802&#45;a41c&#45;70209d545b76 -->
<g id="edge2" class="edge">
<title>6d347dbf&#45;f2b2&#45;4abc&#45;9b2f&#45;f1522ecbdc43&#45;&gt;1ad1b8ef&#45;b41d&#45;4802&#45;a41c&#45;70209d545b76</title>
<path fill="none" stroke="black" d="M386.88,-99.87C409.54,-99.87 432.19,-99.87 454.85,-99.87"/>
<polygon fill="black" stroke="black" points="454.91,-103.37 464.91,-99.87 454.91,-96.37 454.91,-103.37"/>
</g>
<!-- 8c2164af&#45;eecf&#45;404f&#45;ad95&#45;e07f45a3e6e8 -->
<g id="node7" class="node">
<title>8c2164af&#45;eecf&#45;404f&#45;ad95&#45;e07f45a3e6e8</title>
<polygon fill="#0ee832" stroke="black" points="398,-36 0,-36 0,0 398,0 398,-36"/>
<text text-anchor="middle" x="199" y="-14.3" font-family="Helvetica,sans-Serif" font-size="14.00">✓ Run GitHub Actions for `whitepaper/cover_page.md`</text>
</g>
<!-- 6d347dbf&#45;f2b2&#45;4abc&#45;9b2f&#45;f1522ecbdc43&#45;&gt;8c2164af&#45;eecf&#45;404f&#45;ad95&#45;e07f45a3e6e8 -->
<g id="edge1" class="edge">
<title>6d347dbf&#45;f2b2&#45;4abc&#45;9b2f&#45;f1522ecbdc43&#45;&gt;8c2164af&#45;eecf&#45;404f&#45;ad95&#45;e07f45a3e6e8</title>
<path fill="none" stroke="black" stroke-dasharray="5,2" d="M227.25,-72.72C222.61,-63.9 217.43,-54.05 212.79,-45.23"/>
<polygon fill="black" stroke="black" points="215.77,-43.37 208.02,-36.15 209.57,-46.63 215.77,-43.37"/>
</g>
<!-- 7c7c38d4&#45;d69d&#45;45c6&#45;ba11&#45;ba9151c40e3e -->
<g id="node5" class="node">
<title>7c7c38d4&#45;d69d&#45;45c6&#45;ba11&#45;ba9151c40e3e</title>
<ellipse fill="#0ee832" stroke="black" cx="1059" cy="-99.87" rx="145.83" ry="26.74"/>
<text text-anchor="middle" x="1059" y="-103.67" font-family="Helvetica,sans-Serif" font-size="14.00">✓ Modify</text>
<text text-anchor="middle" x="1059" y="-88.67" font-family="Helvetica,sans-Serif" font-size="14.00">whitepaper/appendices.md</text>
</g>
<!-- 1ad1b8ef&#45;b41d&#45;4802&#45;a41c&#45;70209d545b76&#45;&gt;7c7c38d4&#45;d69d&#45;45c6&#45;ba11&#45;ba9151c40e3e -->
<g id="edge4" class="edge">
<title>1ad1b8ef&#45;b41d&#45;4802&#45;a41c&#45;70209d545b76&#45;&gt;7c7c38d4&#45;d69d&#45;45c6&#45;ba11&#45;ba9151c40e3e</title>
<path fill="none" stroke="black" d="M793.19,-99.87C829.73,-99.87 866.27,-99.87 902.81,-99.87"/>
<polygon fill="black" stroke="black" points="903.12,-103.37 913.12,-99.87 903.12,-96.37 903.12,-103.37"/>
</g>
<!-- 2434a458&#45;6b8d&#45;40a6&#45;887b&#45;147267b9ed3a -->
<g id="node8" class="node">
<title>2434a458&#45;6b8d&#45;40a6&#45;887b&#45;147267b9ed3a</title>
<polygon fill="#0ee832" stroke="black" points="841.5,-36 416.5,-36 416.5,0 841.5,0 841.5,-36"/>
<text text-anchor="middle" x="629" y="-14.3" font-family="Helvetica,sans-Serif" font-size="14.00">✓ Run GitHub Actions for `whitepaper/advisory_board.md`</text>
</g>
<!-- 1ad1b8ef&#45;b41d&#45;4802&#45;a41c&#45;70209d545b76&#45;&gt;2434a458&#45;6b8d&#45;40a6&#45;887b&#45;147267b9ed3a -->
<g id="edge3" class="edge">
<title>1ad1b8ef&#45;b41d&#45;4802&#45;a41c&#45;70209d545b76&#45;&gt;2434a458&#45;6b8d&#45;40a6&#45;887b&#45;147267b9ed3a</title>
<path fill="none" stroke="black" stroke-dasharray="5,2" d="M629,-72.72C629,-64.27 629,-54.89 629,-46.36"/>
<polygon fill="black" stroke="black" points="632.5,-46.15 629,-36.15 625.5,-46.15 632.5,-46.15"/>
</g>
<!-- 4076fa9c&#45;059a&#45;4913&#45;bf69&#45;b17152df5114 -->
<g id="node6" class="node">
<title>4076fa9c&#45;059a&#45;4913&#45;bf69&#45;b17152df5114</title>
<ellipse fill="white" stroke="black" cx="1456" cy="-99.87" rx="175.23" ry="26.74"/>
<text text-anchor="middle" x="1456" y="-103.67" font-family="Helvetica,sans-Serif" font-size="14.00">▶ Modify</text>
<text text-anchor="middle" x="1456" y="-88.67" font-family="Helvetica,sans-Serif" font-size="14.00">whitepaper/product_overview.md</text>
</g>
<!-- 7c7c38d4&#45;d69d&#45;45c6&#45;ba11&#45;ba9151c40e3e&#45;&gt;4076fa9c&#45;059a&#45;4913&#45;bf69&#45;b17152df5114 -->
<g id="edge6" class="edge">
<title>7c7c38d4&#45;d69d&#45;45c6&#45;ba11&#45;ba9151c40e3e&#45;&gt;4076fa9c&#45;059a&#45;4913&#45;bf69&#45;b17152df5114</title>
<path fill="none" stroke="black" d="M1204.77,-99.87C1226.62,-99.87 1248.46,-99.87 1270.3,-99.87"/>
<polygon fill="black" stroke="black" points="1270.34,-103.37 1280.34,-99.87 1270.34,-96.37 1270.34,-103.37"/>
</g>
<!-- ed2b7722&#45;b535&#45;4528&#45;b53a&#45;93158b5c155b -->
<g id="node9" class="node">
<title>ed2b7722&#45;b535&#45;4528&#45;b53a&#45;93158b5c155b</title>
<polygon fill="#0ee832" stroke="black" points="1258,-36 860,-36 860,0 1258,0 1258,-36"/>
<text text-anchor="middle" x="1059" y="-14.3" font-family="Helvetica,sans-Serif" font-size="14.00">✓ Run GitHub Actions for `whitepaper/appendices.md`</text>
</g>
<!-- 7c7c38d4&#45;d69d&#45;45c6&#45;ba11&#45;ba9151c40e3e&#45;&gt;ed2b7722&#45;b535&#45;4528&#45;b53a&#45;93158b5c155b -->
<g id="edge5" class="edge">
<title>7c7c38d4&#45;d69d&#45;45c6&#45;ba11&#45;ba9151c40e3e&#45;&gt;ed2b7722&#45;b535&#45;4528&#45;b53a&#45;93158b5c155b</title>
<path fill="none" stroke="black" stroke-dasharray="5,2" d="M1059,-72.72C1059,-64.27 1059,-54.89 1059,-46.36"/>
<polygon fill="black" stroke="black" points="1062.5,-46.15 1059,-36.15 1055.5,-46.15 1062.5,-46.15"/>
</g>
<!-- 4076fa9c&#45;059a&#45;4913&#45;bf69&#45;b17152df5114&#45;&gt;end -->
<g id="edge9" class="edge">
<title>4076fa9c&#45;059a&#45;4913&#45;bf69&#45;b17152df5114&#45;&gt;end</title>
<path fill="none" stroke="black" d="M1631.4,-99.87C1651.33,-99.87 1668.13,-99.87 1678.35,-99.87"/>
<polygon fill="black" stroke="black" points="1678.37,-103.37 1688.37,-99.87 1678.37,-96.37 1678.37,-103.37"/>
<text text-anchor="middle" x="1659.93" y="-106.67" font-family="Helvetica,sans-Serif" font-size="14.00">Finish</text>
</g>
<!-- dc2c1290&#45;e248&#45;4914&#45;897b&#45;96999701a73e -->
<g id="node10" class="node">
<title>dc2c1290&#45;e248&#45;4914&#45;897b&#45;96999701a73e</title>
<polygon fill="white" stroke="black" points="1715.5,-36 1276.5,-36 1276.5,0 1715.5,0 1715.5,-36"/>
<text text-anchor="middle" x="1496" y="-14.3" font-family="Helvetica,sans-Serif" font-size="14.00">▶ Run GitHub Actions for `whitepaper/product_overview.md`</text>
</g>
<!-- 4076fa9c&#45;059a&#45;4913&#45;bf69&#45;b17152df5114&#45;&gt;dc2c1290&#45;e248&#45;4914&#45;897b&#45;96999701a73e -->
<g id="edge7" class="edge">
<title>4076fa9c&#45;059a&#45;4913&#45;bf69&#45;b17152df5114&#45;&gt;dc2c1290&#45;e248&#45;4914&#45;897b&#45;96999701a73e</title>
<path fill="none" stroke="black" stroke-dasharray="5,2" d="M1469.1,-72.72C1473.51,-63.9 1478.44,-54.05 1482.86,-45.23"/>
<polygon fill="black" stroke="black" points="1486.06,-46.66 1487.41,-36.15 1479.81,-43.52 1486.06,-46.66"/>
</g>
</g>
</svg>
