<?xml version="1.0" encoding="UTF-8" standalone="no"?>
<!DOCTYPE svg PUBLIC "-//W3C//DTD SVG 1.1//EN"
 "http://www.w3.org/Graphics/SVG/1.1/DTD/svg11.dtd">
<!-- Generated by graphviz version 2.43.0 (0)
 -->
<!-- Title: %3 Pages: 1 -->
<svg width="1788pt" height="238pt"
 viewBox="0.00 0.00 1787.50 237.74" xmlns="http://www.w3.org/2000/svg" xmlns:xlink="http://www.w3.org/1999/xlink">
<g id="graph0" class="graph" transform="scale(1 1) rotate(0) translate(36 201.74)">
<title>%3</title>
<polygon fill="dimgray" stroke="transparent" points="-36,36 -36,-201.74 1751.5,-201.74 1751.5,36 -36,36"/>
<text text-anchor="middle" x="857.75" y="-150.54" font-family="Helvetica,sans-Serif" font-size="14.00">Sweep&#39;s Plan &amp; Progress</text>
<!-- start -->
<g id="node1" class="node">
<title>start</title>
</g>
<!-- 6d347dbf&#45;f2b2&#45;4abc&#45;9b2f&#45;f1522ecbdc43 -->
<g id="node3" class="node">
<title>6d347dbf&#45;f2b2&#45;4abc&#45;9b2f&#45;f1522ecbdc43</title>
<ellipse fill="#0ee832" stroke="black" cx="242" cy="-99.87" rx="145.83" ry="26.74"/>
<text text-anchor="middle" x="242" y="-103.67" font-family="Helvetica,sans-Serif" font-size="14.00">✓ Modify</text>
<text text-anchor="middle" x="242" y="-88.67" font-family="Helvetica,sans-Serif" font-size="14.00">whitepaper/cover_page.md</text>
</g>
<!-- start&#45;&gt;6d347dbf&#45;f2b2&#45;4abc&#45;9b2f&#45;f1522ecbdc43 -->
<g id="edge8" class="edge">
<title>start&#45;&gt;6d347dbf&#45;f2b2&#45;4abc&#45;9b2f&#45;f1522ecbdc43</title>
<path fill="none" stroke="black" d="M44.57,-99.87C47.76,-99.87 64.1,-99.87 86.13,-99.87"/>
<polygon fill="black" stroke="black" points="86.26,-103.37 96.26,-99.87 86.26,-96.37 86.26,-103.37"/>
<text text-anchor="middle" x="70.42" y="-106.67" font-family="Helvetica,sans-Serif" font-size="14.00">Start</text>
</g>
<!-- end -->
<g id="node2" class="node">
<title>end</title>
</g>
<!-- 1ad1b8ef&#45;b41d&#45;4802&#45;a41c&#45;70209d545b76 -->
<g id="node4" class="node">
<title>1ad1b8ef&#45;b41d&#45;4802&#45;a41c&#45;70209d545b76</title>
<ellipse fill="#0ee832" stroke="black" cx="630" cy="-99.87" rx="164.1" ry="26.74"/>
<text text-anchor="middle" x="630" y="-103.67" font-family="Helvetica,sans-Serif" font-size="14.00">✓ Modify</text>
<text text-anchor="middle" x="630" y="-88.67" font-family="Helvetica,sans-Serif" font-size="14.00">whitepaper/advisory_board.md</text>
</g>
<!-- 6d347dbf&#45;f2b2&#45;4abc&#45;9b2f&#45;f1522ecbdc43&#45;&gt;1ad1b8ef&#45;b41d&#45;4802&#45;a41c&#45;70209d545b76 -->
<g id="edge2" class="edge">
<title>6d347dbf&#45;f2b2&#45;4abc&#45;9b2f&#45;f1522ecbdc43&#45;&gt;1ad1b8ef&#45;b41d&#45;4802&#45;a41c&#45;70209d545b76</title>
<path fill="none" stroke="black" d="M387.88,-99.87C410.54,-99.87 433.19,-99.87 455.85,-99.87"/>
<polygon fill="black" stroke="black" points="455.91,-103.37 465.91,-99.87 455.91,-96.37 455.91,-103.37"/>
</g>
<!-- 8c2164af&#45;eecf&#45;404f&#45;ad95&#45;e07f45a3e6e8 -->
<g id="node7" class="node">
<title>8c2164af&#45;eecf&#45;404f&#45;ad95&#45;e07f45a3e6e8</title>
<polygon fill="#0ee832" stroke="black" points="398,-36 0,-36 0,0 398,0 398,-36"/>
<text text-anchor="middle" x="199" y="-14.3" font-family="Helvetica,sans-Serif" font-size="14.00">✓ Run GitHub Actions for `whitepaper/cover_page.md`</text>
</g>
<!-- 6d347dbf&#45;f2b2&#45;4abc&#45;9b2f&#45;f1522ecbdc43&#45;&gt;8c2164af&#45;eecf&#45;404f&#45;ad95&#45;e07f45a3e6e8 -->
<g id="edge1" class="edge">
<title>6d347dbf&#45;f2b2&#45;4abc&#45;9b2f&#45;f1522ecbdc43&#45;&gt;8c2164af&#45;eecf&#45;404f&#45;ad95&#45;e07f45a3e6e8</title>
<path fill="none" stroke="black" stroke-dasharray="5,2" d="M227.92,-72.72C223.17,-63.9 217.87,-54.05 213.12,-45.23"/>
<polygon fill="black" stroke="black" points="216.05,-43.29 208.23,-36.15 209.89,-46.61 216.05,-43.29"/>
</g>
<!-- 7c7c38d4&#45;d69d&#45;45c6&#45;ba11&#45;ba9151c40e3e -->
<g id="node5" class="node">
<title>7c7c38d4&#45;d69d&#45;45c6&#45;ba11&#45;ba9151c40e3e</title>
<ellipse fill="white" stroke="black" cx="1060" cy="-99.87" rx="145.83" ry="26.74"/>
<text text-anchor="middle" x="1060" y="-103.67" font-family="Helvetica,sans-Serif" font-size="14.00">▶ Modify</text>
<text text-anchor="middle" x="1060" y="-88.67" font-family="Helvetica,sans-Serif" font-size="14.00">whitepaper/appendices.md</text>
</g>
<!-- 1ad1b8ef&#45;b41d&#45;4802&#45;a41c&#45;70209d545b76&#45;&gt;7c7c38d4&#45;d69d&#45;45c6&#45;ba11&#45;ba9151c40e3e -->
<g id="edge4" class="edge">
<title>1ad1b8ef&#45;b41d&#45;4802&#45;a41c&#45;70209d545b76&#45;&gt;7c7c38d4&#45;d69d&#45;45c6&#45;ba11&#45;ba9151c40e3e</title>
<path fill="none" stroke="black" d="M794.19,-99.87C830.73,-99.87 867.27,-99.87 903.81,-99.87"/>
<polygon fill="black" stroke="black" points="904.12,-103.37 914.12,-99.87 904.12,-96.37 904.12,-103.37"/>
</g>
<!-- 2434a458&#45;6b8d&#45;40a6&#45;887b&#45;147267b9ed3a -->
<g id="node8" class="node">
<title>2434a458&#45;6b8d&#45;40a6&#45;887b&#45;147267b9ed3a</title>
<polygon fill="yellow" stroke="black" points="843.5,-36 416.5,-36 416.5,0 843.5,0 843.5,-36"/>
<text text-anchor="middle" x="630" y="-14.3" font-family="Helvetica,sans-Serif" font-size="14.00">⋯ Run GitHub Actions for `whitepaper/advisory_board.md`</text>
</g>
<!-- 1ad1b8ef&#45;b41d&#45;4802&#45;a41c&#45;70209d545b76&#45;&gt;2434a458&#45;6b8d&#45;40a6&#45;887b&#45;147267b9ed3a -->
<g id="edge3" class="edge">
<title>1ad1b8ef&#45;b41d&#45;4802&#45;a41c&#45;70209d545b76&#45;&gt;2434a458&#45;6b8d&#45;40a6&#45;887b&#45;147267b9ed3a</title>
<path fill="none" stroke="black" stroke-dasharray="5,2" d="M630,-72.72C630,-64.27 630,-54.89 630,-46.36"/>
<polygon fill="black" stroke="black" points="633.5,-46.15 630,-36.15 626.5,-46.15 633.5,-46.15"/>
</g>
<!-- 4076fa9c&#45;059a&#45;4913&#45;bf69&#45;b17152df5114 -->
<g id="node6" class="node">
<title>4076fa9c&#45;059a&#45;4913&#45;bf69&#45;b17152df5114</title>
<ellipse fill="white" stroke="black" cx="1457" cy="-99.87" rx="175.23" ry="26.74"/>
<text text-anchor="middle" x="1457" y="-103.67" font-family="Helvetica,sans-Serif" font-size="14.00">▶ Modify</text>
<text text-anchor="middle" x="1457" y="-88.67" font-family="Helvetica,sans-Serif" font-size="14.00">whitepaper/product_overview.md</text>
</g>
<!-- 7c7c38d4&#45;d69d&#45;45c6&#45;ba11&#45;ba9151c40e3e&#45;&gt;4076fa9c&#45;059a&#45;4913&#45;bf69&#45;b17152df5114 -->
<g id="edge6" class="edge">
<title>7c7c38d4&#45;d69d&#45;45c6&#45;ba11&#45;ba9151c40e3e&#45;&gt;4076fa9c&#45;059a&#45;4913&#45;bf69&#45;b17152df5114</title>
<path fill="none" stroke="black" d="M1205.77,-99.87C1227.62,-99.87 1249.46,-99.87 1271.3,-99.87"/>
<polygon fill="black" stroke="black" points="1271.34,-103.37 1281.34,-99.87 1271.34,-96.37 1271.34,-103.37"/>
</g>
<!-- ed2b7722&#45;b535&#45;4528&#45;b53a&#45;93158b5c155b -->
<g id="node9" class="node">
<title>ed2b7722&#45;b535&#45;4528&#45;b53a&#45;93158b5c155b</title>
<polygon fill="white" stroke="black" points="1258.5,-36 861.5,-36 861.5,0 1258.5,0 1258.5,-36"/>
<text text-anchor="middle" x="1060" y="-14.3" font-family="Helvetica,sans-Serif" font-size="14.00">▶ Run GitHub Actions for `whitepaper/appendices.md`</text>
</g>
<!-- 7c7c38d4&#45;d69d&#45;45c6&#45;ba11&#45;ba9151c40e3e&#45;&gt;ed2b7722&#45;b535&#45;4528&#45;b53a&#45;93158b5c155b -->
<g id="edge5" class="edge">
<title>7c7c38d4&#45;d69d&#45;45c6&#45;ba11&#45;ba9151c40e3e&#45;&gt;ed2b7722&#45;b535&#45;4528&#45;b53a&#45;93158b5c155b</title>
<path fill="none" stroke="black" stroke-dasharray="5,2" d="M1060,-72.72C1060,-64.27 1060,-54.89 1060,-46.36"/>
<polygon fill="black" stroke="black" points="1063.5,-46.15 1060,-36.15 1056.5,-46.15 1063.5,-46.15"/>
</g>
<!-- 4076fa9c&#45;059a&#45;4913&#45;bf69&#45;b17152df5114&#45;&gt;end -->
<g id="edge9" class="edge">
<title>4076fa9c&#45;059a&#45;4913&#45;bf69&#45;b17152df5114&#45;&gt;end</title>
<path fill="none" stroke="black" d="M1632.4,-99.87C1652.33,-99.87 1669.13,-99.87 1679.35,-99.87"/>
<polygon fill="black" stroke="black" points="1679.37,-103.37 1689.37,-99.87 1679.37,-96.37 1679.37,-103.37"/>
<text text-anchor="middle" x="1660.93" y="-106.67" font-family="Helvetica,sans-Serif" font-size="14.00">Finish</text>
</g>
<!-- dc2c1290&#45;e248&#45;4914&#45;897b&#45;96999701a73e -->
<g id="node10" class="node">
<title>dc2c1290&#45;e248&#45;4914&#45;897b&#45;96999701a73e</title>
<polygon fill="white" stroke="black" points="1715.5,-36 1276.5,-36 1276.5,0 1715.5,0 1715.5,-36"/>
<text text-anchor="middle" x="1496" y="-14.3" font-family="Helvetica,sans-Serif" font-size="14.00">▶ Run GitHub Actions for `whitepaper/product_overview.md`</text>
</g>
<!-- 4076fa9c&#45;059a&#45;4913&#45;bf69&#45;b17152df5114&#45;&gt;dc2c1290&#45;e248&#45;4914&#45;897b&#45;96999701a73e -->
<g id="edge7" class="edge">
<title>4076fa9c&#45;059a&#45;4913&#45;bf69&#45;b17152df5114&#45;&gt;dc2c1290&#45;e248&#45;4914&#45;897b&#45;96999701a73e</title>
<path fill="none" stroke="black" stroke-dasharray="5,2" d="M1469.77,-72.72C1474.08,-63.9 1478.88,-54.05 1483.19,-45.23"/>
<polygon fill="black" stroke="black" points="1486.38,-46.67 1487.63,-36.15 1480.09,-43.6 1486.38,-46.67"/>
</g>
</g>
</svg>
