<?xml version="1.0" encoding="UTF-8" standalone="no"?>
<!DOCTYPE svg PUBLIC "-//W3C//DTD SVG 1.1//EN"
 "http://www.w3.org/Graphics/SVG/1.1/DTD/svg11.dtd">
<!-- Generated by graphviz version 2.43.0 (0)
 -->
<!-- Title: %3 Pages: 1 -->
<svg width="1785pt" height="238pt"
 viewBox="0.00 0.00 1784.50 237.74" xmlns="http://www.w3.org/2000/svg" xmlns:xlink="http://www.w3.org/1999/xlink">
<g id="graph0" class="graph" transform="scale(1 1) rotate(0) translate(36 201.74)">
<title>%3</title>
<polygon fill="dimgray" stroke="transparent" points="-36,36 -36,-201.74 1748.5,-201.74 1748.5,36 -36,36"/>
<text text-anchor="middle" x="856.25" y="-150.54" font-family="Helvetica,sans-Serif" font-size="14.00">Sweep&#39;s Plan &amp; Progress</text>
<!-- start -->
<g id="node1" class="node">
<title>start</title>
</g>
<!-- 73118fb4&#45;2c4b&#45;415a&#45;a6de&#45;e2471d227bd4 -->
<g id="node3" class="node">
<title>73118fb4&#45;2c4b&#45;415a&#45;a6de&#45;e2471d227bd4</title>
<ellipse fill="#0ee832" stroke="black" cx="239" cy="-99.87" rx="145.83" ry="26.74"/>
<text text-anchor="middle" x="239" y="-103.67" font-family="Helvetica,sans-Serif" font-size="14.00">✓ Modify</text>
<text text-anchor="middle" x="239" y="-88.67" font-family="Helvetica,sans-Serif" font-size="14.00">whitepaper/cover_page.md</text>
</g>
<!-- start&#45;&gt;73118fb4&#45;2c4b&#45;415a&#45;a6de&#45;e2471d227bd4 -->
<g id="edge8" class="edge">
<title>start&#45;&gt;73118fb4&#45;2c4b&#45;415a&#45;a6de&#45;e2471d227bd4</title>
<path fill="none" stroke="black" d="M41.57,-99.87C44.76,-99.87 61.1,-99.87 83.13,-99.87"/>
<polygon fill="black" stroke="black" points="83.26,-103.37 93.26,-99.87 83.26,-96.37 83.26,-103.37"/>
<text text-anchor="middle" x="67.42" y="-106.67" font-family="Helvetica,sans-Serif" font-size="14.00">Start</text>
</g>
<!-- end -->
<g id="node2" class="node">
<title>end</title>
</g>
<!-- 3845f70a&#45;39a0&#45;4765&#45;9c23&#45;72186e3dddbd -->
<g id="node4" class="node">
<title>3845f70a&#45;39a0&#45;4765&#45;9c23&#45;72186e3dddbd</title>
<ellipse fill="#0ee832" stroke="black" cx="636" cy="-99.87" rx="175.23" ry="26.74"/>
<text text-anchor="middle" x="636" y="-103.67" font-family="Helvetica,sans-Serif" font-size="14.00">✓ Modify</text>
<text text-anchor="middle" x="636" y="-88.67" font-family="Helvetica,sans-Serif" font-size="14.00">whitepaper/product_overview.md</text>
</g>
<!-- 73118fb4&#45;2c4b&#45;415a&#45;a6de&#45;e2471d227bd4&#45;&gt;3845f70a&#45;39a0&#45;4765&#45;9c23&#45;72186e3dddbd -->
<g id="edge2" class="edge">
<title>73118fb4&#45;2c4b&#45;415a&#45;a6de&#45;e2471d227bd4&#45;&gt;3845f70a&#45;39a0&#45;4765&#45;9c23&#45;72186e3dddbd</title>
<path fill="none" stroke="black" d="M384.77,-99.87C406.62,-99.87 428.46,-99.87 450.3,-99.87"/>
<polygon fill="black" stroke="black" points="450.34,-103.37 460.34,-99.87 450.34,-96.37 450.34,-103.37"/>
</g>
<!-- e08ce826&#45;f3b4&#45;44c1&#45;9a60&#45;8cb01757bc25 -->
<g id="node7" class="node">
<title>e08ce826&#45;f3b4&#45;44c1&#45;9a60&#45;8cb01757bc25</title>
<polygon fill="#0ee832" stroke="black" points="398,-36 0,-36 0,0 398,0 398,-36"/>
<text text-anchor="middle" x="199" y="-14.3" font-family="Helvetica,sans-Serif" font-size="14.00">✓ Run GitHub Actions for `whitepaper/cover_page.md`</text>
</g>
<!-- 73118fb4&#45;2c4b&#45;415a&#45;a6de&#45;e2471d227bd4&#45;&gt;e08ce826&#45;f3b4&#45;44c1&#45;9a60&#45;8cb01757bc25 -->
<g id="edge1" class="edge">
<title>73118fb4&#45;2c4b&#45;415a&#45;a6de&#45;e2471d227bd4&#45;&gt;e08ce826&#45;f3b4&#45;44c1&#45;9a60&#45;8cb01757bc25</title>
<path fill="none" stroke="black" stroke-dasharray="5,2" d="M225.9,-72.72C221.49,-63.9 216.56,-54.05 212.14,-45.23"/>
<polygon fill="black" stroke="black" points="215.19,-43.52 207.59,-36.15 208.94,-46.66 215.19,-43.52"/>
</g>
<!-- a9809620&#45;bc67&#45;47c6&#45;bc52&#45;64414e521935 -->
<g id="node5" class="node">
<title>a9809620&#45;bc67&#45;47c6&#45;bc52&#45;64414e521935</title>
<ellipse fill="white" stroke="black" cx="1086" cy="-99.87" rx="164.1" ry="26.74"/>
<text text-anchor="middle" x="1086" y="-103.67" font-family="Helvetica,sans-Serif" font-size="14.00">▶ Modify</text>
<text text-anchor="middle" x="1086" y="-88.67" font-family="Helvetica,sans-Serif" font-size="14.00">whitepaper/advisory_board.md</text>
</g>
<!-- 3845f70a&#45;39a0&#45;4765&#45;9c23&#45;72186e3dddbd&#45;&gt;a9809620&#45;bc67&#45;47c6&#45;bc52&#45;64414e521935 -->
<g id="edge4" class="edge">
<title>3845f70a&#45;39a0&#45;4765&#45;9c23&#45;72186e3dddbd&#45;&gt;a9809620&#45;bc67&#45;47c6&#45;bc52&#45;64414e521935</title>
<path fill="none" stroke="black" d="M811.78,-99.87C845.03,-99.87 878.28,-99.87 911.53,-99.87"/>
<polygon fill="black" stroke="black" points="911.84,-103.37 921.84,-99.87 911.84,-96.37 911.84,-103.37"/>
</g>
<!-- 304895c2&#45;9ece&#45;4576&#45;b85f&#45;b1927218647a -->
<g id="node8" class="node">
<title>304895c2&#45;9ece&#45;4576&#45;b85f&#45;b1927218647a</title>
<polygon fill="#0ee832" stroke="black" points="856,-36 416,-36 416,0 856,0 856,-36"/>
<text text-anchor="middle" x="636" y="-14.3" font-family="Helvetica,sans-Serif" font-size="14.00">✓ Run GitHub Actions for `whitepaper/product_overview.md`</text>
</g>
<!-- 3845f70a&#45;39a0&#45;4765&#45;9c23&#45;72186e3dddbd&#45;&gt;304895c2&#45;9ece&#45;4576&#45;b85f&#45;b1927218647a -->
<g id="edge3" class="edge">
<title>3845f70a&#45;39a0&#45;4765&#45;9c23&#45;72186e3dddbd&#45;&gt;304895c2&#45;9ece&#45;4576&#45;b85f&#45;b1927218647a</title>
<path fill="none" stroke="black" stroke-dasharray="5,2" d="M636,-72.72C636,-64.27 636,-54.89 636,-46.36"/>
<polygon fill="black" stroke="black" points="639.5,-46.15 636,-36.15 632.5,-46.15 639.5,-46.15"/>
</g>
<!-- 25b9b189&#45;7571&#45;4181&#45;9e4a&#45;310080036bc0 -->
<g id="node6" class="node">
<title>25b9b189&#45;7571&#45;4181&#45;9e4a&#45;310080036bc0</title>
<ellipse fill="white" stroke="black" cx="1473" cy="-99.87" rx="145.83" ry="26.74"/>
<text text-anchor="middle" x="1473" y="-103.67" font-family="Helvetica,sans-Serif" font-size="14.00">▶ Modify</text>
<text text-anchor="middle" x="1473" y="-88.67" font-family="Helvetica,sans-Serif" font-size="14.00">whitepaper/appendices.md</text>
</g>
<!-- a9809620&#45;bc67&#45;47c6&#45;bc52&#45;64414e521935&#45;&gt;25b9b189&#45;7571&#45;4181&#45;9e4a&#45;310080036bc0 -->
<g id="edge6" class="edge">
<title>a9809620&#45;bc67&#45;47c6&#45;bc52&#45;64414e521935&#45;&gt;25b9b189&#45;7571&#45;4181&#45;9e4a&#45;310080036bc0</title>
<path fill="none" stroke="black" d="M1250.4,-99.87C1272.52,-99.87 1294.64,-99.87 1316.76,-99.87"/>
<polygon fill="black" stroke="black" points="1316.92,-103.37 1326.92,-99.87 1316.92,-96.37 1316.92,-103.37"/>
</g>
<!-- e5f0775d&#45;5c0f&#45;47d0&#45;9881&#45;a4224cac3aec -->
<g id="node9" class="node">
<title>e5f0775d&#45;5c0f&#45;47d0&#45;9881&#45;a4224cac3aec</title>
<polygon fill="white" stroke="black" points="1297.5,-36 874.5,-36 874.5,0 1297.5,0 1297.5,-36"/>
<text text-anchor="middle" x="1086" y="-14.3" font-family="Helvetica,sans-Serif" font-size="14.00">▶ Run GitHub Actions for `whitepaper/advisory_board.md`</text>
</g>
<!-- a9809620&#45;bc67&#45;47c6&#45;bc52&#45;64414e521935&#45;&gt;e5f0775d&#45;5c0f&#45;47d0&#45;9881&#45;a4224cac3aec -->
<g id="edge5" class="edge">
<title>a9809620&#45;bc67&#45;47c6&#45;bc52&#45;64414e521935&#45;&gt;e5f0775d&#45;5c0f&#45;47d0&#45;9881&#45;a4224cac3aec</title>
<path fill="none" stroke="black" stroke-dasharray="5,2" d="M1086,-72.72C1086,-64.27 1086,-54.89 1086,-46.36"/>
<polygon fill="black" stroke="black" points="1089.5,-46.15 1086,-36.15 1082.5,-46.15 1089.5,-46.15"/>
</g>
<!-- 25b9b189&#45;7571&#45;4181&#45;9e4a&#45;310080036bc0&#45;&gt;end -->
<g id="edge9" class="edge">
<title>25b9b189&#45;7571&#45;4181&#45;9e4a&#45;310080036bc0&#45;&gt;end</title>
<path fill="none" stroke="black" d="M1618.81,-99.87C1638.57,-99.87 1655.62,-99.87 1666.07,-99.87"/>
<polygon fill="black" stroke="black" points="1666.35,-103.37 1676.35,-99.87 1666.35,-96.37 1666.35,-103.37"/>
<text text-anchor="middle" x="1647.58" y="-106.67" font-family="Helvetica,sans-Serif" font-size="14.00">Finish</text>
</g>
<!-- 5e709417&#45;7acb&#45;4a99&#45;8e11&#45;8163c1d23636 -->
<g id="node10" class="node">
<title>5e709417&#45;7acb&#45;4a99&#45;8e11&#45;8163c1d23636</title>
<polygon fill="white" stroke="black" points="1712.5,-36 1315.5,-36 1315.5,0 1712.5,0 1712.5,-36"/>
<text text-anchor="middle" x="1514" y="-14.3" font-family="Helvetica,sans-Serif" font-size="14.00">▶ Run GitHub Actions for `whitepaper/appendices.md`</text>
</g>
<!-- 25b9b189&#45;7571&#45;4181&#45;9e4a&#45;310080036bc0&#45;&gt;5e709417&#45;7acb&#45;4a99&#45;8e11&#45;8163c1d23636 -->
<g id="edge7" class="edge">
<title>25b9b189&#45;7571&#45;4181&#45;9e4a&#45;310080036bc0&#45;&gt;5e709417&#45;7acb&#45;4a99&#45;8e11&#45;8163c1d23636</title>
<path fill="none" stroke="black" stroke-dasharray="5,2" d="M1486.42,-72.72C1490.95,-63.9 1496.01,-54.05 1500.54,-45.23"/>
<polygon fill="black" stroke="black" points="1503.75,-46.64 1505.2,-36.15 1497.52,-43.44 1503.75,-46.64"/>
</g>
</g>
</svg>
