<?xml version="1.0" encoding="UTF-8" standalone="no"?>
<!DOCTYPE svg PUBLIC "-//W3C//DTD SVG 1.1//EN"
 "http://www.w3.org/Graphics/SVG/1.1/DTD/svg11.dtd">
<!-- Generated by graphviz version 2.43.0 (0)
 -->
<!-- Title: %3 Pages: 1 -->
<svg width="1906pt" height="238pt"
 viewBox="0.00 0.00 1906.00 237.74" xmlns="http://www.w3.org/2000/svg" xmlns:xlink="http://www.w3.org/1999/xlink">
<g id="graph0" class="graph" transform="scale(1 1) rotate(0) translate(36 201.74)">
<title>%3</title>
<polygon fill="dimgray" stroke="transparent" points="-36,36 -36,-201.74 1870,-201.74 1870,36 -36,36"/>
<text text-anchor="middle" x="917" y="-150.54" font-family="Helvetica,sans-Serif" font-size="14.00">Sweep&#39;s Plan &amp; Progress</text>
<!-- start -->
<g id="node1" class="node">
<title>start</title>
</g>
<!-- 71360f70&#45;5e6f&#45;425a&#45;9c3c&#45;e4e4121e78b3 -->
<g id="node3" class="node">
<title>71360f70&#45;5e6f&#45;425a&#45;9c3c&#45;e4e4121e78b3</title>
<ellipse fill="#0ee832" stroke="black" cx="240" cy="-99.87" rx="145.83" ry="26.74"/>
<text text-anchor="middle" x="240" y="-103.67" font-family="Helvetica,sans-Serif" font-size="14.00">✓ Modify</text>
<text text-anchor="middle" x="240" y="-88.67" font-family="Helvetica,sans-Serif" font-size="14.00">whitepaper/cover_page.md</text>
</g>
<!-- start&#45;&gt;71360f70&#45;5e6f&#45;425a&#45;9c3c&#45;e4e4121e78b3 -->
<g id="edge8" class="edge">
<title>start&#45;&gt;71360f70&#45;5e6f&#45;425a&#45;9c3c&#45;e4e4121e78b3</title>
<path fill="none" stroke="black" d="M42.57,-99.87C45.76,-99.87 62.1,-99.87 84.13,-99.87"/>
<polygon fill="black" stroke="black" points="84.26,-103.37 94.26,-99.87 84.26,-96.37 84.26,-103.37"/>
<text text-anchor="middle" x="68.42" y="-106.67" font-family="Helvetica,sans-Serif" font-size="14.00">Start</text>
</g>
<!-- end -->
<g id="node2" class="node">
<title>end</title>
</g>
<!-- 1830aa45&#45;4b74&#45;4843&#45;bb18&#45;4613147ab114 -->
<g id="node4" class="node">
<title>1830aa45&#45;4b74&#45;4843&#45;bb18&#45;4613147ab114</title>
<ellipse fill="#0ee832" stroke="black" cx="638" cy="-99.87" rx="175.23" ry="26.74"/>
<text text-anchor="middle" x="638" y="-103.67" font-family="Helvetica,sans-Serif" font-size="14.00">✓ Modify</text>
<text text-anchor="middle" x="638" y="-88.67" font-family="Helvetica,sans-Serif" font-size="14.00">whitepaper/product_overview.md</text>
</g>
<!-- 71360f70&#45;5e6f&#45;425a&#45;9c3c&#45;e4e4121e78b3&#45;&gt;1830aa45&#45;4b74&#45;4843&#45;bb18&#45;4613147ab114 -->
<g id="edge2" class="edge">
<title>71360f70&#45;5e6f&#45;425a&#45;9c3c&#45;e4e4121e78b3&#45;&gt;1830aa45&#45;4b74&#45;4843&#45;bb18&#45;4613147ab114</title>
<path fill="none" stroke="black" d="M385.75,-99.87C407.97,-99.87 430.18,-99.87 452.4,-99.87"/>
<polygon fill="black" stroke="black" points="452.61,-103.37 462.61,-99.87 452.61,-96.37 452.61,-103.37"/>
</g>
<!-- d14c2c20&#45;9fa6&#45;4824&#45;951e&#45;5d2a5d18c42d -->
<g id="node7" class="node">
<title>d14c2c20&#45;9fa6&#45;4824&#45;951e&#45;5d2a5d18c42d</title>
<polygon fill="#0ee832" stroke="black" points="398,-36 0,-36 0,0 398,0 398,-36"/>
<text text-anchor="middle" x="199" y="-14.3" font-family="Helvetica,sans-Serif" font-size="14.00">✓ Run GitHub Actions for `whitepaper/cover_page.md`</text>
</g>
<!-- 71360f70&#45;5e6f&#45;425a&#45;9c3c&#45;e4e4121e78b3&#45;&gt;d14c2c20&#45;9fa6&#45;4824&#45;951e&#45;5d2a5d18c42d -->
<g id="edge1" class="edge">
<title>71360f70&#45;5e6f&#45;425a&#45;9c3c&#45;e4e4121e78b3&#45;&gt;d14c2c20&#45;9fa6&#45;4824&#45;951e&#45;5d2a5d18c42d</title>
<path fill="none" stroke="black" stroke-dasharray="5,2" d="M226.58,-72.72C222.05,-63.9 216.99,-54.05 212.46,-45.23"/>
<polygon fill="black" stroke="black" points="215.48,-43.44 207.8,-36.15 209.25,-46.64 215.48,-43.44"/>
</g>
<!-- 4045c92d&#45;aad5&#45;4ef1&#45;9f71&#45;81f26dba6fa0 -->
<g id="node5" class="node">
<title>4045c92d&#45;aad5&#45;4ef1&#45;9f71&#45;81f26dba6fa0</title>
<ellipse fill="white" stroke="black" cx="1110" cy="-99.87" rx="192.17" ry="26.74"/>
<text text-anchor="middle" x="1110" y="-103.67" font-family="Helvetica,sans-Serif" font-size="14.00">▶ Modify</text>
<text text-anchor="middle" x="1110" y="-88.67" font-family="Helvetica,sans-Serif" font-size="14.00">whitepaper/ai_personas_features.md</text>
</g>
<!-- 1830aa45&#45;4b74&#45;4843&#45;bb18&#45;4613147ab114&#45;&gt;4045c92d&#45;aad5&#45;4ef1&#45;9f71&#45;81f26dba6fa0 -->
<g id="edge4" class="edge">
<title>1830aa45&#45;4b74&#45;4843&#45;bb18&#45;4613147ab114&#45;&gt;4045c92d&#45;aad5&#45;4ef1&#45;9f71&#45;81f26dba6fa0</title>
<path fill="none" stroke="black" d="M813.62,-99.87C844.87,-99.87 876.12,-99.87 907.38,-99.87"/>
<polygon fill="black" stroke="black" points="907.52,-103.37 917.52,-99.87 907.52,-96.37 907.52,-103.37"/>
</g>
<!-- 68ad45e3&#45;1b12&#45;4093&#45;acfd&#45;f255b5d860e7 -->
<g id="node8" class="node">
<title>68ad45e3&#45;1b12&#45;4093&#45;acfd&#45;f255b5d860e7</title>
<polygon fill="yellow" stroke="black" points="859.5,-36 416.5,-36 416.5,0 859.5,0 859.5,-36"/>
<text text-anchor="middle" x="638" y="-14.3" font-family="Helvetica,sans-Serif" font-size="14.00">⋯ Run GitHub Actions for `whitepaper/product_overview.md`</text>
</g>
<!-- 1830aa45&#45;4b74&#45;4843&#45;bb18&#45;4613147ab114&#45;&gt;68ad45e3&#45;1b12&#45;4093&#45;acfd&#45;f255b5d860e7 -->
<g id="edge3" class="edge">
<title>1830aa45&#45;4b74&#45;4843&#45;bb18&#45;4613147ab114&#45;&gt;68ad45e3&#45;1b12&#45;4093&#45;acfd&#45;f255b5d860e7</title>
<path fill="none" stroke="black" stroke-dasharray="5,2" d="M638,-72.72C638,-64.27 638,-54.89 638,-46.36"/>
<polygon fill="black" stroke="black" points="641.5,-46.15 638,-36.15 634.5,-46.15 641.5,-46.15"/>
</g>
<!-- 20d466f2&#45;5376&#45;4392&#45;9917&#45;ec1a45829678 -->
<g id="node6" class="node">
<title>20d466f2&#45;5376&#45;4392&#45;9917&#45;ec1a45829678</title>
<ellipse fill="white" stroke="black" cx="1568" cy="-99.87" rx="200.22" ry="26.74"/>
<text text-anchor="middle" x="1568" y="-103.67" font-family="Helvetica,sans-Serif" font-size="14.00">▶ Modify</text>
<text text-anchor="middle" x="1568" y="-88.67" font-family="Helvetica,sans-Serif" font-size="14.00">whitepaper/blockchain_integration.md</text>
</g>
<!-- 4045c92d&#45;aad5&#45;4ef1&#45;9f71&#45;81f26dba6fa0&#45;&gt;20d466f2&#45;5376&#45;4392&#45;9917&#45;ec1a45829678 -->
<g id="edge6" class="edge">
<title>4045c92d&#45;aad5&#45;4ef1&#45;9f71&#45;81f26dba6fa0&#45;&gt;20d466f2&#45;5376&#45;4392&#45;9917&#45;ec1a45829678</title>
<path fill="none" stroke="black" d="M1302.77,-99.87C1321.06,-99.87 1339.34,-99.87 1357.63,-99.87"/>
<polygon fill="black" stroke="black" points="1357.78,-103.37 1367.78,-99.87 1357.78,-96.37 1357.78,-103.37"/>
</g>
<!-- 6afd551a&#45;de72&#45;46a8&#45;a554&#45;0ad17760f79c -->
<g id="node9" class="node">
<title>6afd551a&#45;de72&#45;46a8&#45;a554&#45;0ad17760f79c</title>
<polygon fill="white" stroke="black" points="1342,-36 878,-36 878,0 1342,0 1342,-36"/>
<text text-anchor="middle" x="1110" y="-14.3" font-family="Helvetica,sans-Serif" font-size="14.00">▶ Run GitHub Actions for `whitepaper/ai_personas_features.md`</text>
</g>
<!-- 4045c92d&#45;aad5&#45;4ef1&#45;9f71&#45;81f26dba6fa0&#45;&gt;6afd551a&#45;de72&#45;46a8&#45;a554&#45;0ad17760f79c -->
<g id="edge5" class="edge">
<title>4045c92d&#45;aad5&#45;4ef1&#45;9f71&#45;81f26dba6fa0&#45;&gt;6afd551a&#45;de72&#45;46a8&#45;a554&#45;0ad17760f79c</title>
<path fill="none" stroke="black" stroke-dasharray="5,2" d="M1110,-72.72C1110,-64.27 1110,-54.89 1110,-46.36"/>
<polygon fill="black" stroke="black" points="1113.5,-46.15 1110,-36.15 1106.5,-46.15 1113.5,-46.15"/>
</g>
<!-- 20d466f2&#45;5376&#45;4392&#45;9917&#45;ec1a45829678&#45;&gt;end -->
<g id="edge9" class="edge">
<title>20d466f2&#45;5376&#45;4392&#45;9917&#45;ec1a45829678&#45;&gt;end</title>
<path fill="none" stroke="black" d="M1768.42,-99.87C1788.33,-99.87 1804.92,-99.87 1815.1,-99.87"/>
<polygon fill="black" stroke="black" points="1815.38,-103.37 1825.38,-99.87 1815.38,-96.37 1815.38,-103.37"/>
<text text-anchor="middle" x="1796.81" y="-106.67" font-family="Helvetica,sans-Serif" font-size="14.00">Finish</text>
</g>
<!-- d439e3a8&#45;67bc&#45;4720&#45;8917&#45;038fd001f961 -->
<g id="node10" class="node">
<title>d439e3a8&#45;67bc&#45;4720&#45;8917&#45;038fd001f961</title>
<polygon fill="white" stroke="black" points="1834,-36 1360,-36 1360,0 1834,0 1834,-36"/>
<text text-anchor="middle" x="1597" y="-14.3" font-family="Helvetica,sans-Serif" font-size="14.00">▶ Run GitHub Actions for `whitepaper/blockchain_integration.md`</text>
</g>
<!-- 20d466f2&#45;5376&#45;4392&#45;9917&#45;ec1a45829678&#45;&gt;d439e3a8&#45;67bc&#45;4720&#45;8917&#45;038fd001f961 -->
<g id="edge7" class="edge">
<title>20d466f2&#45;5376&#45;4392&#45;9917&#45;ec1a45829678&#45;&gt;d439e3a8&#45;67bc&#45;4720&#45;8917&#45;038fd001f961</title>
<path fill="none" stroke="black" stroke-dasharray="5,2" d="M1577.5,-72.72C1580.63,-64.08 1584.12,-54.47 1587.27,-45.79"/>
<polygon fill="black" stroke="black" points="1590.65,-46.74 1590.77,-36.15 1584.07,-44.35 1590.65,-46.74"/>
</g>
</g>
</svg>
