<?xml version="1.0" encoding="UTF-8" standalone="no"?>
<!DOCTYPE svg PUBLIC "-//W3C//DTD SVG 1.1//EN"
 "http://www.w3.org/Graphics/SVG/1.1/DTD/svg11.dtd">
<!-- Generated by graphviz version 2.43.0 (0)
 -->
<!-- Title: %3 Pages: 1 -->
<svg width="1786pt" height="238pt"
 viewBox="0.00 0.00 1786.00 237.74" xmlns="http://www.w3.org/2000/svg" xmlns:xlink="http://www.w3.org/1999/xlink">
<g id="graph0" class="graph" transform="scale(1 1) rotate(0) translate(36 201.74)">
<title>%3</title>
<polygon fill="dimgray" stroke="transparent" points="-36,36 -36,-201.74 1750,-201.74 1750,36 -36,36"/>
<text text-anchor="middle" x="857" y="-150.54" font-family="Helvetica,sans-Serif" font-size="14.00">Sweep&#39;s Plan &amp; Progress</text>
<!-- start -->
<g id="node1" class="node">
<title>start</title>
</g>
<!-- 65d03541&#45;aca0&#45;4342&#45;89d1&#45;25c651bd928f -->
<g id="node3" class="node">
<title>65d03541&#45;aca0&#45;4342&#45;89d1&#45;25c651bd928f</title>
<ellipse fill="#0ee832" stroke="black" cx="259.5" cy="-99.87" rx="175.23" ry="26.74"/>
<text text-anchor="middle" x="259.5" y="-103.67" font-family="Helvetica,sans-Serif" font-size="14.00">✓ Modify</text>
<text text-anchor="middle" x="259.5" y="-88.67" font-family="Helvetica,sans-Serif" font-size="14.00">whitepaper/product_overview.md</text>
</g>
<!-- start&#45;&gt;65d03541&#45;aca0&#45;4342&#45;89d1&#45;25c651bd928f -->
<g id="edge8" class="edge">
<title>start&#45;&gt;65d03541&#45;aca0&#45;4342&#45;89d1&#45;25c651bd928f</title>
<path fill="none" stroke="black" d="M33.15,-99.87C36.47,-99.87 52.2,-99.87 73.94,-99.87"/>
<polygon fill="black" stroke="black" points="73.97,-103.37 83.97,-99.87 73.97,-96.37 73.97,-103.37"/>
<text text-anchor="middle" x="58.57" y="-106.67" font-family="Helvetica,sans-Serif" font-size="14.00">Start</text>
</g>
<!-- end -->
<g id="node2" class="node">
<title>end</title>
</g>
<!-- 1bcbcf03&#45;5ada&#45;4514&#45;b77c&#45;c67551255793 -->
<g id="node4" class="node">
<title>1bcbcf03&#45;5ada&#45;4514&#45;b77c&#45;c67551255793</title>
<ellipse fill="white" stroke="black" cx="672.5" cy="-99.87" rx="164.1" ry="26.74"/>
<text text-anchor="middle" x="672.5" y="-103.67" font-family="Helvetica,sans-Serif" font-size="14.00">▶ Modify</text>
<text text-anchor="middle" x="672.5" y="-88.67" font-family="Helvetica,sans-Serif" font-size="14.00">whitepaper/advisory_board.md</text>
</g>
<!-- 65d03541&#45;aca0&#45;4342&#45;89d1&#45;25c651bd928f&#45;&gt;1bcbcf03&#45;5ada&#45;4514&#45;b77c&#45;c67551255793 -->
<g id="edge2" class="edge">
<title>65d03541&#45;aca0&#45;4342&#45;89d1&#45;25c651bd928f&#45;&gt;1bcbcf03&#45;5ada&#45;4514&#45;b77c&#45;c67551255793</title>
<path fill="none" stroke="black" d="M434.94,-99.87C456.04,-99.87 477.13,-99.87 498.23,-99.87"/>
<polygon fill="black" stroke="black" points="498.25,-103.37 508.25,-99.87 498.25,-96.37 498.25,-103.37"/>
</g>
<!-- bf6faf98&#45;cf71&#45;4824&#45;a3fb&#45;f5b279b3f367 -->
<g id="node7" class="node">
<title>bf6faf98&#45;cf71&#45;4824&#45;a3fb&#45;f5b279b3f367</title>
<polygon fill="yellow" stroke="black" points="443,-36 0,-36 0,0 443,0 443,-36"/>
<text text-anchor="middle" x="221.5" y="-14.3" font-family="Helvetica,sans-Serif" font-size="14.00">⋯ Run GitHub Actions for `whitepaper/product_overview.md`</text>
</g>
<!-- 65d03541&#45;aca0&#45;4342&#45;89d1&#45;25c651bd928f&#45;&gt;bf6faf98&#45;cf71&#45;4824&#45;a3fb&#45;f5b279b3f367 -->
<g id="edge1" class="edge">
<title>65d03541&#45;aca0&#45;4342&#45;89d1&#45;25c651bd928f&#45;&gt;bf6faf98&#45;cf71&#45;4824&#45;a3fb&#45;f5b279b3f367</title>
<path fill="none" stroke="black" stroke-dasharray="5,2" d="M247.06,-72.72C242.86,-63.9 238.18,-54.05 233.98,-45.23"/>
<polygon fill="black" stroke="black" points="237.11,-43.67 229.66,-36.15 230.79,-46.68 237.11,-43.67"/>
</g>
<!-- 338d1f73&#45;2551&#45;4c94&#45;81f8&#45;763ecb144405 -->
<g id="node5" class="node">
<title>338d1f73&#45;2551&#45;4c94&#45;81f8&#45;763ecb144405</title>
<ellipse fill="white" stroke="black" cx="1100.5" cy="-99.87" rx="145.83" ry="26.74"/>
<text text-anchor="middle" x="1100.5" y="-103.67" font-family="Helvetica,sans-Serif" font-size="14.00">▶ Modify</text>
<text text-anchor="middle" x="1100.5" y="-88.67" font-family="Helvetica,sans-Serif" font-size="14.00">whitepaper/cover_page.md</text>
</g>
<!-- 1bcbcf03&#45;5ada&#45;4514&#45;b77c&#45;c67551255793&#45;&gt;338d1f73&#45;2551&#45;4c94&#45;81f8&#45;763ecb144405 -->
<g id="edge4" class="edge">
<title>1bcbcf03&#45;5ada&#45;4514&#45;b77c&#45;c67551255793&#45;&gt;338d1f73&#45;2551&#45;4c94&#45;81f8&#45;763ecb144405</title>
<path fill="none" stroke="black" d="M836.76,-99.87C872.7,-99.87 908.64,-99.87 944.59,-99.87"/>
<polygon fill="black" stroke="black" points="944.72,-103.37 954.72,-99.87 944.72,-96.37 944.72,-103.37"/>
</g>
<!-- d72f02c8&#45;42e9&#45;4031&#45;941d&#45;fd27af491b73 -->
<g id="node8" class="node">
<title>d72f02c8&#45;42e9&#45;4031&#45;941d&#45;fd27af491b73</title>
<polygon fill="white" stroke="black" points="884,-36 461,-36 461,0 884,0 884,-36"/>
<text text-anchor="middle" x="672.5" y="-14.3" font-family="Helvetica,sans-Serif" font-size="14.00">▶ Run GitHub Actions for `whitepaper/advisory_board.md`</text>
</g>
<!-- 1bcbcf03&#45;5ada&#45;4514&#45;b77c&#45;c67551255793&#45;&gt;d72f02c8&#45;42e9&#45;4031&#45;941d&#45;fd27af491b73 -->
<g id="edge3" class="edge">
<title>1bcbcf03&#45;5ada&#45;4514&#45;b77c&#45;c67551255793&#45;&gt;d72f02c8&#45;42e9&#45;4031&#45;941d&#45;fd27af491b73</title>
<path fill="none" stroke="black" stroke-dasharray="5,2" d="M672.5,-72.72C672.5,-64.27 672.5,-54.89 672.5,-46.36"/>
<polygon fill="black" stroke="black" points="676,-46.15 672.5,-36.15 669,-46.15 676,-46.15"/>
</g>
<!-- 0c6abfe8&#45;d7a9&#45;4c36&#45;be34&#45;33632d77a3a9 -->
<g id="node6" class="node">
<title>0c6abfe8&#45;d7a9&#45;4c36&#45;be34&#45;33632d77a3a9</title>
<ellipse fill="white" stroke="black" cx="1471.5" cy="-99.87" rx="145.83" ry="26.74"/>
<text text-anchor="middle" x="1471.5" y="-103.67" font-family="Helvetica,sans-Serif" font-size="14.00">▶ Modify</text>
<text text-anchor="middle" x="1471.5" y="-88.67" font-family="Helvetica,sans-Serif" font-size="14.00">whitepaper/appendices.md</text>
</g>
<!-- 338d1f73&#45;2551&#45;4c94&#45;81f8&#45;763ecb144405&#45;&gt;0c6abfe8&#45;d7a9&#45;4c36&#45;be34&#45;33632d77a3a9 -->
<g id="edge6" class="edge">
<title>338d1f73&#45;2551&#45;4c94&#45;81f8&#45;763ecb144405&#45;&gt;0c6abfe8&#45;d7a9&#45;4c36&#45;be34&#45;33632d77a3a9</title>
<path fill="none" stroke="black" d="M1246.51,-99.87C1269.48,-99.87 1292.44,-99.87 1315.41,-99.87"/>
<polygon fill="black" stroke="black" points="1315.61,-103.37 1325.61,-99.87 1315.61,-96.37 1315.61,-103.37"/>
</g>
<!-- c742a6f2&#45;ae28&#45;4acc&#45;856f&#45;b245a3a4541d -->
<g id="node9" class="node">
<title>c742a6f2&#45;ae28&#45;4acc&#45;856f&#45;b245a3a4541d</title>
<polygon fill="white" stroke="black" points="1299,-36 902,-36 902,0 1299,0 1299,-36"/>
<text text-anchor="middle" x="1100.5" y="-14.3" font-family="Helvetica,sans-Serif" font-size="14.00">▶ Run GitHub Actions for `whitepaper/cover_page.md`</text>
</g>
<!-- 338d1f73&#45;2551&#45;4c94&#45;81f8&#45;763ecb144405&#45;&gt;c742a6f2&#45;ae28&#45;4acc&#45;856f&#45;b245a3a4541d -->
<g id="edge5" class="edge">
<title>338d1f73&#45;2551&#45;4c94&#45;81f8&#45;763ecb144405&#45;&gt;c742a6f2&#45;ae28&#45;4acc&#45;856f&#45;b245a3a4541d</title>
<path fill="none" stroke="black" stroke-dasharray="5,2" d="M1100.5,-72.72C1100.5,-64.27 1100.5,-54.89 1100.5,-46.36"/>
<polygon fill="black" stroke="black" points="1104,-46.15 1100.5,-36.15 1097,-46.15 1104,-46.15"/>
</g>
<!-- 0c6abfe8&#45;d7a9&#45;4c36&#45;be34&#45;33632d77a3a9&#45;&gt;end -->
<g id="edge9" class="edge">
<title>0c6abfe8&#45;d7a9&#45;4c36&#45;be34&#45;33632d77a3a9&#45;&gt;end</title>
<path fill="none" stroke="black" d="M1617.31,-99.87C1637.07,-99.87 1654.12,-99.87 1664.57,-99.87"/>
<polygon fill="black" stroke="black" points="1664.85,-103.37 1674.85,-99.87 1664.85,-96.37 1664.85,-103.37"/>
<text text-anchor="middle" x="1646.08" y="-106.67" font-family="Helvetica,sans-Serif" font-size="14.00">Finish</text>
</g>
<!-- 5f63668c&#45;ca88&#45;402a&#45;bd0c&#45;525b38292cbb -->
<g id="node10" class="node">
<title>5f63668c&#45;ca88&#45;402a&#45;bd0c&#45;525b38292cbb</title>
<polygon fill="white" stroke="black" points="1714,-36 1317,-36 1317,0 1714,0 1714,-36"/>
<text text-anchor="middle" x="1515.5" y="-14.3" font-family="Helvetica,sans-Serif" font-size="14.00">▶ Run GitHub Actions for `whitepaper/appendices.md`</text>
</g>
<!-- 0c6abfe8&#45;d7a9&#45;4c36&#45;be34&#45;33632d77a3a9&#45;&gt;5f63668c&#45;ca88&#45;402a&#45;bd0c&#45;525b38292cbb -->
<g id="edge7" class="edge">
<title>0c6abfe8&#45;d7a9&#45;4c36&#45;be34&#45;33632d77a3a9&#45;&gt;5f63668c&#45;ca88&#45;402a&#45;bd0c&#45;525b38292cbb</title>
<path fill="none" stroke="black" stroke-dasharray="5,2" d="M1485.91,-72.72C1490.82,-63.8 1496.3,-53.84 1501.21,-44.95"/>
<polygon fill="black" stroke="black" points="1504.29,-46.59 1506.05,-36.15 1498.16,-43.22 1504.29,-46.59"/>
</g>
</g>
</svg>
