<?xml version="1.0" encoding="UTF-8" standalone="no"?>
<!DOCTYPE svg PUBLIC "-//W3C//DTD SVG 1.1//EN"
 "http://www.w3.org/Graphics/SVG/1.1/DTD/svg11.dtd">
<!-- Generated by graphviz version 2.43.0 (0)
 -->
<!-- Title: %3 Pages: 1 -->
<svg width="1904pt" height="238pt"
 viewBox="0.00 0.00 1904.00 237.74" xmlns="http://www.w3.org/2000/svg" xmlns:xlink="http://www.w3.org/1999/xlink">
<g id="graph0" class="graph" transform="scale(1 1) rotate(0) translate(36 201.74)">
<title>%3</title>
<polygon fill="dimgray" stroke="transparent" points="-36,36 -36,-201.74 1868,-201.74 1868,36 -36,36"/>
<text text-anchor="middle" x="916" y="-150.54" font-family="Helvetica,sans-Serif" font-size="14.00">Sweep&#39;s Plan &amp; Progress</text>
<!-- start -->
<g id="node1" class="node">
<title>start</title>
</g>
<!-- 71360f70&#45;5e6f&#45;425a&#45;9c3c&#45;e4e4121e78b3 -->
<g id="node3" class="node">
<title>71360f70&#45;5e6f&#45;425a&#45;9c3c&#45;e4e4121e78b3</title>
<ellipse fill="#0ee832" stroke="black" cx="239" cy="-99.87" rx="145.83" ry="26.74"/>
<text text-anchor="middle" x="239" y="-103.67" font-family="Helvetica,sans-Serif" font-size="14.00">✓ Modify</text>
<text text-anchor="middle" x="239" y="-88.67" font-family="Helvetica,sans-Serif" font-size="14.00">whitepaper/cover_page.md</text>
</g>
<!-- start&#45;&gt;71360f70&#45;5e6f&#45;425a&#45;9c3c&#45;e4e4121e78b3 -->
<g id="edge8" class="edge">
<title>start&#45;&gt;71360f70&#45;5e6f&#45;425a&#45;9c3c&#45;e4e4121e78b3</title>
<path fill="none" stroke="black" d="M41.57,-99.87C44.76,-99.87 61.1,-99.87 83.13,-99.87"/>
<polygon fill="black" stroke="black" points="83.26,-103.37 93.26,-99.87 83.26,-96.37 83.26,-103.37"/>
<text text-anchor="middle" x="67.42" y="-106.67" font-family="Helvetica,sans-Serif" font-size="14.00">Start</text>
</g>
<!-- end -->
<g id="node2" class="node">
<title>end</title>
</g>
<!-- 1830aa45&#45;4b74&#45;4843&#45;bb18&#45;4613147ab114 -->
<g id="node4" class="node">
<title>1830aa45&#45;4b74&#45;4843&#45;bb18&#45;4613147ab114</title>
<ellipse fill="#0ee832" stroke="black" cx="636" cy="-99.87" rx="175.23" ry="26.74"/>
<text text-anchor="middle" x="636" y="-103.67" font-family="Helvetica,sans-Serif" font-size="14.00">✓ Modify</text>
<text text-anchor="middle" x="636" y="-88.67" font-family="Helvetica,sans-Serif" font-size="14.00">whitepaper/product_overview.md</text>
</g>
<!-- 71360f70&#45;5e6f&#45;425a&#45;9c3c&#45;e4e4121e78b3&#45;&gt;1830aa45&#45;4b74&#45;4843&#45;bb18&#45;4613147ab114 -->
<g id="edge2" class="edge">
<title>71360f70&#45;5e6f&#45;425a&#45;9c3c&#45;e4e4121e78b3&#45;&gt;1830aa45&#45;4b74&#45;4843&#45;bb18&#45;4613147ab114</title>
<path fill="none" stroke="black" d="M384.77,-99.87C406.62,-99.87 428.46,-99.87 450.3,-99.87"/>
<polygon fill="black" stroke="black" points="450.34,-103.37 460.34,-99.87 450.34,-96.37 450.34,-103.37"/>
</g>
<!-- d14c2c20&#45;9fa6&#45;4824&#45;951e&#45;5d2a5d18c42d -->
<g id="node7" class="node">
<title>d14c2c20&#45;9fa6&#45;4824&#45;951e&#45;5d2a5d18c42d</title>
<polygon fill="#0ee832" stroke="black" points="398,-36 0,-36 0,0 398,0 398,-36"/>
<text text-anchor="middle" x="199" y="-14.3" font-family="Helvetica,sans-Serif" font-size="14.00">✓ Run GitHub Actions for `whitepaper/cover_page.md`</text>
</g>
<!-- 71360f70&#45;5e6f&#45;425a&#45;9c3c&#45;e4e4121e78b3&#45;&gt;d14c2c20&#45;9fa6&#45;4824&#45;951e&#45;5d2a5d18c42d -->
<g id="edge1" class="edge">
<title>71360f70&#45;5e6f&#45;425a&#45;9c3c&#45;e4e4121e78b3&#45;&gt;d14c2c20&#45;9fa6&#45;4824&#45;951e&#45;5d2a5d18c42d</title>
<path fill="none" stroke="black" stroke-dasharray="5,2" d="M225.9,-72.72C221.49,-63.9 216.56,-54.05 212.14,-45.23"/>
<polygon fill="black" stroke="black" points="215.19,-43.52 207.59,-36.15 208.94,-46.66 215.19,-43.52"/>
</g>
<!-- 4045c92d&#45;aad5&#45;4ef1&#45;9f71&#45;81f26dba6fa0 -->
<g id="node5" class="node">
<title>4045c92d&#45;aad5&#45;4ef1&#45;9f71&#45;81f26dba6fa0</title>
<ellipse fill="#0ee832" stroke="black" cx="1107" cy="-99.87" rx="192.17" ry="26.74"/>
<text text-anchor="middle" x="1107" y="-103.67" font-family="Helvetica,sans-Serif" font-size="14.00">✓ Modify</text>
<text text-anchor="middle" x="1107" y="-88.67" font-family="Helvetica,sans-Serif" font-size="14.00">whitepaper/ai_personas_features.md</text>
</g>
<!-- 1830aa45&#45;4b74&#45;4843&#45;bb18&#45;4613147ab114&#45;&gt;4045c92d&#45;aad5&#45;4ef1&#45;9f71&#45;81f26dba6fa0 -->
<g id="edge4" class="edge">
<title>1830aa45&#45;4b74&#45;4843&#45;bb18&#45;4613147ab114&#45;&gt;4045c92d&#45;aad5&#45;4ef1&#45;9f71&#45;81f26dba6fa0</title>
<path fill="none" stroke="black" d="M811.71,-99.87C842.67,-99.87 873.64,-99.87 904.6,-99.87"/>
<polygon fill="black" stroke="black" points="904.65,-103.37 914.65,-99.87 904.65,-96.37 904.65,-103.37"/>
</g>
<!-- 68ad45e3&#45;1b12&#45;4093&#45;acfd&#45;f255b5d860e7 -->
<g id="node8" class="node">
<title>68ad45e3&#45;1b12&#45;4093&#45;acfd&#45;f255b5d860e7</title>
<polygon fill="#0ee832" stroke="black" points="856,-36 416,-36 416,0 856,0 856,-36"/>
<text text-anchor="middle" x="636" y="-14.3" font-family="Helvetica,sans-Serif" font-size="14.00">✓ Run GitHub Actions for `whitepaper/product_overview.md`</text>
</g>
<!-- 1830aa45&#45;4b74&#45;4843&#45;bb18&#45;4613147ab114&#45;&gt;68ad45e3&#45;1b12&#45;4093&#45;acfd&#45;f255b5d860e7 -->
<g id="edge3" class="edge">
<title>1830aa45&#45;4b74&#45;4843&#45;bb18&#45;4613147ab114&#45;&gt;68ad45e3&#45;1b12&#45;4093&#45;acfd&#45;f255b5d860e7</title>
<path fill="none" stroke="black" stroke-dasharray="5,2" d="M636,-72.72C636,-64.27 636,-54.89 636,-46.36"/>
<polygon fill="black" stroke="black" points="639.5,-46.15 636,-36.15 632.5,-46.15 639.5,-46.15"/>
</g>
<!-- 20d466f2&#45;5376&#45;4392&#45;9917&#45;ec1a45829678 -->
<g id="node6" class="node">
<title>20d466f2&#45;5376&#45;4392&#45;9917&#45;ec1a45829678</title>
<ellipse fill="white" stroke="black" cx="1565" cy="-99.87" rx="200.22" ry="26.74"/>
<text text-anchor="middle" x="1565" y="-103.67" font-family="Helvetica,sans-Serif" font-size="14.00">▶ Modify</text>
<text text-anchor="middle" x="1565" y="-88.67" font-family="Helvetica,sans-Serif" font-size="14.00">whitepaper/blockchain_integration.md</text>
</g>
<!-- 4045c92d&#45;aad5&#45;4ef1&#45;9f71&#45;81f26dba6fa0&#45;&gt;20d466f2&#45;5376&#45;4392&#45;9917&#45;ec1a45829678 -->
<g id="edge6" class="edge">
<title>4045c92d&#45;aad5&#45;4ef1&#45;9f71&#45;81f26dba6fa0&#45;&gt;20d466f2&#45;5376&#45;4392&#45;9917&#45;ec1a45829678</title>
<path fill="none" stroke="black" d="M1299.77,-99.87C1318.06,-99.87 1336.34,-99.87 1354.63,-99.87"/>
<polygon fill="black" stroke="black" points="1354.78,-103.37 1364.78,-99.87 1354.78,-96.37 1354.78,-103.37"/>
</g>
<!-- 6afd551a&#45;de72&#45;46a8&#45;a554&#45;0ad17760f79c -->
<g id="node9" class="node">
<title>6afd551a&#45;de72&#45;46a8&#45;a554&#45;0ad17760f79c</title>
<polygon fill="#0ee832" stroke="black" points="1339.5,-36 874.5,-36 874.5,0 1339.5,0 1339.5,-36"/>
<text text-anchor="middle" x="1107" y="-14.3" font-family="Helvetica,sans-Serif" font-size="14.00">✓ Run GitHub Actions for `whitepaper/ai_personas_features.md`</text>
</g>
<!-- 4045c92d&#45;aad5&#45;4ef1&#45;9f71&#45;81f26dba6fa0&#45;&gt;6afd551a&#45;de72&#45;46a8&#45;a554&#45;0ad17760f79c -->
<g id="edge5" class="edge">
<title>4045c92d&#45;aad5&#45;4ef1&#45;9f71&#45;81f26dba6fa0&#45;&gt;6afd551a&#45;de72&#45;46a8&#45;a554&#45;0ad17760f79c</title>
<path fill="none" stroke="black" stroke-dasharray="5,2" d="M1107,-72.72C1107,-64.27 1107,-54.89 1107,-46.36"/>
<polygon fill="black" stroke="black" points="1110.5,-46.15 1107,-36.15 1103.5,-46.15 1110.5,-46.15"/>
</g>
<!-- 20d466f2&#45;5376&#45;4392&#45;9917&#45;ec1a45829678&#45;&gt;end -->
<g id="edge9" class="edge">
<title>20d466f2&#45;5376&#45;4392&#45;9917&#45;ec1a45829678&#45;&gt;end</title>
<path fill="none" stroke="black" d="M1765.42,-99.87C1785.33,-99.87 1801.92,-99.87 1812.1,-99.87"/>
<polygon fill="black" stroke="black" points="1812.38,-103.37 1822.38,-99.87 1812.38,-96.37 1812.38,-103.37"/>
<text text-anchor="middle" x="1793.81" y="-106.67" font-family="Helvetica,sans-Serif" font-size="14.00">Finish</text>
</g>
<!-- d439e3a8&#45;67bc&#45;4720&#45;8917&#45;038fd001f961 -->
<g id="node10" class="node">
<title>d439e3a8&#45;67bc&#45;4720&#45;8917&#45;038fd001f961</title>
<polygon fill="white" stroke="black" points="1832,-36 1358,-36 1358,0 1832,0 1832,-36"/>
<text text-anchor="middle" x="1595" y="-14.3" font-family="Helvetica,sans-Serif" font-size="14.00">▶ Run GitHub Actions for `whitepaper/blockchain_integration.md`</text>
</g>
<!-- 20d466f2&#45;5376&#45;4392&#45;9917&#45;ec1a45829678&#45;&gt;d439e3a8&#45;67bc&#45;4720&#45;8917&#45;038fd001f961 -->
<g id="edge7" class="edge">
<title>20d466f2&#45;5376&#45;4392&#45;9917&#45;ec1a45829678&#45;&gt;d439e3a8&#45;67bc&#45;4720&#45;8917&#45;038fd001f961</title>
<path fill="none" stroke="black" stroke-dasharray="5,2" d="M1574.82,-72.72C1578.1,-63.99 1581.75,-54.26 1585.04,-45.51"/>
<polygon fill="black" stroke="black" points="1588.32,-46.74 1588.56,-36.15 1581.77,-44.28 1588.32,-46.74"/>
</g>
</g>
</svg>
