<?xml version="1.0" encoding="UTF-8" standalone="no"?>
<!DOCTYPE svg PUBLIC "-//W3C//DTD SVG 1.1//EN"
 "http://www.w3.org/Graphics/SVG/1.1/DTD/svg11.dtd">
<!-- Generated by graphviz version 2.43.0 (0)
 -->
<!-- Title: %3 Pages: 1 -->
<svg width="2453pt" height="238pt"
 viewBox="0.00 0.00 2452.50 237.74" xmlns="http://www.w3.org/2000/svg" xmlns:xlink="http://www.w3.org/1999/xlink">
<g id="graph0" class="graph" transform="scale(1 1) rotate(0) translate(36 201.74)">
<title>%3</title>
<polygon fill="dimgray" stroke="transparent" points="-36,36 -36,-201.74 2416.5,-201.74 2416.5,36 -36,36"/>
<text text-anchor="middle" x="1190.25" y="-150.54" font-family="Helvetica,sans-Serif" font-size="14.00">Sweep&#39;s Plan &amp; Progress</text>
<!-- start -->
<g id="node1" class="node">
<title>start</title>
</g>
<!-- f4828bb2&#45;649d&#45;4f6b&#45;9eec&#45;0fdb768f8010 -->
<g id="node3" class="node">
<title>f4828bb2&#45;649d&#45;4f6b&#45;9eec&#45;0fdb768f8010</title>
<ellipse fill="#0ee832" stroke="black" cx="279.5" cy="-99.87" rx="213.59" ry="26.74"/>
<text text-anchor="middle" x="279.5" y="-103.67" font-family="Helvetica,sans-Serif" font-size="14.00">✓ Create</text>
<text text-anchor="middle" x="279.5" y="-88.67" font-family="Helvetica,sans-Serif" font-size="14.00">whitepaper/spatial_computing_future.md</text>
</g>
<!-- start&#45;&gt;f4828bb2&#45;649d&#45;4f6b&#45;9eec&#45;0fdb768f8010 -->
<g id="edge10" class="edge">
<title>start&#45;&gt;f4828bb2&#45;649d&#45;4f6b&#45;9eec&#45;0fdb768f8010</title>
<path fill="none" stroke="black" d="M14.26,-99.87C17.82,-99.87 33.54,-99.87 55.69,-99.87"/>
<polygon fill="black" stroke="black" points="55.93,-103.37 65.93,-99.87 55.93,-96.37 55.93,-103.37"/>
<text text-anchor="middle" x="39.98" y="-106.67" font-family="Helvetica,sans-Serif" font-size="14.00">Start</text>
</g>
<!-- end -->
<g id="node2" class="node">
<title>end</title>
</g>
<!-- 412ddef7&#45;a74b&#45;4a05&#45;ac94&#45;514f3967b1dd -->
<g id="node4" class="node">
<title>412ddef7&#45;a74b&#45;4a05&#45;ac94&#45;514f3967b1dd</title>
<ellipse fill="white" stroke="black" cx="734.5" cy="-99.87" rx="175.23" ry="26.74"/>
<text text-anchor="middle" x="734.5" y="-103.67" font-family="Helvetica,sans-Serif" font-size="14.00">▶ Modify</text>
<text text-anchor="middle" x="734.5" y="-88.67" font-family="Helvetica,sans-Serif" font-size="14.00">whitepaper/product_overview.md</text>
</g>
<!-- f4828bb2&#45;649d&#45;4f6b&#45;9eec&#45;0fdb768f8010&#45;&gt;412ddef7&#45;a74b&#45;4a05&#45;ac94&#45;514f3967b1dd -->
<g id="edge2" class="edge">
<title>f4828bb2&#45;649d&#45;4f6b&#45;9eec&#45;0fdb768f8010&#45;&gt;412ddef7&#45;a74b&#45;4a05&#45;ac94&#45;514f3967b1dd</title>
<path fill="none" stroke="black" d="M493.23,-99.87C511.65,-99.87 530.07,-99.87 548.49,-99.87"/>
<polygon fill="black" stroke="black" points="548.73,-103.37 558.73,-99.87 548.73,-96.37 548.73,-103.37"/>
</g>
<!-- d9a7a758&#45;8a54&#45;4e7d&#45;9f4a&#45;236dc0a77870 -->
<g id="node8" class="node">
<title>d9a7a758&#45;8a54&#45;4e7d&#45;9f4a&#45;236dc0a77870</title>
<polygon fill="yellow" stroke="black" points="497,-36 0,-36 0,0 497,0 497,-36"/>
<text text-anchor="middle" x="248.5" y="-14.3" font-family="Helvetica,sans-Serif" font-size="14.00">⋯ Run GitHub Actions for `whitepaper/spatial_computing_future.md`</text>
</g>
<!-- f4828bb2&#45;649d&#45;4f6b&#45;9eec&#45;0fdb768f8010&#45;&gt;d9a7a758&#45;8a54&#45;4e7d&#45;9f4a&#45;236dc0a77870 -->
<g id="edge1" class="edge">
<title>f4828bb2&#45;649d&#45;4f6b&#45;9eec&#45;0fdb768f8010&#45;&gt;d9a7a758&#45;8a54&#45;4e7d&#45;9f4a&#45;236dc0a77870</title>
<path fill="none" stroke="black" stroke-dasharray="5,2" d="M269.35,-72.72C265.96,-63.99 262.19,-54.26 258.79,-45.51"/>
<polygon fill="black" stroke="black" points="262.04,-44.2 255.16,-36.15 255.51,-46.74 262.04,-44.2"/>
</g>
<!-- e2e473ce&#45;1ea0&#45;4c3c&#45;938a&#45;0c991230c51a -->
<g id="node5" class="node">
<title>e2e473ce&#45;1ea0&#45;4c3c&#45;938a&#45;0c991230c51a</title>
<ellipse fill="white" stroke="black" cx="1202.5" cy="-99.87" rx="190.84" ry="26.74"/>
<text text-anchor="middle" x="1202.5" y="-103.67" font-family="Helvetica,sans-Serif" font-size="14.00">▶ Modify</text>
<text text-anchor="middle" x="1202.5" y="-88.67" font-family="Helvetica,sans-Serif" font-size="14.00">whitepaper/competitive_analysis.md</text>
</g>
<!-- 412ddef7&#45;a74b&#45;4a05&#45;ac94&#45;514f3967b1dd&#45;&gt;e2e473ce&#45;1ea0&#45;4c3c&#45;938a&#45;0c991230c51a -->
<g id="edge4" class="edge">
<title>412ddef7&#45;a74b&#45;4a05&#45;ac94&#45;514f3967b1dd&#45;&gt;e2e473ce&#45;1ea0&#45;4c3c&#45;938a&#45;0c991230c51a</title>
<path fill="none" stroke="black" d="M910,-99.87C940.37,-99.87 970.74,-99.87 1001.1,-99.87"/>
<polygon fill="black" stroke="black" points="1001.4,-103.37 1011.4,-99.87 1001.4,-96.37 1001.4,-103.37"/>
</g>
<!-- fa527298&#45;03c4&#45;4fe6&#45;89cd&#45;2a1ef380781d -->
<g id="node9" class="node">
<title>fa527298&#45;03c4&#45;4fe6&#45;89cd&#45;2a1ef380781d</title>
<polygon fill="white" stroke="black" points="954,-36 515,-36 515,0 954,0 954,-36"/>
<text text-anchor="middle" x="734.5" y="-14.3" font-family="Helvetica,sans-Serif" font-size="14.00">▶ Run GitHub Actions for `whitepaper/product_overview.md`</text>
</g>
<!-- 412ddef7&#45;a74b&#45;4a05&#45;ac94&#45;514f3967b1dd&#45;&gt;fa527298&#45;03c4&#45;4fe6&#45;89cd&#45;2a1ef380781d -->
<g id="edge3" class="edge">
<title>412ddef7&#45;a74b&#45;4a05&#45;ac94&#45;514f3967b1dd&#45;&gt;fa527298&#45;03c4&#45;4fe6&#45;89cd&#45;2a1ef380781d</title>
<path fill="none" stroke="black" stroke-dasharray="5,2" d="M734.5,-72.72C734.5,-64.27 734.5,-54.89 734.5,-46.36"/>
<polygon fill="black" stroke="black" points="738,-46.15 734.5,-36.15 731,-46.15 738,-46.15"/>
</g>
<!-- 680e0092&#45;bc18&#45;464b&#45;b848&#45;ae80195147e3 -->
<g id="node6" class="node">
<title>680e0092&#45;bc18&#45;464b&#45;b848&#45;ae80195147e3</title>
<ellipse fill="white" stroke="black" cx="1669.5" cy="-99.87" rx="173.9" ry="26.74"/>
<text text-anchor="middle" x="1669.5" y="-103.67" font-family="Helvetica,sans-Serif" font-size="14.00">▶ Modify</text>
<text text-anchor="middle" x="1669.5" y="-88.67" font-family="Helvetica,sans-Serif" font-size="14.00">whitepaper/technology_stack.md</text>
</g>
<!-- e2e473ce&#45;1ea0&#45;4c3c&#45;938a&#45;0c991230c51a&#45;&gt;680e0092&#45;bc18&#45;464b&#45;b848&#45;ae80195147e3 -->
<g id="edge6" class="edge">
<title>e2e473ce&#45;1ea0&#45;4c3c&#45;938a&#45;0c991230c51a&#45;&gt;680e0092&#45;bc18&#45;464b&#45;b848&#45;ae80195147e3</title>
<path fill="none" stroke="black" d="M1393.59,-99.87C1424.09,-99.87 1454.59,-99.87 1485.09,-99.87"/>
<polygon fill="black" stroke="black" points="1485.44,-103.37 1495.44,-99.87 1485.44,-96.37 1485.44,-103.37"/>
</g>
<!-- 52d40c78&#45;3f98&#45;44e5&#45;bf98&#45;e6e25590848e -->
<g id="node10" class="node">
<title>52d40c78&#45;3f98&#45;44e5&#45;bf98&#45;e6e25590848e</title>
<polygon fill="white" stroke="black" points="1433,-36 972,-36 972,0 1433,0 1433,-36"/>
<text text-anchor="middle" x="1202.5" y="-14.3" font-family="Helvetica,sans-Serif" font-size="14.00">▶ Run GitHub Actions for `whitepaper/competitive_analysis.md`</text>
</g>
<!-- e2e473ce&#45;1ea0&#45;4c3c&#45;938a&#45;0c991230c51a&#45;&gt;52d40c78&#45;3f98&#45;44e5&#45;bf98&#45;e6e25590848e -->
<g id="edge5" class="edge">
<title>e2e473ce&#45;1ea0&#45;4c3c&#45;938a&#45;0c991230c51a&#45;&gt;52d40c78&#45;3f98&#45;44e5&#45;bf98&#45;e6e25590848e</title>
<path fill="none" stroke="black" stroke-dasharray="5,2" d="M1202.5,-72.72C1202.5,-64.27 1202.5,-54.89 1202.5,-46.36"/>
<polygon fill="black" stroke="black" points="1206,-46.15 1202.5,-36.15 1199,-46.15 1206,-46.15"/>
</g>
<!-- c07dd0dd&#45;76ee&#45;4085&#45;bc5a&#45;be93df4f6a4c -->
<g id="node7" class="node">
<title>c07dd0dd&#45;76ee&#45;4085&#45;bc5a&#45;be93df4f6a4c</title>
<ellipse fill="white" stroke="black" cx="2111.5" cy="-99.87" rx="200.22" ry="26.74"/>
<text text-anchor="middle" x="2111.5" y="-103.67" font-family="Helvetica,sans-Serif" font-size="14.00">▶ Modify</text>
<text text-anchor="middle" x="2111.5" y="-88.67" font-family="Helvetica,sans-Serif" font-size="14.00">whitepaper/blockchain_integration.md</text>
</g>
<!-- 680e0092&#45;bc18&#45;464b&#45;b848&#45;ae80195147e3&#45;&gt;c07dd0dd&#45;76ee&#45;4085&#45;bc5a&#45;be93df4f6a4c -->
<g id="edge8" class="edge">
<title>680e0092&#45;bc18&#45;464b&#45;b848&#45;ae80195147e3&#45;&gt;c07dd0dd&#45;76ee&#45;4085&#45;bc5a&#45;be93df4f6a4c</title>
<path fill="none" stroke="black" d="M1843.45,-99.87C1862.7,-99.87 1881.94,-99.87 1901.18,-99.87"/>
<polygon fill="black" stroke="black" points="1901.25,-103.37 1911.25,-99.87 1901.25,-96.37 1901.25,-103.37"/>
</g>
<!-- f7489c67&#45;c1ce&#45;48a6&#45;be6d&#45;0e1e8a0d094a -->
<g id="node11" class="node">
<title>f7489c67&#45;c1ce&#45;48a6&#45;be6d&#45;0e1e8a0d094a</title>
<polygon fill="white" stroke="black" points="1888,-36 1451,-36 1451,0 1888,0 1888,-36"/>
<text text-anchor="middle" x="1669.5" y="-14.3" font-family="Helvetica,sans-Serif" font-size="14.00">▶ Run GitHub Actions for `whitepaper/technology_stack.md`</text>
</g>
<!-- 680e0092&#45;bc18&#45;464b&#45;b848&#45;ae80195147e3&#45;&gt;f7489c67&#45;c1ce&#45;48a6&#45;be6d&#45;0e1e8a0d094a -->
<g id="edge7" class="edge">
<title>680e0092&#45;bc18&#45;464b&#45;b848&#45;ae80195147e3&#45;&gt;f7489c67&#45;c1ce&#45;48a6&#45;be6d&#45;0e1e8a0d094a</title>
<path fill="none" stroke="black" stroke-dasharray="5,2" d="M1669.5,-72.72C1669.5,-64.27 1669.5,-54.89 1669.5,-46.36"/>
<polygon fill="black" stroke="black" points="1673,-46.15 1669.5,-36.15 1666,-46.15 1673,-46.15"/>
</g>
<!-- c07dd0dd&#45;76ee&#45;4085&#45;bc5a&#45;be93df4f6a4c&#45;&gt;end -->
<g id="edge11" class="edge">
<title>c07dd0dd&#45;76ee&#45;4085&#45;bc5a&#45;be93df4f6a4c&#45;&gt;end</title>
<path fill="none" stroke="black" d="M2311.92,-99.87C2331.83,-99.87 2348.42,-99.87 2358.6,-99.87"/>
<polygon fill="black" stroke="black" points="2358.88,-103.37 2368.88,-99.87 2358.88,-96.37 2358.88,-103.37"/>
<text text-anchor="middle" x="2340.31" y="-106.67" font-family="Helvetica,sans-Serif" font-size="14.00">Finish</text>
</g>
<!-- f6a320bc&#45;d6e0&#45;4ef0&#45;acdd&#45;e3170236d1d7 -->
<g id="node12" class="node">
<title>f6a320bc&#45;d6e0&#45;4ef0&#45;acdd&#45;e3170236d1d7</title>
<polygon fill="white" stroke="black" points="2380.5,-36 1906.5,-36 1906.5,0 2380.5,0 2380.5,-36"/>
<text text-anchor="middle" x="2143.5" y="-14.3" font-family="Helvetica,sans-Serif" font-size="14.00">▶ Run GitHub Actions for `whitepaper/blockchain_integration.md`</text>
</g>
<!-- c07dd0dd&#45;76ee&#45;4085&#45;bc5a&#45;be93df4f6a4c&#45;&gt;f6a320bc&#45;d6e0&#45;4ef0&#45;acdd&#45;e3170236d1d7 -->
<g id="edge9" class="edge">
<title>c07dd0dd&#45;76ee&#45;4085&#45;bc5a&#45;be93df4f6a4c&#45;&gt;f6a320bc&#45;d6e0&#45;4ef0&#45;acdd&#45;e3170236d1d7</title>
<path fill="none" stroke="black" stroke-dasharray="5,2" d="M2121.98,-72.72C2125.47,-63.99 2129.37,-54.26 2132.88,-45.51"/>
<polygon fill="black" stroke="black" points="2136.16,-46.73 2136.63,-36.15 2129.66,-44.13 2136.16,-46.73"/>
</g>
</g>
</svg>
