<?xml version="1.0" encoding="UTF-8" standalone="no"?>
<!DOCTYPE svg PUBLIC "-//W3C//DTD SVG 1.1//EN"
 "http://www.w3.org/Graphics/SVG/1.1/DTD/svg11.dtd">
<!-- Generated by graphviz version 2.43.0 (0)
 -->
<!-- Title: %3 Pages: 1 -->
<svg width="1788pt" height="238pt"
 viewBox="0.00 0.00 1787.50 237.74" xmlns="http://www.w3.org/2000/svg" xmlns:xlink="http://www.w3.org/1999/xlink">
<g id="graph0" class="graph" transform="scale(1 1) rotate(0) translate(36 201.74)">
<title>%3</title>
<polygon fill="dimgray" stroke="transparent" points="-36,36 -36,-201.74 1751.5,-201.74 1751.5,36 -36,36"/>
<text text-anchor="middle" x="857.75" y="-150.54" font-family="Helvetica,sans-Serif" font-size="14.00">Sweep&#39;s Plan &amp; Progress</text>
<!-- start -->
<g id="node1" class="node">
<title>start</title>
</g>
<!-- 73118fb4&#45;2c4b&#45;415a&#45;a6de&#45;e2471d227bd4 -->
<g id="node3" class="node">
<title>73118fb4&#45;2c4b&#45;415a&#45;a6de&#45;e2471d227bd4</title>
<ellipse fill="#0ee832" stroke="black" cx="240" cy="-99.87" rx="145.83" ry="26.74"/>
<text text-anchor="middle" x="240" y="-103.67" font-family="Helvetica,sans-Serif" font-size="14.00">✓ Modify</text>
<text text-anchor="middle" x="240" y="-88.67" font-family="Helvetica,sans-Serif" font-size="14.00">whitepaper/cover_page.md</text>
</g>
<!-- start&#45;&gt;73118fb4&#45;2c4b&#45;415a&#45;a6de&#45;e2471d227bd4 -->
<g id="edge8" class="edge">
<title>start&#45;&gt;73118fb4&#45;2c4b&#45;415a&#45;a6de&#45;e2471d227bd4</title>
<path fill="none" stroke="black" d="M42.57,-99.87C45.76,-99.87 62.1,-99.87 84.13,-99.87"/>
<polygon fill="black" stroke="black" points="84.26,-103.37 94.26,-99.87 84.26,-96.37 84.26,-103.37"/>
<text text-anchor="middle" x="68.42" y="-106.67" font-family="Helvetica,sans-Serif" font-size="14.00">Start</text>
</g>
<!-- end -->
<g id="node2" class="node">
<title>end</title>
</g>
<!-- 3845f70a&#45;39a0&#45;4765&#45;9c23&#45;72186e3dddbd -->
<g id="node4" class="node">
<title>3845f70a&#45;39a0&#45;4765&#45;9c23&#45;72186e3dddbd</title>
<ellipse fill="#0ee832" stroke="black" cx="638" cy="-99.87" rx="175.23" ry="26.74"/>
<text text-anchor="middle" x="638" y="-103.67" font-family="Helvetica,sans-Serif" font-size="14.00">✓ Modify</text>
<text text-anchor="middle" x="638" y="-88.67" font-family="Helvetica,sans-Serif" font-size="14.00">whitepaper/product_overview.md</text>
</g>
<!-- 73118fb4&#45;2c4b&#45;415a&#45;a6de&#45;e2471d227bd4&#45;&gt;3845f70a&#45;39a0&#45;4765&#45;9c23&#45;72186e3dddbd -->
<g id="edge2" class="edge">
<title>73118fb4&#45;2c4b&#45;415a&#45;a6de&#45;e2471d227bd4&#45;&gt;3845f70a&#45;39a0&#45;4765&#45;9c23&#45;72186e3dddbd</title>
<path fill="none" stroke="black" d="M385.75,-99.87C407.97,-99.87 430.18,-99.87 452.4,-99.87"/>
<polygon fill="black" stroke="black" points="452.61,-103.37 462.61,-99.87 452.61,-96.37 452.61,-103.37"/>
</g>
<!-- e08ce826&#45;f3b4&#45;44c1&#45;9a60&#45;8cb01757bc25 -->
<g id="node7" class="node">
<title>e08ce826&#45;f3b4&#45;44c1&#45;9a60&#45;8cb01757bc25</title>
<polygon fill="#0ee832" stroke="black" points="398,-36 0,-36 0,0 398,0 398,-36"/>
<text text-anchor="middle" x="199" y="-14.3" font-family="Helvetica,sans-Serif" font-size="14.00">✓ Run GitHub Actions for `whitepaper/cover_page.md`</text>
</g>
<!-- 73118fb4&#45;2c4b&#45;415a&#45;a6de&#45;e2471d227bd4&#45;&gt;e08ce826&#45;f3b4&#45;44c1&#45;9a60&#45;8cb01757bc25 -->
<g id="edge1" class="edge">
<title>73118fb4&#45;2c4b&#45;415a&#45;a6de&#45;e2471d227bd4&#45;&gt;e08ce826&#45;f3b4&#45;44c1&#45;9a60&#45;8cb01757bc25</title>
<path fill="none" stroke="black" stroke-dasharray="5,2" d="M226.58,-72.72C222.05,-63.9 216.99,-54.05 212.46,-45.23"/>
<polygon fill="black" stroke="black" points="215.48,-43.44 207.8,-36.15 209.25,-46.64 215.48,-43.44"/>
</g>
<!-- a9809620&#45;bc67&#45;47c6&#45;bc52&#45;64414e521935 -->
<g id="node5" class="node">
<title>a9809620&#45;bc67&#45;47c6&#45;bc52&#45;64414e521935</title>
<ellipse fill="white" stroke="black" cx="1089" cy="-99.87" rx="164.1" ry="26.74"/>
<text text-anchor="middle" x="1089" y="-103.67" font-family="Helvetica,sans-Serif" font-size="14.00">▶ Modify</text>
<text text-anchor="middle" x="1089" y="-88.67" font-family="Helvetica,sans-Serif" font-size="14.00">whitepaper/advisory_board.md</text>
</g>
<!-- 3845f70a&#45;39a0&#45;4765&#45;9c23&#45;72186e3dddbd&#45;&gt;a9809620&#45;bc67&#45;47c6&#45;bc52&#45;64414e521935 -->
<g id="edge4" class="edge">
<title>3845f70a&#45;39a0&#45;4765&#45;9c23&#45;72186e3dddbd&#45;&gt;a9809620&#45;bc67&#45;47c6&#45;bc52&#45;64414e521935</title>
<path fill="none" stroke="black" d="M813.73,-99.87C847.27,-99.87 880.81,-99.87 914.34,-99.87"/>
<polygon fill="black" stroke="black" points="914.75,-103.37 924.75,-99.87 914.75,-96.37 914.75,-103.37"/>
</g>
<!-- 304895c2&#45;9ece&#45;4576&#45;b85f&#45;b1927218647a -->
<g id="node8" class="node">
<title>304895c2&#45;9ece&#45;4576&#45;b85f&#45;b1927218647a</title>
<polygon fill="yellow" stroke="black" points="859.5,-36 416.5,-36 416.5,0 859.5,0 859.5,-36"/>
<text text-anchor="middle" x="638" y="-14.3" font-family="Helvetica,sans-Serif" font-size="14.00">⋯ Run GitHub Actions for `whitepaper/product_overview.md`</text>
</g>
<!-- 3845f70a&#45;39a0&#45;4765&#45;9c23&#45;72186e3dddbd&#45;&gt;304895c2&#45;9ece&#45;4576&#45;b85f&#45;b1927218647a -->
<g id="edge3" class="edge">
<title>3845f70a&#45;39a0&#45;4765&#45;9c23&#45;72186e3dddbd&#45;&gt;304895c2&#45;9ece&#45;4576&#45;b85f&#45;b1927218647a</title>
<path fill="none" stroke="black" stroke-dasharray="5,2" d="M638,-72.72C638,-64.27 638,-54.89 638,-46.36"/>
<polygon fill="black" stroke="black" points="641.5,-46.15 638,-36.15 634.5,-46.15 641.5,-46.15"/>
</g>
<!-- 25b9b189&#45;7571&#45;4181&#45;9e4a&#45;310080036bc0 -->
<g id="node6" class="node">
<title>25b9b189&#45;7571&#45;4181&#45;9e4a&#45;310080036bc0</title>
<ellipse fill="white" stroke="black" cx="1476" cy="-99.87" rx="145.83" ry="26.74"/>
<text text-anchor="middle" x="1476" y="-103.67" font-family="Helvetica,sans-Serif" font-size="14.00">▶ Modify</text>
<text text-anchor="middle" x="1476" y="-88.67" font-family="Helvetica,sans-Serif" font-size="14.00">whitepaper/appendices.md</text>
</g>
<!-- a9809620&#45;bc67&#45;47c6&#45;bc52&#45;64414e521935&#45;&gt;25b9b189&#45;7571&#45;4181&#45;9e4a&#45;310080036bc0 -->
<g id="edge6" class="edge">
<title>a9809620&#45;bc67&#45;47c6&#45;bc52&#45;64414e521935&#45;&gt;25b9b189&#45;7571&#45;4181&#45;9e4a&#45;310080036bc0</title>
<path fill="none" stroke="black" d="M1253.4,-99.87C1275.52,-99.87 1297.64,-99.87 1319.76,-99.87"/>
<polygon fill="black" stroke="black" points="1319.92,-103.37 1329.92,-99.87 1319.92,-96.37 1319.92,-103.37"/>
</g>
<!-- e5f0775d&#45;5c0f&#45;47d0&#45;9881&#45;a4224cac3aec -->
<g id="node9" class="node">
<title>e5f0775d&#45;5c0f&#45;47d0&#45;9881&#45;a4224cac3aec</title>
<polygon fill="white" stroke="black" points="1300.5,-36 877.5,-36 877.5,0 1300.5,0 1300.5,-36"/>
<text text-anchor="middle" x="1089" y="-14.3" font-family="Helvetica,sans-Serif" font-size="14.00">▶ Run GitHub Actions for `whitepaper/advisory_board.md`</text>
</g>
<!-- a9809620&#45;bc67&#45;47c6&#45;bc52&#45;64414e521935&#45;&gt;e5f0775d&#45;5c0f&#45;47d0&#45;9881&#45;a4224cac3aec -->
<g id="edge5" class="edge">
<title>a9809620&#45;bc67&#45;47c6&#45;bc52&#45;64414e521935&#45;&gt;e5f0775d&#45;5c0f&#45;47d0&#45;9881&#45;a4224cac3aec</title>
<path fill="none" stroke="black" stroke-dasharray="5,2" d="M1089,-72.72C1089,-64.27 1089,-54.89 1089,-46.36"/>
<polygon fill="black" stroke="black" points="1092.5,-46.15 1089,-36.15 1085.5,-46.15 1092.5,-46.15"/>
</g>
<!-- 25b9b189&#45;7571&#45;4181&#45;9e4a&#45;310080036bc0&#45;&gt;end -->
<g id="edge9" class="edge">
<title>25b9b189&#45;7571&#45;4181&#45;9e4a&#45;310080036bc0&#45;&gt;end</title>
<path fill="none" stroke="black" d="M1621.81,-99.87C1641.57,-99.87 1658.62,-99.87 1669.07,-99.87"/>
<polygon fill="black" stroke="black" points="1669.35,-103.37 1679.35,-99.87 1669.35,-96.37 1669.35,-103.37"/>
<text text-anchor="middle" x="1650.58" y="-106.67" font-family="Helvetica,sans-Serif" font-size="14.00">Finish</text>
</g>
<!-- 5e709417&#45;7acb&#45;4a99&#45;8e11&#45;8163c1d23636 -->
<g id="node10" class="node">
<title>5e709417&#45;7acb&#45;4a99&#45;8e11&#45;8163c1d23636</title>
<polygon fill="white" stroke="black" points="1715.5,-36 1318.5,-36 1318.5,0 1715.5,0 1715.5,-36"/>
<text text-anchor="middle" x="1517" y="-14.3" font-family="Helvetica,sans-Serif" font-size="14.00">▶ Run GitHub Actions for `whitepaper/appendices.md`</text>
</g>
<!-- 25b9b189&#45;7571&#45;4181&#45;9e4a&#45;310080036bc0&#45;&gt;5e709417&#45;7acb&#45;4a99&#45;8e11&#45;8163c1d23636 -->
<g id="edge7" class="edge">
<title>25b9b189&#45;7571&#45;4181&#45;9e4a&#45;310080036bc0&#45;&gt;5e709417&#45;7acb&#45;4a99&#45;8e11&#45;8163c1d23636</title>
<path fill="none" stroke="black" stroke-dasharray="5,2" d="M1489.42,-72.72C1493.95,-63.9 1499.01,-54.05 1503.54,-45.23"/>
<polygon fill="black" stroke="black" points="1506.75,-46.64 1508.2,-36.15 1500.52,-43.44 1506.75,-46.64"/>
</g>
</g>
</svg>
